<svg width="34" height="34" viewBox="0 0 34 34" fill="none" xmlns="http://www.w3.org/2000/svg">
<ellipse cx="17.0006" cy="16.9999" rx="17.0004" ry="17.0001" transform="rotate(-180 17.0006 16.9999)" fill="#0082E0"/>
<path d="M14.4699 12.0129C14.3117 12.1224 14.2508 12.2685 14.2849 12.4633C14.3019 12.5461 14.5357 12.7896 16.5226 14.7765L18.7433 16.9997L16.5226 19.2203C14.1096 21.6358 14.2459 21.4848 14.2849 21.7186C14.3238 21.9621 14.6014 22.1082 14.8522 22.0157C14.9423 21.9816 19.6199 17.3065 19.6832 17.1896C19.7075 17.1384 19.7294 17.0532 19.7294 16.9997C19.7294 16.9461 19.7075 16.8609 19.6832 16.8097C19.6199 16.6928 14.9423 12.0177 14.8522 11.9836C14.7329 11.9398 14.5576 11.9544 14.4699 12.0129Z" fill="white"/>
</svg>
