<svg width="40" height="40" viewBox="0 0 40 40" fill="none" xmlns="http://www.w3.org/2000/svg">
<rect width="40" height="40" rx="10" fill="#0082E0"/>
<g clip-path="url(#clip0_2025_2)">
<path d="M10.5273 12.7969C10.1992 12.918 10 13.2188 10 13.5938C10 13.9844 10.2266 14.3008 10.582 14.4102C10.7969 14.4727 29.2031 14.4727 29.418 14.4102C29.7734 14.3008 30 13.9844 30 13.5938C30 13.2109 29.8008 12.9141 29.457 12.793C29.3047 12.7422 28.2617 12.7344 19.9844 12.7383C11.9531 12.7383 10.6641 12.7461 10.5273 12.7969Z" fill="white"/>
<path d="M10.4258 19.2305C10.332 19.2812 10.2031 19.3984 10.1367 19.4883C10.0273 19.6406 10.0195 19.6836 10.0195 19.9805C10.0195 20.2773 10.0273 20.3203 10.1367 20.4727C10.2031 20.5625 10.332 20.6797 10.4258 20.7305L10.5977 20.8203H20H29.4023L29.5742 20.7305C29.668 20.6797 29.8008 20.5625 29.8633 20.4727C29.9727 20.3203 29.9805 20.2773 29.9805 19.9805C29.9805 19.6836 29.9727 19.6406 29.8633 19.4883C29.8008 19.3984 29.668 19.2812 29.5742 19.2305L29.4023 19.1406H20H10.5977L10.4258 19.2305Z" fill="white"/>
<path d="M10.5742 25.5586C10.2188 25.6719 10 25.9766 10 26.3672C10 26.7539 10.2383 27.0898 10.5742 27.1836C10.7812 27.2422 29.2188 27.2422 29.4258 27.1836C29.7617 27.0898 30 26.7539 30 26.3672C30 25.9648 29.7617 25.6445 29.3906 25.5508C29.1406 25.4883 10.7773 25.4961 10.5742 25.5586Z" fill="white"/>
</g>
<defs>
<clipPath id="clip0_2025_2">
<rect width="20" height="20" fill="white" transform="translate(10 10)"/>
</clipPath>
</defs>
</svg>
