<svg width="30" height="12" viewBox="0 0 30 12" fill="none" xmlns="http://www.w3.org/2000/svg">
<path d="M26.2502 2.5C26.5502 2.5 26.8127 2.6125 26.9877 2.8125C27.1627 3 27.2377 3.275 27.2002 3.575L26.5752 7.3125C26.4752 8.125 25.7502 8.75 25.0002 8.75H21.2502C20.4503 8.75 19.5503 8.05 19.3753 7.275L18.0503 3.2875C18.0002 3.125 18.0378 2.8875 18.1253 2.7375C18.2628 2.5875 18.4753 2.5 18.7503 2.5H26.2502ZM21.2502 11.25H25.0002C27.0252 11.25 28.8002 9.675 29.0502 7.675L29.6752 3.9375C29.8127 2.875 29.5127 1.875 28.8627 1.15C28.2127 0.425 27.2627 0 26.2502 0H18.7503C17.7128 0 16.7753 0.4375 16.1753 1.2C16.0378 1.3875 15.9128 1.5875 15.8127 1.8125C15.2753 1.7 14.7253 1.7 14.2003 1.8125C14.1003 1.5875 13.9753 1.3875 13.8253 1.2C13.2378 0.4375 12.3003 0 11.2503 0H3.75025C2.73775 0 1.78775 0.425 1.13775 1.15C0.500252 1.875 0.200253 2.875 0.325253 3.8875L0.962753 7.725C1.20025 9.675 2.98775 11.25 5.00025 11.25H8.75025C10.7003 11.25 12.6003 9.7625 13.0753 7.875L14.2003 4.4875C14.6753 4.1375 15.3378 4.1375 15.8127 4.4875L16.9628 7.9625C17.4128 9.775 19.3003 11.25 21.2502 11.25ZM11.2503 2.5C11.5253 2.5 11.7378 2.5875 11.8753 2.7375C11.9753 2.8875 12.0003 3.125 11.9378 3.375L10.6753 7.1875C10.4503 8.05 9.55025 8.75 8.75025 8.75H5.00025C4.26275 8.75 3.52525 8.125 3.43775 7.3625L2.80025 3.525C2.76275 3.275 2.83775 3 3.01275 2.8125C3.18775 2.6125 3.45025 2.5 3.75025 2.5H11.2503Z" fill="#0082E0"/>
</svg>
