<svg width="10" height="10" viewBox="0 0 10 10" fill="none" xmlns="http://www.w3.org/2000/svg">
<path d="M2.32044 1.05468C1.90834 1.10742 1.54505 1.36523 1.37513 1.72851C1.24232 2.00976 1.25013 1.79687 1.25013 5C1.25013 8.23242 1.24037 7.99414 1.3888 8.29687C1.52552 8.57812 1.80287 8.8125 2.11927 8.91211C2.31459 8.97265 2.68568 8.97461 2.88099 8.91211C2.98255 8.8789 3.58607 8.53711 5.2638 7.55468C6.50013 6.83008 7.58412 6.19531 7.67396 6.14258C8.1388 5.86523 8.37709 5.47656 8.37904 4.99804C8.37904 4.65625 8.25404 4.34961 8.01771 4.11328C7.88685 3.98242 7.75404 3.90039 5.47865 2.57031C3.94935 1.67578 3.02943 1.14843 2.94544 1.11914C2.81849 1.07617 2.58412 1.03515 2.4806 1.03906C2.45326 1.03906 2.38099 1.04687 2.32044 1.05468ZM2.68373 1.91992C2.88099 2.01953 7.36732 4.66406 7.40834 4.70312C7.5763 4.86133 7.56654 5.125 7.38685 5.30664C7.35365 5.33789 6.35365 5.93359 5.16419 6.63086C3.97279 7.32812 2.91419 7.94726 2.81263 8.00976C2.71107 8.07031 2.59779 8.12695 2.56263 8.13476C2.41419 8.16601 2.21498 8.03711 2.13099 7.85156C2.09193 7.76367 2.08998 7.73633 2.08998 5V2.23633L2.13685 2.13867C2.20326 1.99804 2.2931 1.91992 2.41224 1.89843C2.51771 1.88086 2.62318 1.88867 2.68373 1.91992Z" fill="#0082E0"/>
</svg>
