<svg width="10" height="6" viewBox="0 0 10 6" fill="none" xmlns="http://www.w3.org/2000/svg">
<path d="M6.75547 0.0539064C6.59609 0.138282 6.51406 0.271875 6.50469 0.466406C6.49766 0.592969 6.50469 0.644532 6.54219 0.717188C6.57031 0.76875 6.95234 1.16953 7.42344 1.64063L8.25781 2.47266L4.29219 2.48438C-0.132813 2.49844 0.260938 2.48203 0.10625 2.66016C0.0195313 2.75859 -0.00390625 2.82656 -0.00390625 3C-0.00390625 3.17813 0.0195313 3.24375 0.115625 3.35156C0.275 3.52734 -0.0226563 3.51563 4.35313 3.51563H8.26953L7.42109 4.36406C6.95703 4.83281 6.55625 5.25 6.53516 5.29453C6.47188 5.42109 6.49297 5.6625 6.58203 5.78672C6.68281 5.93438 6.81172 6 6.99453 6C7.07656 5.99766 7.17266 5.98594 7.20781 5.96953C7.24297 5.95313 7.87813 5.33672 8.61875 4.59844C9.91016 3.30938 9.96641 3.25078 9.99219 3.14063C10.0227 3.01641 10.0063 2.83125 9.96172 2.75391C9.91016 2.66719 7.28516 0.0750003 7.21016 0.0375004C7.09531 -0.0187497 6.88203 -0.0117183 6.75547 0.0539064Z" fill="white"/>
</svg>
