<svg width="34" height="34" viewBox="0 0 34 34" fill="none" xmlns="http://www.w3.org/2000/svg">
<circle cx="25" cy="25" r="9" fill="#CCE5F6"/>
<path d="M11.7484 1.85155C10.1429 2.00975 8.37927 2.53123 6.70934 3.33983C5.67809 3.83788 5.34997 4.03123 4.10192 4.89256C1.72302 6.52733 0.539422 7.71092 0.152703 8.8535C-0.0113595 9.31639 -0.0406564 10.2773 0.0882498 10.9043C0.621453 13.5176 2.35583 15.7969 4.71716 16.9805C6.60973 17.9297 7.98669 17.9941 9.07067 17.1855C9.17028 17.1094 9.25817 17.0625 9.25817 17.0801C9.25817 17.1504 8.92419 17.6367 8.51989 18.1465C8.057 18.7383 7.93981 18.9961 7.98669 19.3418C8.06286 19.8984 8.50231 20.2441 9.08239 20.2031C9.43981 20.1797 9.80309 19.9805 10.8519 19.2363C11.139 19.0312 11.3851 18.8672 11.4027 18.8672C11.4144 18.8672 11.4261 19.4414 11.4261 20.1387C11.4261 21.4687 11.391 21.6973 11.1449 22.1894C10.934 22.5937 10.5121 23.0098 10.0902 23.2148C9.73278 23.3906 9.65661 23.4082 9.14098 23.4082C8.50231 23.4082 8.25622 23.3262 7.74645 22.9512C7.15466 22.5234 6.87341 21.8965 6.81481 20.9004C6.78552 20.3437 6.76208 20.2558 6.63903 20.1328C6.45153 19.9394 6.29333 19.9219 5.03942 19.9219C3.7738 19.9219 3.62731 19.9394 3.42809 20.1445C3.29333 20.2793 3.28161 20.332 3.28161 20.8301C3.28161 22.7109 4.1488 24.6855 5.57262 26.0449C6.59802 27.0117 7.76989 27.6504 9.22302 28.0137C9.90856 28.1894 11.4965 28.2305 12.2172 28.0957C13.7992 27.8027 15.1527 27.0586 16.307 25.8398C17.3441 24.7558 17.9945 23.5371 18.3519 22.0019C18.4515 21.5801 18.4808 21.1992 18.5101 20.1387L18.5453 18.8027L19.014 19.1426C19.2718 19.3301 19.7289 19.6406 20.0277 19.834C20.4789 20.1152 20.6312 20.1797 20.8949 20.2031C21.2875 20.2383 21.4984 20.1504 21.7621 19.8633C22.0023 19.5996 22.0843 19.2246 21.973 18.9023C21.9379 18.7851 21.7386 18.4863 21.5394 18.2402C21.1468 17.748 20.7425 17.168 20.7425 17.0918C20.7425 17.0683 20.8304 17.1094 20.9359 17.1914C21.0414 17.2734 21.3109 17.4258 21.5336 17.5312C22.4476 17.9531 23.7015 17.7715 25.2601 16.9863C26.057 16.5879 26.7074 16.125 27.3929 15.457C28.6117 14.2851 29.3675 12.9902 29.807 11.3437C30.0179 10.5703 30.0355 9.43358 29.8597 8.88866C29.4789 7.7285 28.307 6.54491 25.8988 4.89256C24.7738 4.11913 24.3519 3.85545 23.6019 3.48045C21.5629 2.45506 19.6234 1.916 17.6957 1.83397C16.8578 1.79881 16.8343 1.80467 16.1722 1.99217C15.2758 2.24998 14.6722 2.25584 13.9457 2.02147C13.5297 1.8867 13.3304 1.85741 12.7152 1.84569C12.3109 1.83397 11.8773 1.83983 11.7484 1.85155ZM13.6293 3.23436C14.1566 3.39842 14.2797 3.416 14.9711 3.416C15.6508 3.416 15.7914 3.39842 16.2601 3.24608C16.6996 3.10545 16.8871 3.07616 17.3734 3.07616C17.8949 3.07616 17.9945 3.09373 18.2816 3.23436C18.7152 3.45116 18.9906 3.68553 19.2367 4.05467C19.5004 4.45897 19.6175 4.83983 19.6586 5.4492C19.7172 6.18748 19.8226 6.59178 20.18 7.39452C20.6957 8.57811 20.8011 9.00584 20.8011 9.96092C20.8011 11.0859 20.6371 11.414 19.4828 12.5976C18.434 13.6758 17.9711 14.3613 17.6371 15.3223C17.3558 16.1367 17.3324 16.3769 17.2855 18.9258C17.2386 21.5683 17.2211 21.709 16.8461 22.7109C16.1019 24.6973 14.4144 26.2265 12.3636 26.789C11.9359 26.9062 11.725 26.9238 10.8988 26.9238C10.2953 26.9238 9.80895 26.8945 9.60973 26.8476C7.74059 26.3906 6.32848 25.3828 5.4027 23.8418C4.98669 23.1445 4.64098 22.1777 4.54723 21.457L4.50622 21.1465L5.05114 21.164L5.59606 21.1816L5.63122 21.5332C5.75427 22.7285 6.49841 23.7949 7.56481 24.3047C8.15075 24.5859 8.51403 24.668 9.15856 24.668C10.5355 24.668 11.7015 23.9004 12.3109 22.5996C12.6566 21.8496 12.6625 21.7676 12.6449 18.8262L12.6215 16.1426L12.4633 15.6211C12.2582 14.9531 11.8539 14.1738 11.4379 13.6348C11.2621 13.4004 10.7816 12.8672 10.3773 12.4512C9.3402 11.3789 9.182 11.0449 9.19372 9.85545C9.19958 9.05858 9.33434 8.49608 9.78552 7.45897C10.1547 6.59178 10.2601 6.1992 10.3656 5.30858C10.4418 4.66991 10.6644 4.166 11.0511 3.74998C11.7308 3.02342 12.4925 2.87108 13.6293 3.23436ZM9.48669 3.84959C9.39294 4.03709 9.29333 4.31248 9.25817 4.45897L9.19372 4.7285L8.56677 4.99803C7.75231 5.35545 6.75036 5.91209 5.7777 6.55663C4.82848 7.18358 3.84997 7.92186 3.72692 8.09764C3.46325 8.47264 3.75036 9.02342 4.20739 9.02342C4.45348 9.02342 4.48278 9.00584 5.70153 8.12108C6.11169 7.82225 6.75622 7.39452 7.13708 7.166C7.88122 6.71483 8.89489 6.18163 8.93591 6.21678C8.94763 6.23436 8.86559 6.45116 8.75427 6.70897C8.10973 8.16795 7.96325 8.75975 7.96325 9.96092C7.96325 10.5586 7.99255 10.8633 8.08044 11.2031C8.28552 11.9941 8.49059 12.2988 9.53356 13.3711C9.9613 13.8105 10.3129 14.1973 10.3129 14.2207C10.3129 14.25 9.87341 14.7129 9.33434 15.2402C8.2445 16.3183 8.00427 16.4765 7.40661 16.5117C7.1195 16.5293 6.92028 16.5 6.46911 16.3535C4.31286 15.6855 2.57848 14.1035 1.71716 12.0117C1.28942 10.9805 1.12536 9.89061 1.31872 9.30467C1.59411 8.4492 2.70739 7.36522 4.80505 5.91209C6.35192 4.84569 7.34802 4.31834 8.87731 3.77342C9.26403 3.6328 9.59802 3.52147 9.61559 3.52147C9.63317 3.51561 9.57458 3.66795 9.48669 3.84959ZM22.2425 4.21288C23.098 4.57616 23.7425 4.93944 24.7855 5.6367C26.9125 7.06639 28.0609 8.08592 28.5472 8.99413C28.7289 9.32811 28.7406 9.37498 28.7406 9.96092C28.7406 11.8418 27.4222 14.1035 25.6058 15.3515C24.5804 16.0488 23.2738 16.5586 22.5941 16.5117C21.9965 16.4765 21.7562 16.3183 20.6722 15.2402C20.1273 14.7129 19.6879 14.25 19.6879 14.2207C19.6879 14.1914 20.0394 13.8047 20.4672 13.3652C21.7562 12.041 21.973 11.6015 22.0199 10.2422C22.0609 8.95311 21.9261 8.291 21.3519 6.9785C21.1761 6.58006 21.0414 6.24022 21.059 6.2285C21.1058 6.18163 22.225 6.77342 23.0277 7.26561C23.4437 7.52928 24.1 7.96873 24.4808 8.24413C25.5297 9.01756 25.5414 9.02342 25.7933 9.02342C26.2504 9.02342 26.5375 8.47264 26.2738 8.09764C26.1449 7.916 25.1957 7.20116 24.1937 6.54491C23.1918 5.8828 22.1547 5.30272 21.3871 4.98045L20.8246 4.74608L20.7484 4.40623C20.7074 4.22459 20.6078 3.9492 20.5316 3.79686L20.391 3.52147L20.9652 3.72069C21.2757 3.82616 21.85 4.04881 22.2425 4.21288ZM11.3441 16.2949C11.3851 16.4707 11.4261 16.7461 11.4261 16.916V17.2207L11.0043 17.5605C10.7699 17.7539 10.43 18.0117 10.2543 18.1348C9.99059 18.3281 9.94958 18.3457 10.0316 18.2226C10.3363 17.789 10.7992 16.9453 10.9984 16.4824C11.1215 16.1894 11.2269 15.9551 11.2386 15.9668C11.2504 15.9785 11.2972 16.125 11.3441 16.2949ZM19.2074 16.9629C19.307 17.1562 19.5297 17.5488 19.7113 17.8301L20.0394 18.3515L19.7289 18.1289C19.5648 18.0117 19.225 17.7539 18.9789 17.5547L18.5277 17.1973L18.557 16.9043C18.5863 16.5879 18.6859 16.0605 18.7386 15.9726C18.7562 15.9433 18.8265 16.0781 18.8968 16.2656C18.9672 16.459 19.1078 16.7695 19.2074 16.9629Z" fill="#0082E0"/>
<path d="M14.5781 12.9551C13.6758 13.0488 13.0078 13.4238 13.0078 13.8223C13.0078 14.373 13.4766 14.6133 14.0391 14.3613C14.5898 14.1094 15.2461 14.0977 15.8438 14.3203C16.0664 14.4023 16.3066 14.4727 16.3887 14.4727C16.7285 14.4727 16.9922 14.1797 16.9922 13.793C16.9922 13.2656 15.7441 12.832 14.5781 12.9551Z" fill="#0082E0"/>
<path d="M14.543 16.4648C14.0508 16.5176 13.8281 16.7168 13.8281 17.0977C13.8281 17.3027 13.8633 17.3848 13.998 17.5195L14.168 17.6895H15H15.832L16.002 17.5195C16.3066 17.2148 16.1895 16.6934 15.7793 16.5352C15.5566 16.4531 14.9941 16.4238 14.543 16.4648Z" fill="#0082E0"/>
</svg>
