<svg width="34" height="34" viewBox="0 0 34 34" fill="none" xmlns="http://www.w3.org/2000/svg">
<circle cx="25" cy="25" r="9" fill="#CCE5F6"/>
<path d="M14.1386 0.0878906C13.4296 0.287109 12.7441 0.732422 12.0878 1.42969C11.2616 2.30273 10.582 3.45117 9.96672 5.01562L9.66203 5.7832L9.05852 5.67773C6.6093 5.26172 4.38274 5.50195 3.12883 6.32227C0.779221 7.85156 1.06633 10.9629 3.87883 14.4258L4.34172 15L3.87883 15.5684C1.96281 17.9355 1.16594 20.25 1.705 21.8848C1.83391 22.2656 2.05656 22.6875 2.23235 22.8867C2.3261 22.9863 2.33196 23.0391 2.27922 23.209C2.24992 23.3145 2.22063 23.6309 2.22063 23.9062C2.22063 24.6973 2.47258 25.3125 3.02336 25.8633C3.56828 26.4082 4.21281 26.6719 4.99797 26.6719C6.25188 26.666 7.28313 25.9102 7.66985 24.7148C7.74016 24.5098 7.75188 24.498 8.07414 24.4629C8.25578 24.4395 8.68938 24.3809 9.03508 24.3223L9.66203 24.2168L9.96672 24.9844C10.623 26.6602 11.3085 27.7793 12.2109 28.6816C12.8144 29.2793 13.1894 29.543 13.8398 29.8184C14.1796 29.959 14.2792 29.9707 14.9999 29.9707C15.7206 29.9707 15.8202 29.959 16.1601 29.8184C16.8105 29.543 17.1855 29.2793 17.7831 28.6816C18.6913 27.7793 19.4296 26.5605 20.0624 24.9316L20.332 24.2227L20.9355 24.3281C23.3554 24.7383 25.6171 24.4922 26.8827 23.6777C27.2402 23.4492 27.8202 22.8516 28.0195 22.5C28.998 20.8066 28.3007 18.2578 26.121 15.5684L25.6581 15L26.121 14.4258C27.7323 12.4395 28.582 10.4238 28.4472 8.90625C28.3827 8.17969 28.1777 7.69336 27.6269 6.9375C27.539 6.82031 27.5448 6.7793 27.6562 6.44531C27.8085 5.98828 27.8261 5.24414 27.6913 4.78711C27.3984 3.78516 26.537 3 25.5175 2.80664C25.1249 2.73047 24.539 2.77148 24.1288 2.89453C23.1796 3.1875 22.4062 4.0957 22.248 5.0918L22.1835 5.50195L21.914 5.53711C21.7675 5.55469 21.3573 5.61914 20.9941 5.67773L20.3378 5.77734L20.0331 5.01562C19.3769 3.33984 18.6913 2.2207 17.789 1.31836C17.1796 0.714844 16.7988 0.451172 16.1601 0.1875C15.8495 0.0644531 15.6796 0.0351562 15.1171 0.0175781C14.6542 0.00585938 14.3495 0.0292969 14.1386 0.0878906ZM16.0136 1.40625C16.8222 1.80469 17.6132 2.71875 18.3105 4.05469C18.7265 4.85742 19.1835 5.97656 19.1191 6.03516C19.0898 6.05859 18.8085 6.14648 18.4863 6.24023C17.6952 6.45703 16.7109 6.80273 15.7792 7.17773L15.0058 7.49414L14.1679 7.1543C13.3124 6.80273 11.5077 6.19336 11.1152 6.12305C10.998 6.09961 10.8866 6.05859 10.8691 6.03516C10.8222 5.95898 11.3027 4.79883 11.6894 4.05469C12.4687 2.56641 13.3417 1.62305 14.2558 1.2832C14.496 1.19531 14.6777 1.17188 15.0878 1.18945C15.5448 1.20703 15.6679 1.23047 16.0136 1.40625ZM25.5585 4.04297C26.6718 4.45898 26.9765 5.90039 26.121 6.7207C25.5234 7.29492 24.5683 7.31836 23.9238 6.77344C23.6425 6.5332 23.3788 5.96484 23.3788 5.58984C23.3788 5.11523 23.5663 4.68164 23.912 4.37109C24.3984 3.93164 24.9667 3.82031 25.5585 4.04297ZM7.7343 6.67969C8.455 6.75586 9.18156 6.86719 9.25188 6.9082C9.28703 6.93164 9.26945 7.11914 9.19328 7.41211C9.00578 8.12695 8.74797 9.44531 8.64836 10.1953C8.59563 10.5645 8.53703 10.9512 8.52531 11.0508C8.49602 11.209 8.34367 11.3613 7.54094 11.9941C7.01945 12.416 6.26945 13.0664 5.87688 13.4414L5.16203 14.127L4.79289 13.6758C3.07024 11.5898 2.35539 9.50977 2.91789 8.24414C3.45696 7.03711 5.33196 6.43359 7.7343 6.67969ZM22.5878 6.97852C22.8339 7.40039 23.3671 7.88672 23.8007 8.08594C24.6796 8.49609 25.828 8.40234 26.5956 7.85742L26.7655 7.73438L26.912 7.95703C27.2343 8.41992 27.3339 8.92969 27.246 9.63281C27.0995 10.8047 26.3554 12.2812 25.207 13.6758L24.8378 14.127L24.123 13.4414C23.7304 13.0664 22.9804 12.416 22.4589 11.9941C21.6562 11.3613 21.5038 11.209 21.4745 11.0508C21.4628 10.9512 21.4042 10.5645 21.3515 10.1953C21.2519 9.44531 20.9941 8.12695 20.8066 7.41211C20.7304 7.10156 20.707 6.93164 20.748 6.9082C20.7831 6.89062 21.0527 6.83789 21.3456 6.80273C21.6445 6.76172 21.9257 6.7207 21.9726 6.70898C22.3241 6.63867 22.412 6.67969 22.5878 6.97852ZM11.4843 7.4707C11.953 7.61133 12.6034 7.83398 12.9374 7.95703L13.5409 8.17969L12.9374 8.49609C12.1523 8.90625 10.9745 9.58008 10.3476 9.99023C10.0605 10.1719 9.84367 10.2832 9.84367 10.2363C9.84367 9.96094 10.3124 7.69922 10.4589 7.27734C10.4941 7.17188 10.5585 7.18359 11.4843 7.4707ZM19.6991 7.88086C19.8456 8.4668 20.1562 10.0605 20.1562 10.2363C20.1562 10.2715 19.8339 10.1016 19.4355 9.85547C18.7675 9.43945 18.0468 9.02344 16.9159 8.41406L16.4589 8.16797L17.3261 7.85742C18.4277 7.4707 19.2714 7.21289 19.4179 7.22461C19.5116 7.23633 19.5644 7.34766 19.6991 7.88086ZM16.2538 9.42188C17.5722 10.0957 18.8144 10.8281 19.787 11.502L20.3788 11.9121L20.4316 12.5332C20.4902 13.3359 20.4902 16.6641 20.4316 17.4668L20.3788 18.0879L19.787 18.498C18.8144 19.1719 17.5663 19.9043 16.248 20.584L14.9999 21.2227L13.7577 20.584C12.4335 19.9043 11.1855 19.1719 10.2128 18.498L9.62102 18.0879L9.56828 17.4668C9.50969 16.6641 9.50969 13.3359 9.56828 12.5332L9.62102 11.9121L10.2128 11.502C11.1796 10.834 12.4277 10.1016 13.7402 9.42188C14.4198 9.07617 14.9823 8.78906 14.9941 8.78906C15.0058 8.78906 15.5741 9.07617 16.2538 9.42188ZM8.34953 14.9883V17.1504L7.7636 16.6523C7.44133 16.377 6.90227 15.8906 6.56242 15.5742L5.94719 15L6.56242 14.4258C6.90227 14.1094 7.44133 13.623 7.7636 13.3418C8.08586 13.0664 8.34953 12.8379 8.34953 12.8379C8.34953 12.832 8.34953 13.8047 8.34953 14.9883ZM23.4374 14.4258L24.0527 15L23.4374 15.5742C23.0976 15.8906 22.5585 16.377 22.2363 16.6523L21.6503 17.1504V15V12.8496L22.2363 13.3477C22.5585 13.623 23.0976 14.1094 23.4374 14.4258ZM7.54094 18.0059C8.34367 18.6387 8.49602 18.791 8.52531 18.9492C8.53703 19.0488 8.59563 19.4355 8.64836 19.8047C8.74797 20.5547 9.00578 21.873 9.19328 22.5879C9.26945 22.8926 9.29289 23.0684 9.25188 23.0918C9.21672 23.1094 8.96477 23.1562 8.68352 23.1973C8.40227 23.2383 8.08 23.2793 7.96281 23.2969C7.75188 23.3262 7.75188 23.3262 7.6757 23.0566C7.58781 22.752 7.27727 22.2012 7.04289 21.9492C6.79094 21.6797 6.22258 21.334 5.81242 21.2109C4.94524 20.9414 3.85539 21.1641 3.19328 21.7441L2.98821 21.9258L2.89446 21.709C2.455 20.6543 2.86516 19.084 4.03703 17.3438C4.24797 17.0273 4.58781 16.5703 4.79289 16.3242L5.16203 15.873L5.87688 16.5586C6.26945 16.9336 7.01945 17.584 7.54094 18.0059ZM25.2421 16.3652C26.373 17.748 27.1054 19.207 27.246 20.3672C27.3573 21.2344 27.1464 21.8965 26.6015 22.4062C25.6581 23.2852 23.7948 23.5781 21.4277 23.209C21.0527 23.1504 20.7304 23.0918 20.7128 23.0801C20.7011 23.0625 20.7421 22.8398 20.8066 22.5879C20.9941 21.873 21.2519 20.5547 21.3515 19.8047C21.4042 19.4355 21.4628 19.0488 21.4745 18.9492C21.5038 18.791 21.6562 18.6387 22.4589 18.0059C22.9804 17.584 23.7245 16.9395 24.1113 16.5703C24.498 16.1953 24.832 15.9023 24.8554 15.9141C24.8788 15.9316 25.0546 16.1309 25.2421 16.3652ZM11.5898 20.7598C11.9999 21 12.6034 21.3281 12.9374 21.5039C13.2655 21.6738 13.5292 21.8203 13.5234 21.832C13.5116 21.8379 13.0956 21.9902 12.5976 22.166C11.4257 22.582 10.5527 22.8281 10.4941 22.7578C10.3945 22.6465 9.84367 20.1094 9.84367 19.7637C9.84367 19.7168 10.0488 19.8223 10.3476 20.0098C10.623 20.1914 11.1796 20.5254 11.5898 20.7598ZM20.0448 20.4902C19.8691 21.4688 19.5527 22.7461 19.4765 22.7754C19.3886 22.8105 17.8534 22.3418 17.0624 22.043L16.4589 21.8203L17.0624 21.5039C17.8534 21.0938 19.0312 20.4141 19.6405 20.0156C19.9101 19.8457 20.1327 19.7227 20.1445 19.752C20.1562 19.7754 20.1093 20.1094 20.0448 20.4902ZM5.57805 22.3828C6.46281 22.7168 6.86711 23.748 6.43938 24.5977C6.14641 25.1836 5.6425 25.5 5.00383 25.5C3.72649 25.5059 2.95305 24.0996 3.63274 23.0273C4.05461 22.3652 4.84563 22.1016 5.57805 22.3828ZM15.832 22.8457C16.6933 23.1914 18.0761 23.666 18.662 23.8184C18.8905 23.877 19.0898 23.9414 19.1191 23.9648C19.1835 24.0234 18.7265 25.1426 18.3105 25.9453C17.5195 27.457 16.6464 28.3945 15.7148 28.7227C15.1991 28.9043 14.5136 28.8574 13.9863 28.5938C13.1777 28.1953 12.3866 27.2812 11.6894 25.9453C11.2734 25.1426 10.8163 24.0234 10.8808 23.9648C10.9101 23.9414 11.1913 23.8535 11.5136 23.7598C12.2226 23.5664 13.6581 23.0625 14.414 22.7402C14.7187 22.6113 14.9999 22.5117 15.0292 22.5234C15.0644 22.5352 15.4218 22.6816 15.832 22.8457Z" fill="#0082E0"/>
<path d="M14.168 11.7715C12.9668 12.1582 12.2227 13.1836 12.2227 14.4434C12.2227 16.0313 13.418 17.2266 15 17.2266C16.248 17.2266 17.2617 16.4883 17.6719 15.2813C17.8125 14.8594 17.8125 14.0273 17.6719 13.6055C17.3672 12.7031 16.7051 12.0469 15.8262 11.7773C15.3516 11.625 14.625 11.625 14.168 11.7715ZM15.7324 12.9961C16.0254 13.1484 16.2949 13.4297 16.4766 13.7695C16.582 13.9746 16.6113 14.127 16.6113 14.4434C16.6113 14.7598 16.582 14.9121 16.4766 15.1172C16.1543 15.7324 15.6445 16.0547 15 16.0547C14.3555 16.0547 13.8457 15.7324 13.5234 15.1172C13.418 14.9121 13.3887 14.7598 13.3887 14.4434C13.3887 14.127 13.418 13.9746 13.5234 13.7695C13.7578 13.3242 14.0918 13.0254 14.5312 12.8848C14.7891 12.7969 15.4805 12.8613 15.7324 12.9961Z" fill="#0082E0"/>
</svg>
