<svg width="34" height="34" viewBox="0 0 34 34" fill="none" xmlns="http://www.w3.org/2000/svg">
<circle cx="25" cy="25" r="9" fill="#CCE5F6"/>
<g clip-path="url(#clip0_2048_14)">
<path d="M11.0152 0.591797C10.1538 0.814453 9.34524 1.29492 8.80032 1.91016C8.51321 2.23242 8.50149 2.23828 8.37259 2.14453C8.18509 2.01562 7.95657 2.02734 7.76907 2.17383C7.62259 2.28516 7.61673 2.32031 7.61673 2.83594V3.375L7.1597 2.92969C6.20462 2.00391 5.14993 1.59961 3.80813 1.6582C2.71829 1.69922 2.66556 1.76367 2.66556 2.98828C2.67142 3.89648 2.75345 4.27734 3.10501 5.00977C3.82571 6.50391 5.36673 7.48242 7.04251 7.51758L7.61673 7.5293V8.12695V8.73047H6.26321H4.9097L4.73392 8.90625C4.58743 9.05859 4.56399 9.11719 4.59329 9.27539C4.64602 9.53906 4.82181 9.66797 5.13235 9.66797H5.39017V13.3594C5.39017 16.3418 5.37259 17.0918 5.30813 17.2441C5.26712 17.3496 4.08938 19.4062 2.69485 21.8262C1.29446 24.2402 0.116728 26.3496 0.0698527 26.5078C-0.0649129 26.9707 -0.00045979 27.7793 0.204618 28.2129C0.415556 28.6582 0.866728 29.1094 1.3179 29.332L1.66946 29.502H14.3257H26.982L27.2163 29.373C27.5152 29.2148 27.8667 28.8633 28.0249 28.5645C28.1538 28.3359 28.1538 28.2832 28.1538 25.6816V23.0332L27.9839 22.8574C27.8843 22.7578 27.7144 22.6465 27.6031 22.6172C27.4683 22.582 24.8902 22.5586 20.6245 22.5586L13.857 22.5527L12.3394 19.916C11.5074 18.4629 10.8042 17.1797 10.7749 17.0625C10.7456 16.9395 10.7222 16.1953 10.7222 15.3984V13.9512L10.5699 13.834C10.3062 13.6289 10.0132 13.6816 9.87259 13.9512C9.70852 14.2617 9.76126 17.0332 9.93704 17.5898C9.96634 17.6895 9.90774 17.6953 9.26321 17.6953H8.55423V13.6816V9.66797H9.16946H9.7847V10.9277C9.7847 11.9238 9.80227 12.2285 9.87259 12.3574C10.0132 12.627 10.3062 12.6797 10.5699 12.4746L10.7222 12.3574V11.0098V9.66797H11.0034C11.2261 9.66797 11.314 9.63867 11.4136 9.5332C11.5894 9.3457 11.5835 9.05859 11.396 8.87695L11.2554 8.73047H9.90188H8.55423V7.5293V6.32812H9.05813C9.74954 6.32812 10.2945 6.19336 11.0093 5.84766C11.5366 5.5957 11.689 5.48438 12.1284 5.05078C12.9312 4.24805 13.3355 3.42773 13.4761 2.32617C13.5523 1.72266 13.4644 0.855469 13.3179 0.691406C13.1714 0.527344 12.855 0.46875 12.1284 0.474609C11.6538 0.474609 11.3257 0.509766 11.0152 0.591797ZM10.2241 3.04688C9.32181 3.94922 8.57767 4.66406 8.56595 4.63477C8.53079 4.52344 8.73587 3.80273 8.89993 3.44531C9.3511 2.50195 10.23 1.77539 11.2495 1.5C11.9702 1.30664 11.9761 1.29492 10.2241 3.04688ZM12.4507 2.70117C12.2046 3.64453 11.4488 4.58789 10.605 4.99805C10.1773 5.20898 9.59134 5.39062 9.34524 5.39062C9.26321 5.39062 9.72024 4.89844 10.8687 3.75C12.0991 2.51953 12.5152 2.13281 12.5269 2.2207C12.5386 2.2793 12.5034 2.49609 12.4507 2.70117ZM5.12649 2.76562C5.99954 3.05273 6.77884 3.73242 7.19485 4.55859C7.42337 5.01562 7.58743 5.58398 7.54641 5.77148C7.5347 5.83008 6.90774 5.23828 5.88821 4.21289L4.24759 2.56641L4.51126 2.60742C4.65774 2.63086 4.93313 2.70117 5.12649 2.76562ZM6.79056 6.55664C6.64407 6.60352 6.04056 6.42188 5.56595 6.19336C4.54642 5.70117 3.79056 4.65234 3.60306 3.48633C3.5679 3.25781 3.61477 3.30469 5.20852 4.89258C6.11673 5.79492 6.82571 6.54492 6.79056 6.55664ZM7.61673 13.6816V17.6953H6.89016H6.1636L6.24563 17.4199C6.29837 17.2383 6.32766 16.8574 6.32766 16.2773V15.4102H6.50345C6.91946 15.4102 7.17141 15.1055 7.03079 14.7656C6.9429 14.5488 6.81399 14.4727 6.5386 14.4727H6.32766V13.9746V13.4766H6.55618C6.83743 13.4766 7.01907 13.3359 7.06595 13.084C7.11868 12.8203 6.84329 12.5391 6.5386 12.5391H6.32766V12.0703V11.6016H6.5386C6.84329 11.6016 7.11868 11.3203 7.06595 11.0566C7.01907 10.8047 6.83743 10.6641 6.55618 10.6641H6.32766V10.166V9.66797H6.9722H7.61673V13.6816ZM10.8511 19.2188L11.1851 19.8047H8.07962H4.97415L5.04446 19.6699C5.08548 19.5996 5.23196 19.3359 5.37259 19.084L5.63626 18.6328H8.07376L10.5171 18.6387L10.8511 19.2188ZM12.2456 21.6504L12.7554 22.5293L12.1343 22.5645C11.4781 22.5938 11.3667 22.6289 11.1324 22.8809L10.9859 23.0391L10.9683 25.4766C10.9507 27.75 10.9683 28.1426 11.1089 28.5C11.1441 28.5879 10.7925 28.5938 6.52102 28.582L1.89212 28.5645L1.60501 28.3887C1.04837 28.0371 0.778837 27.2695 1.01907 26.6895C1.07181 26.5664 1.85696 25.1777 2.76517 23.6016L4.41751 20.7422L8.07962 20.7539L11.7417 20.7715L12.2456 21.6504ZM13.7691 24.2754C14.0093 24.6973 14.2202 25.0664 14.2261 25.0898C14.2378 25.1191 13.7163 25.1367 13.0718 25.1367H11.8941V24.3164V23.4961H12.6148L13.3296 23.502L13.7691 24.2754ZM27.2456 24.3164V25.1367H26.1675H25.0835L24.9663 25.2891C24.7495 25.5645 24.8374 25.8926 25.1597 26.0156C25.2476 26.0449 25.7574 26.0742 26.2847 26.0742H27.2515L27.2339 27.0996L27.2163 28.125L26.9937 28.3418L26.7769 28.5645L19.6343 28.582L12.4976 28.5938L12.2984 28.459C11.9468 28.2246 11.8941 28.0371 11.8941 26.9941V26.0742H17.5718C21.3628 26.0742 23.3081 26.0566 23.4136 26.0156C23.7359 25.8926 23.8238 25.5645 23.607 25.2891L23.4898 25.1367H19.4234H15.3628L14.9644 24.4453C14.7476 24.0703 14.5308 23.7012 14.4839 23.625L14.4019 23.4961H20.8238H27.2456V24.3164Z" fill="#0082E0"/>
<path d="M22.0304 2.86522C21.9191 2.88866 21.7433 2.95311 21.6437 3.00585C21.4972 3.08202 21.4152 3.08788 21.2629 3.041C20.9933 2.96483 20.2199 2.96483 19.9211 3.04686C18.9308 3.31639 17.9699 4.20702 17.3019 5.48436L16.9972 6.05858L16.3058 6.041C13.9445 5.98241 12.4269 6.93163 12.175 8.61913C12.0344 9.55663 12.4211 10.8281 13.1828 11.9473L13.4054 12.2812L13.1418 12.6914C12.3508 13.9043 11.9992 15.1875 12.2043 16.1484C12.3215 16.6875 12.5148 17.0742 12.884 17.4785C13.048 17.6543 13.1828 17.8476 13.1828 17.9121C13.1828 18.1699 13.3703 18.6269 13.5754 18.8613C14.1906 19.582 15.3332 19.5762 15.9719 18.8496C16.1945 18.6035 16.2238 18.5859 16.5929 18.5449L16.9855 18.5039L17.1672 18.873C18.8254 22.1836 21.6437 22.5586 23.5187 19.7226C23.6945 19.459 23.9172 19.084 24.0168 18.8789L24.2043 18.5098L24.714 18.5508C26.1203 18.6504 27.5265 18.2402 28.2472 17.5254C28.5578 17.209 28.9445 16.5586 28.9445 16.3418C28.9445 16.2832 29.009 16.2305 29.0969 16.207C29.3312 16.1484 29.8469 15.5976 29.9289 15.3164C30.0226 14.9941 30.0168 14.3965 29.9172 14.1562C29.8 13.8808 29.4367 13.4883 29.1613 13.3476C29.0324 13.2832 28.7922 13.2187 28.6281 13.2012L28.3293 13.166L28.0597 12.7207L27.7844 12.2754L28.007 11.9531C28.7629 10.8398 29.1496 9.53905 29.0031 8.58983C28.7512 6.91405 27.2101 5.97655 24.8254 6.041L24.1926 6.06444L23.964 5.63085C23.7414 5.21483 23.7414 5.19725 23.8234 4.96874C24.0109 4.42968 23.8937 3.78514 23.5246 3.35155C23.214 2.97655 22.5344 2.75975 22.0304 2.86522ZM22.5812 3.83202C22.839 3.93749 22.9679 4.13671 22.9679 4.4121C22.9679 4.7285 22.6633 5.03905 22.3527 5.03905C22.1828 5.03905 22.089 4.99218 21.9367 4.83983C21.6027 4.50585 21.6847 4.01952 22.1125 3.83202C22.341 3.73241 22.3469 3.73241 22.5812 3.83202ZM20.7121 3.90233C20.8176 3.92577 20.8293 3.97264 20.8117 4.34764C20.7765 5.05663 21.0754 5.54882 21.7258 5.84178C21.9894 5.96483 22.1008 5.98241 22.4289 5.96483C22.6457 5.94725 22.8683 5.91796 22.9211 5.89452C22.9914 5.85936 23.0441 5.89452 23.1144 6.02928C23.1847 6.17577 23.1906 6.21678 23.132 6.23436C23.091 6.25194 22.8039 6.31639 22.4992 6.39257C22.1945 6.46288 21.6437 6.62694 21.2746 6.74999L20.6125 6.98436L19.8097 6.72069C19.3703 6.57421 18.8137 6.41014 18.5734 6.35741C17.9289 6.21093 17.9699 6.24022 18.0812 6.02343C18.3097 5.56639 18.7316 4.99218 19.0656 4.65233C19.5285 4.18944 19.8801 4.0078 20.5656 3.87304C20.5832 3.87304 20.6476 3.88475 20.7121 3.90233ZM16.6105 7.07225C16.4992 7.36522 16.2883 8.19139 16.1711 8.75975C16.1066 9.11718 16.0363 9.46288 16.0246 9.53319C16.007 9.59764 15.7902 9.82616 15.5441 10.0371C15.2922 10.248 14.8469 10.664 14.548 10.9687L14.0148 11.5195L13.8097 11.1621C13.3 10.2832 13.1125 9.72655 13.1066 9.04686C13.1008 8.64257 13.1242 8.52538 13.259 8.24999C13.6633 7.42382 14.6242 6.99022 16.0773 6.9785C16.6047 6.97264 16.6515 6.98436 16.6105 7.07225ZM26.3898 7.11913C27.1457 7.33007 27.6672 7.70507 27.925 8.24413C28.2824 8.96483 28.0363 10.1777 27.3156 11.2617L27.1691 11.4902L26.4894 10.8281C26.1144 10.459 25.6691 10.043 25.4992 9.90233L25.1828 9.63866L25.0422 8.9121C24.925 8.27928 24.6906 7.37694 24.5734 7.06053C24.5324 6.96093 24.5734 6.95507 25.2883 6.99022C25.7043 7.0078 26.2023 7.06639 26.3898 7.11913ZM18.3683 7.28905C19.423 7.54686 19.4054 7.50585 18.6086 7.9453C18.2277 8.15038 17.7355 8.43749 17.5187 8.57811L17.1203 8.83593L17.2023 8.4785C17.3722 7.74022 17.589 7.14843 17.6887 7.14843C17.7414 7.14843 18.0461 7.21288 18.3683 7.28905ZM23.7765 7.74608C23.8762 8.08007 23.9816 8.46093 24.0109 8.58983L24.0637 8.83593L23.6711 8.57811C23.4543 8.43749 22.9679 8.15624 22.5929 7.9453C22.2121 7.74022 21.9367 7.55272 21.9719 7.52928C22.0597 7.47069 23.3254 7.15428 23.4719 7.14843C23.5773 7.14843 23.6183 7.23632 23.7765 7.74608ZM21.632 8.52538C22.4289 8.92968 23.3195 9.46288 23.9289 9.90819L24.3039 10.1836L24.3566 10.7051C24.4152 11.3203 24.3976 13.664 24.3332 14.1211L24.2863 14.4375L23.548 14.9414C22.7863 15.4629 21.7961 16.0195 21.0285 16.3652L20.5832 16.5703L19.8625 16.2246C19.0597 15.8379 18.0109 15.2285 17.3429 14.748L16.9035 14.4375L16.8508 14.0859C16.7863 13.6289 16.7746 11.2969 16.8332 10.6582L16.8801 10.1601L17.6828 9.62694C18.5851 9.02928 19.3234 8.60741 20.0734 8.26757C20.6652 8.00389 20.5422 7.98046 21.632 8.52538ZM15.8488 12.2754C15.8488 12.9668 15.8312 13.5351 15.8137 13.5351C15.7492 13.5351 14.6476 12.3574 14.6476 12.293C14.6476 12.2519 15.8019 11.0156 15.8429 11.0156C15.8488 11.0156 15.8488 11.584 15.8488 12.2754ZM26.5304 12.3047C26.4953 12.3984 25.6633 13.2949 25.4992 13.4062L25.341 13.5234V12.2637V11.0039L25.9445 11.6308C26.2785 11.9707 26.5422 12.2754 26.5304 12.3047ZM15.6027 14.625L16.0012 14.9707L16.1711 15.8203C16.2648 16.289 16.4054 16.875 16.4875 17.1211C16.5637 17.373 16.6047 17.5781 16.5812 17.5781C16.5519 17.5781 16.4933 17.5957 16.4406 17.6133C16.3762 17.6367 16.341 17.6015 16.3117 17.4785C16.1945 16.998 15.7375 16.4883 15.3039 16.3594C14.7472 16.1894 14.0676 16.3301 13.6984 16.6816L13.5402 16.834L13.3703 16.5586C13.1008 16.1367 13.0304 15.6445 13.1535 15.0469C13.2531 14.5547 13.5109 13.916 13.839 13.3828L14.0148 13.084L14.6125 13.6816C14.9347 14.0098 15.3859 14.4316 15.6027 14.625ZM27.4211 13.541C27.4211 13.5586 27.3625 13.623 27.298 13.6875C26.8996 14.039 26.7707 14.8828 27.0344 15.4453C27.175 15.75 27.5851 16.1543 27.8137 16.207C27.9953 16.2539 27.9836 16.3418 27.7726 16.6348C27.3332 17.2383 26.2668 17.6308 25.0656 17.6367C24.5324 17.6367 24.5441 17.666 24.7668 16.8574C24.8781 16.4648 25.007 15.8848 25.0656 15.5683L25.1652 14.9883L25.8449 14.3848C26.214 14.0566 26.6652 13.623 26.841 13.4297L27.1574 13.0723L27.2863 13.289C27.3625 13.4062 27.4211 13.5234 27.4211 13.541ZM28.9035 14.3555C29.214 14.707 29.0383 15.2695 28.5695 15.3867C28.2238 15.4746 27.8312 15.1465 27.8312 14.7656C27.8312 14.1855 28.5109 13.9277 28.9035 14.3555ZM17.6476 16.0957C17.8586 16.2363 18.3273 16.5 18.6847 16.6875L19.341 17.0332L18.9133 17.1562C18.4504 17.291 17.7648 17.4609 17.6594 17.4609C17.6008 17.4609 17.2902 16.541 17.173 16.0137C17.1379 15.8262 17.1379 15.7734 17.1906 15.8027C17.2258 15.8262 17.4308 15.9551 17.6476 16.0957ZM23.9875 16.0957C23.8058 16.8281 23.589 17.4609 23.5304 17.4609C23.425 17.4609 22.7394 17.291 22.2765 17.1562L21.8488 17.0332L22.4816 16.6992C22.8273 16.5176 23.3254 16.2305 23.5832 16.0664C23.841 15.8965 24.0578 15.7617 24.0637 15.7617C24.0637 15.7617 24.0344 15.914 23.9875 16.0957ZM15.1867 17.3965C15.3508 17.543 15.3801 17.6074 15.3801 17.8418C15.3801 18.0762 15.3508 18.1406 15.1867 18.2871C14.8469 18.5918 14.3605 18.4805 14.1789 18.0527C14.0851 17.8242 14.1437 17.6074 14.3547 17.3965C14.589 17.1562 14.923 17.1621 15.1867 17.3965ZM22.4523 18.1875L23.1906 18.3808L23.0031 18.7265C22.5637 19.5527 21.9601 20.2148 21.3976 20.4902C20.4953 20.9297 19.4875 20.584 18.7199 19.5586C18.4445 19.1953 17.9582 18.3984 17.9992 18.375C18.0051 18.3691 18.3215 18.293 18.6906 18.1992C19.0597 18.1113 19.6398 17.9414 19.9797 17.8183L20.589 17.5957L21.1515 17.8008C21.4562 17.9121 22.0422 18.0879 22.4523 18.1875Z" fill="#0082E0"/>
<path d="M19.9327 9.76173C19.0479 9.9961 18.3975 10.6113 18.1046 11.4902C17.9991 11.8008 17.9815 11.9649 17.9991 12.4219C18.0167 12.8965 18.046 13.0371 18.2042 13.377C19.0069 15.082 21.2042 15.4453 22.5108 14.0801C22.8682 13.7051 22.9151 13.3652 22.628 13.1484C22.4171 12.9844 22.212 13.0488 21.8604 13.3887C21.2569 13.9629 20.5889 14.1211 19.9503 13.834C19.3292 13.5586 18.9835 13.0606 18.9366 12.3867C18.9132 12.0293 18.9307 11.918 19.0538 11.6484C19.4171 10.8516 20.2432 10.4531 21.0401 10.6817C21.4444 10.7988 21.7843 11.0508 21.9718 11.3731C22.2882 11.9063 22.5929 12.082 22.8624 11.8711C23.1378 11.666 23.1026 11.3379 22.7511 10.7988C22.171 9.91993 20.9757 9.48048 19.9327 9.76173Z" fill="#0082E0"/>
</g>
<defs>
<clipPath id="clip0_2048_14">
<rect width="30" height="30" fill="white"/>
</clipPath>
</defs>
</svg>
