<svg width="34" height="34" viewBox="0 0 34 34" fill="none" xmlns="http://www.w3.org/2000/svg">
<circle cx="25" cy="25" r="9" fill="#CCE5F6"/>
<path d="M13.6699 0.732422C13.4941 0.855469 13.3887 1.21289 13.4707 1.40625C13.5 1.48828 13.8047 1.89258 14.1387 2.31445L14.7539 3.07617L14.0742 3.11719C8.37891 3.48633 3.75586 7.79883 3.01758 13.4355C2.90625 14.3086 2.90625 15.8379 3.01758 16.6348C3.52148 20.1855 5.47266 23.1914 8.52539 25.1074C9.30469 25.5996 10.1133 25.9746 10.3945 25.9746C10.8281 25.9746 11.1152 25.4473 10.8691 25.0898C10.8164 25.0195 10.4414 24.791 10.0313 24.5859C7.07227 23.0801 5.07422 20.5312 4.3418 17.3438C4.14258 16.4883 4.08398 15.7676 4.11914 14.6602C4.17773 12.5449 4.74609 10.793 5.94141 8.99414C6.51563 8.13281 7.75781 6.85547 8.61328 6.25195C9.68555 5.49609 11.2852 4.79297 12.5684 4.51758C13.1367 4.39453 14.25 4.25391 14.3555 4.28906C14.3906 4.30078 14.1328 4.54102 13.7754 4.82812C13.0605 5.39648 12.9492 5.51953 12.9492 5.75391C12.9492 6.13477 13.2949 6.43359 13.6465 6.35742C13.7988 6.32812 16.3184 4.35352 16.541 4.08984C16.5996 4.01953 16.6406 3.87305 16.6406 3.74414C16.6406 3.53906 16.5469 3.39844 15.5742 2.19727C14.9941 1.4707 14.4492 0.820312 14.3672 0.761719C14.1914 0.621094 13.8457 0.609375 13.6699 0.732422Z" fill="#0082E0"/>
<path d="M18.9435 3.9961C18.6974 4.06055 18.5744 4.24219 18.5744 4.54102C18.5744 4.86914 18.6915 4.97461 19.3771 5.30274C21.6095 6.35742 23.3849 8.13281 24.463 10.3828C26.3146 14.2441 25.7345 18.6328 22.9337 21.9727C21.7501 23.3848 19.9279 24.5918 18.0705 25.1953C17.3439 25.4297 16.4298 25.6172 15.5861 25.6934L15.1466 25.7344L15.5861 25.377C15.8263 25.1777 16.1369 24.9316 16.2716 24.8262C16.7111 24.4922 16.799 24.0762 16.4826 23.7773C16.3771 23.6777 16.2716 23.6426 16.09 23.6426C15.8556 23.6426 15.7677 23.7012 14.6427 24.6035C12.9435 25.9688 12.9142 26.0039 12.9845 26.3555C13.0197 26.543 15.1115 29.168 15.3107 29.2793C15.7033 29.4961 16.172 29.2207 16.172 28.7754C16.172 28.5645 16.1076 28.4648 15.5216 27.7324L14.8712 26.9238L15.0646 26.9121C16.6115 26.7949 17.4494 26.6426 18.5451 26.2793C20.3146 25.6934 21.6915 24.8613 23.0509 23.5547C24.129 22.5176 24.8615 21.5156 25.4884 20.25C28.3478 14.4375 25.9865 7.33008 20.2208 4.40039C19.4298 3.9961 19.2013 3.92579 18.9435 3.9961Z" fill="#0082E0"/>
<path d="M18.3283 8.12109C17.59 8.75391 16.9162 9.03516 15.4279 9.31641C12.6974 9.83789 11.8654 10.207 11.0392 11.2676C10.6466 11.7656 10.131 12.8027 9.96109 13.4238C9.70328 14.373 9.70914 15.5215 9.96695 16.4648C10.0783 16.8809 10.4767 17.7773 10.6994 18.1172C10.799 18.2695 10.799 18.2812 10.5529 18.8027C10.0138 19.9746 9.66227 21.1055 9.57438 21.9551C9.53922 22.3008 9.54508 22.3242 9.715 22.4941C9.85563 22.6406 9.94352 22.6758 10.1369 22.6758C10.4826 22.6758 10.6877 22.459 10.7463 22.0312C10.9572 20.4023 11.9943 18.3105 13.5412 16.4004C14.0334 15.7852 15.5275 14.25 16.3654 13.5059C16.7521 13.1484 16.8166 13.0664 16.8166 12.9023C16.8166 12.4863 16.4884 12.1934 16.1193 12.2812C15.7677 12.3691 14.0861 13.9219 13.0783 15.0879C12.5861 15.6621 11.8595 16.5938 11.5959 16.9922L11.5021 17.1387L11.3439 16.8223C11.0744 16.2949 10.9455 15.6914 10.9455 14.9707C10.9455 14.1562 11.0802 13.6113 11.4963 12.7734C11.7365 12.293 11.883 12.0762 12.1877 11.7773C12.8439 11.127 13.3771 10.9102 15.1877 10.5703C16.7345 10.2832 17.5373 10.043 18.2052 9.66211L18.5041 9.49219L18.5627 9.76758C18.8556 11.1387 18.9377 13.3945 18.7267 14.502C18.4982 15.7324 18.0646 16.6641 17.4201 17.3145C16.6642 18.0762 15.7912 18.4453 14.4318 18.5742C13.9396 18.6211 13.8459 18.6445 13.717 18.7793C13.5998 18.8965 13.5646 18.9844 13.5646 19.1953C13.5646 19.418 13.5939 19.4883 13.7404 19.6113C13.9103 19.7578 13.9279 19.7637 14.5607 19.7285C15.6213 19.6758 16.7404 19.3184 17.5021 18.8027C18.1759 18.3398 18.838 17.584 19.213 16.8281C19.4767 16.3008 19.7755 15.3633 19.8927 14.707C20.1681 13.1133 20.0216 10.5996 19.5353 8.67188C19.3713 8.02148 19.2365 7.85156 18.8673 7.85156C18.6857 7.85156 18.5861 7.9043 18.3283 8.12109Z" fill="#0082E0"/>
</svg>
