<svg width="34" height="34" viewBox="0 0 34 34" fill="none" xmlns="http://www.w3.org/2000/svg">
<circle cx="25" cy="25" r="9" fill="#CCE5F6"/>
<g clip-path="url(#clip0_2048_18)">
<path d="M9.27539 0.0820312C8.92383 0.193359 8.67188 0.369141 8.35547 0.703125C8.02734 1.05469 7.85156 1.41797 7.81055 1.8457L7.77539 2.15625L7.23633 2.17969C6.77344 2.19727 6.66797 2.2207 6.46289 2.35547C6.05859 2.625 6.03516 2.73047 6.03516 4.30664C6.03516 5.88281 6.05859 5.98828 6.46289 6.25781C6.66797 6.39258 6.77344 6.41602 7.23633 6.43359L7.77539 6.45703L7.81055 6.76758C7.82812 6.94336 7.89844 7.20117 7.96289 7.34766C8.12695 7.72266 8.625 8.23242 9.01758 8.41992C9.33984 8.57812 9.36914 8.58398 10.5645 8.60156L11.7773 8.61914V9.28711V9.95508L10.5938 9.97266C9.44531 9.99023 9.39258 9.99609 9.07031 10.1484C8.46094 10.4355 7.95117 11.0391 7.82227 11.6426C7.78125 11.8359 7.78125 11.8359 7.41797 11.8359C6.35742 11.8359 5.47852 12.4395 5.21484 13.3535C5.19141 13.4355 4.51758 14.5312 3.71484 15.7793L2.26172 18.0527L1.83984 18.2461C1.35352 18.4746 1.00781 18.791 0.779297 19.2305C0.626953 19.5176 0.615234 19.5938 0.615234 20.1855C0.615234 20.8066 0.621094 20.8418 0.814453 21.1992C1.05469 21.6387 1.36523 21.9316 1.81055 22.1426C2.0918 22.2715 2.21484 22.2949 2.69531 22.2949C3.17578 22.2949 3.29883 22.2715 3.58008 22.1426C4.02539 21.9316 4.33594 21.6387 4.57617 21.1992C4.76367 20.8477 4.77539 20.8008 4.78711 20.1914L4.79297 19.5527L5.89453 17.8301L6.99023 16.1133H7.39453H7.79297V17.373C7.79297 18.4746 7.80469 18.668 7.9043 18.9258C8.12695 19.5176 8.67773 20.0508 9.25781 20.2441L9.55078 20.3438V20.7598C9.55078 21.1172 9.58008 21.2285 9.72656 21.4863C9.92578 21.832 10.2891 22.084 10.6641 22.1309L10.8984 22.166L10.8926 24.75V27.334L10.5938 27.4805C10.1309 27.709 10.0195 27.9609 10.0195 28.8105C10.0195 29.5254 10.0781 29.7363 10.3242 29.9062C10.5234 30.0469 14.2031 30.0469 14.4023 29.9062C14.6484 29.7363 14.707 29.5254 14.707 28.8105C14.707 27.9609 14.5957 27.709 14.1328 27.4805L13.834 27.334V24.7383L13.8281 22.1484H15H16.1719V23.1738C16.1719 24.1875 16.1719 24.2051 16.3184 24.3457C16.5176 24.5508 16.8223 24.5449 16.9863 24.3398C17.0977 24.1934 17.1094 24.1055 17.1094 23.168V22.1484H17.6367H18.1641V24.7559V27.3633H17.6367H17.1094V26.6309C17.1094 25.916 17.1035 25.8867 16.957 25.7402C16.834 25.6172 16.7695 25.5996 16.5938 25.6289C16.2246 25.6875 16.1719 25.8105 16.166 26.625V27.334L15.8672 27.4805C15.4043 27.709 15.293 27.9609 15.293 28.8105C15.293 29.5254 15.3516 29.7363 15.5977 29.9062C15.7969 30.0469 19.4766 30.0469 19.6758 29.9062C19.9219 29.7363 19.9805 29.5254 19.9805 28.8105C19.9805 27.9609 19.8691 27.709 19.4062 27.4805L19.1074 27.334V24.75L19.1016 22.166L19.3359 22.1309C19.7109 22.084 20.0742 21.832 20.2734 21.4863C20.4199 21.2285 20.4492 21.1172 20.4492 20.7598V20.3438L20.7422 20.2441C21.3281 20.0508 21.8965 19.4883 22.1016 18.9082C22.1836 18.6562 22.2012 18.3984 22.207 17.3555V16.1133H22.6055H23.0098L24.1055 17.8301L25.207 19.5527L25.2129 20.1914C25.2246 20.8008 25.2363 20.8477 25.4238 21.1992C25.6641 21.6387 25.9746 21.9316 26.4199 22.1426C26.7012 22.2715 26.8242 22.2949 27.3047 22.2949C27.7852 22.2949 27.9082 22.2715 28.1895 22.1426C28.6348 21.9316 28.9453 21.6387 29.1855 21.1992C29.3789 20.8477 29.3848 20.8008 29.3848 20.2148C29.3848 19.6699 29.3672 19.5586 29.2324 19.2715C29.0215 18.8203 28.6641 18.4805 28.1602 18.2461L27.7383 18.0527L26.2852 15.7852C25.4883 14.543 24.7852 13.3828 24.7207 13.2188C24.3984 12.3516 23.6016 11.8359 22.582 11.8359C22.2188 11.8359 22.2188 11.8359 22.1777 11.6426C22.0723 11.1562 21.6562 10.5703 21.2109 10.2891C20.7715 10.0078 20.502 9.96094 19.3242 9.96094H18.2227V9.29297V8.61914L19.4414 8.60156C20.8477 8.57812 20.9824 8.54297 21.5332 8.02148C21.9141 7.66406 22.1426 7.23047 22.1895 6.77344L22.2246 6.44531H22.7051C23.2969 6.44531 23.6309 6.29883 23.8301 5.94141C23.959 5.72461 23.9648 5.6543 23.9648 4.30664C23.9648 2.95898 23.959 2.88867 23.8301 2.67188C23.6309 2.31445 23.2969 2.16797 22.7051 2.16797H22.2246L22.1895 1.83984C22.1719 1.6582 22.0898 1.37109 22.0078 1.20117C21.8262 0.832031 21.3105 0.333984 20.9355 0.158203L20.6543 0.0292969L15.0879 0.0175781C10.623 0.0117188 9.47461 0.0234375 9.27539 0.0820312ZM20.5078 1.01953C20.7949 1.17188 21.0234 1.39453 21.1699 1.66992C21.2988 1.89844 21.2988 1.95703 21.2988 4.30664C21.2988 6.65625 21.2988 6.71484 21.1699 6.94336C21.0234 7.21875 20.7949 7.44141 20.5078 7.59375C20.3145 7.69922 20.0625 7.70508 15 7.70508C9.9375 7.70508 9.68555 7.69922 9.49219 7.59375C9.20508 7.44141 8.97656 7.21875 8.83008 6.94336C8.70117 6.71484 8.70117 6.65625 8.70117 4.30664C8.70117 2.07422 8.70703 1.89258 8.8125 1.69922C9.03516 1.2832 9.36914 1.01953 9.78516 0.931641C9.89648 0.908203 12.3105 0.896484 15.1465 0.896484C20.0566 0.908203 20.3145 0.914062 20.5078 1.01953ZM7.79297 4.30664V5.50781H7.38867C7.07227 5.50781 6.97852 5.48438 6.94922 5.41406C6.93164 5.36133 6.91406 4.86328 6.91406 4.30664C6.91406 3.75 6.93164 3.25195 6.94922 3.19922C6.97852 3.12891 7.07227 3.10547 7.38867 3.10547H7.79297V4.30664ZM23.0508 3.19922C23.1211 3.38086 23.0918 5.36133 23.0156 5.4375C22.9746 5.47852 22.7871 5.50781 22.5762 5.50781H22.207V4.30664V3.10547H22.6113C22.9277 3.10547 23.0215 3.12891 23.0508 3.19922ZM17.2852 9.28711V9.96094H15H12.7148V9.28711V8.61328H15H17.2852V9.28711ZM20.4961 10.9922C20.7715 11.1035 21.0117 11.332 21.1699 11.6309C21.2988 11.8652 21.2988 11.8945 21.2988 15.1465C21.2988 18.4219 21.2988 18.4277 21.1699 18.668C20.9941 18.9961 20.6191 19.3066 20.3027 19.3887C19.9453 19.4766 10.0547 19.4766 9.69727 19.3887C9.38086 19.3066 9.00586 18.9961 8.83008 18.668C8.70117 18.4277 8.70117 18.4219 8.70117 15.1465C8.70117 11.8945 8.70117 11.8652 8.83008 11.6309C8.89453 11.502 9.0293 11.3262 9.12305 11.2383C9.49219 10.8867 9.21094 10.9043 14.9883 10.8984C19.6406 10.8984 20.3027 10.9102 20.4961 10.9922ZM7.79297 13.9746V15.1758H7.39453C6.86719 15.1758 6.55078 15.0176 6.28125 14.6133C6.09375 14.3496 6.08203 14.2969 6.10547 13.9395C6.13477 13.4297 6.31641 13.1426 6.74414 12.9258C6.97852 12.8086 7.14258 12.7734 7.42383 12.7734H7.79297V13.9746ZM23.2559 12.9258C23.6836 13.1426 23.8652 13.4297 23.8945 13.9395C23.918 14.2969 23.9062 14.3496 23.7188 14.6133C23.4492 15.0176 23.1328 15.1758 22.6055 15.1758H22.207V13.9746V12.7734H22.5762C22.8574 12.7734 23.0215 12.8086 23.2559 12.9258ZM5.80078 15.5273L6.07031 15.791L5.20312 17.1387C4.72266 17.877 4.30664 18.5273 4.27734 18.5742C4.23633 18.6504 4.20117 18.6387 4.03125 18.5156C3.92578 18.4395 3.72656 18.3223 3.5918 18.252L3.3457 18.1348L4.35352 16.5586C5.33203 15.0293 5.36133 14.9883 5.44336 15.123C5.49023 15.1992 5.6543 15.3809 5.80078 15.5273ZM25.6699 16.5938L26.6602 18.1348L26.4727 18.2109C26.3672 18.2578 26.1738 18.375 26.0332 18.4746C25.8926 18.5742 25.7695 18.6387 25.7578 18.627C25.7461 18.6152 25.3242 17.9648 24.8262 17.1855L23.918 15.7676L24.1172 15.6152C24.2285 15.5273 24.3926 15.3574 24.4746 15.2285C24.5566 15.0996 24.6387 15.0117 24.6562 15.0293C24.6738 15.041 25.1309 15.75 25.6699 16.5938ZM3.28711 19.1719C3.64453 19.3711 3.83203 19.6875 3.85547 20.1504C3.87891 20.5078 3.86719 20.5547 3.67969 20.8242C3.5625 21.0059 3.38672 21.1699 3.22266 21.2578C2.68359 21.5449 1.97461 21.3223 1.65234 20.7715C1.45898 20.4375 1.48828 19.8574 1.7168 19.5352C2.07422 19.0078 2.73047 18.8555 3.28711 19.1719ZM27.8965 19.1719C28.2539 19.3711 28.4414 19.6875 28.4648 20.1504C28.4883 20.5078 28.4766 20.5547 28.2891 20.8242C28.1719 21.0059 27.9961 21.1699 27.832 21.2578C27.293 21.5449 26.584 21.3223 26.2617 20.7715C26.0684 20.4375 26.0977 19.8574 26.3262 19.5352C26.6836 19.0078 27.3398 18.8555 27.8965 19.1719ZM19.5469 20.666C19.5234 20.8535 19.459 20.9941 19.3652 21.0938L19.2188 21.2402H15H10.7812L10.6348 21.0938C10.541 20.9941 10.4766 20.8535 10.4531 20.666L10.4121 20.3906H15H19.5879L19.5469 20.666ZM12.8906 24.7559V27.3633H12.3633H11.8359V24.7559V22.1484H12.3633H12.8906V24.7559ZM13.6992 28.3125C13.7402 28.3535 13.7695 28.541 13.7695 28.752V29.1211H12.3633H10.957V28.752C10.957 28.541 10.9863 28.3535 11.0273 28.3125C11.127 28.2129 13.5996 28.2129 13.6992 28.3125ZM18.9727 28.3125C19.0137 28.3535 19.043 28.541 19.043 28.752V29.1211H17.6367H16.2305V28.752C16.2305 28.541 16.2598 28.3535 16.3008 28.3125C16.4004 28.2129 18.873 28.2129 18.9727 28.3125Z" fill="#0082E0"/>
<path d="M11.3726 2.91212C11.0269 3.03517 10.646 3.42189 10.5289 3.77931C10.107 5.01564 11.2144 6.12306 12.4507 5.70118C12.8199 5.57814 13.1949 5.20314 13.3179 4.83399C13.7457 3.59181 12.6089 2.47267 11.3726 2.91212ZM12.1812 3.8379C12.6148 4.06056 12.521 4.71681 12.0406 4.83985C11.7359 4.91603 11.3609 4.6172 11.3667 4.29493C11.3726 4.04298 11.6597 3.75587 11.9117 3.75001C11.9703 3.75001 12.0933 3.79103 12.1812 3.8379Z" fill="#0082E0"/>
<path d="M17.525 2.91212C17.1792 3.03517 16.7984 3.42189 16.6812 3.77931C16.2593 5.01564 17.3667 6.12306 18.6031 5.70118C18.9722 5.57814 19.3472 5.20314 19.4703 4.83399C19.898 3.59181 18.7613 2.47267 17.525 2.91212ZM18.3335 3.8379C18.6441 3.9961 18.7085 4.43556 18.4566 4.68751C18.1226 5.02149 17.5132 4.76368 17.5191 4.29493C17.525 4.13087 17.6656 3.91993 17.8179 3.83204C17.9996 3.73243 18.1343 3.73243 18.3335 3.8379Z" fill="#0082E0"/>
<path d="M9.75 11.918L9.55078 12.1172V15.1641C9.55078 18.1406 9.55078 18.2109 9.66797 18.3574C9.73828 18.4453 9.89062 18.5391 10.0078 18.5742C10.3066 18.6562 19.6934 18.6562 19.9922 18.5742C20.1094 18.5391 20.2617 18.4453 20.332 18.3574C20.4492 18.2109 20.4492 18.1406 20.4492 15.1641V12.1172L20.25 11.918L20.0508 11.7188H16.9453C14.0508 11.7188 13.834 11.7246 13.7109 11.8242C13.5293 11.9707 13.5234 12.3223 13.6992 12.498L13.834 12.627L16.6992 12.6445L19.5703 12.6621V15.1758V17.6953H15H10.4297V15.1816V12.6621L11.3027 12.6445C12.0645 12.627 12.1934 12.6152 12.2988 12.5156C12.4629 12.3633 12.4688 12 12.3047 11.8359C12.1934 11.7246 12.1113 11.7188 11.0684 11.7188H9.94922L9.75 11.918Z" fill="#0082E0"/>
</g>
<defs>
<clipPath id="clip0_2048_18">
<rect width="30" height="30" fill="white"/>
</clipPath>
</defs>
</svg>
