<svg width="34" height="34" viewBox="0 0 34 34" fill="none" xmlns="http://www.w3.org/2000/svg">
<circle cx="25" cy="25" r="9" fill="#CCE5F6"/>
<path d="M10.5525 0.123047C10.3709 0.292969 10.3123 0.480469 10.3123 0.873047C10.3123 1.59961 10.4763 2.08008 10.9041 2.58984C11.3904 3.17578 11.3963 3.17578 11.4138 5.39648C11.4373 7.68164 11.3728 8.75391 11.1677 9.5625C11.0681 9.94336 9.95485 12.7383 7.75758 18.0879C5.95876 22.4648 4.4529 26.1738 4.41188 26.3379C4.31227 26.7129 4.31227 27.4863 4.41774 27.8613C4.67555 28.8398 5.49587 29.6602 6.46852 29.918C6.71462 29.9824 8.22633 30 15.0291 30C20.1736 30 23.3845 29.9766 23.5369 29.9414C24.1873 29.7891 24.9256 29.2559 25.3006 28.6641C25.6931 28.0488 25.8513 27.0527 25.6638 26.3672C25.6287 26.2207 24.158 22.5938 22.4002 18.3105C20.6423 14.0215 19.1365 10.3301 19.0603 10.1074C18.7205 9.09961 18.6912 8.78906 18.6912 5.99414C18.697 3.2168 18.7029 3.18164 19.0193 2.77734C19.5935 2.0625 19.6756 1.88086 19.7283 1.16602C19.7693 0.591797 19.7166 0.316406 19.5291 0.140625L19.3767 0H15.0291C10.699 0 10.6873 0 10.5525 0.123047ZM18.4861 1.33008C18.4685 1.42383 18.3748 1.58203 18.2927 1.6875C17.9412 2.12695 17.7537 2.41992 17.6248 2.74219C17.49 3.07031 17.49 3.11133 17.4724 5.77148C17.449 9.57422 17.4314 9.49219 18.7673 12.7441L19.4412 14.3848L17.2146 14.4023C15.9959 14.4082 14.0095 14.4082 12.8025 14.4023L10.617 14.3848L11.3201 12.6855C11.7009 11.748 12.0935 10.7637 12.1873 10.4883C12.5857 9.31641 12.6795 8.26172 12.6384 5.33203C12.6091 2.82422 12.5974 2.75977 11.8826 1.82812C11.7302 1.62305 11.6013 1.43555 11.6013 1.40625C11.6013 1.37695 11.5838 1.31836 11.5662 1.26562C11.531 1.18359 11.865 1.17188 15.0291 1.17188H18.5271L18.4861 1.33008ZM22.1189 20.9004C23.3084 23.7949 24.3279 26.291 24.3865 26.4434C24.5388 26.8477 24.533 27.3867 24.3748 27.7617C24.2224 28.1133 23.8474 28.4883 23.449 28.6699L23.1736 28.7988H15.0291H6.88454L6.55055 28.6348C6.02321 28.377 5.59547 27.8086 5.56618 27.334C5.53688 26.8887 5.50758 26.9121 6.15797 26.8828C6.73805 26.8594 6.75563 26.8594 6.91969 26.6719C7.15993 26.4082 7.15407 26.0742 6.91969 25.834C6.76149 25.6816 6.70876 25.6641 6.36891 25.6641H5.98805L6.31618 24.873L6.6443 24.082H7.09547C7.68727 24.082 7.88063 24.041 8.05641 23.8594C8.25563 23.6602 8.26149 23.2793 8.06227 23.0449C7.93922 22.9043 7.86305 22.875 7.54079 22.8516L7.15993 22.8223L7.47047 22.0605L7.78102 21.2988L8.3904 21.2637C8.75368 21.2461 9.04665 21.1992 9.12282 21.1523C9.43922 20.9531 9.4861 20.4844 9.22243 20.209C9.07594 20.0566 9.02321 20.0391 8.68922 20.0391C8.48415 20.0391 8.32008 20.0215 8.32594 19.9922C8.32594 19.9688 8.46657 19.623 8.63063 19.2188L8.93532 18.4863L9.55055 18.4512C10.2537 18.416 10.406 18.3574 10.5232 18.0645C10.6345 17.8066 10.5877 17.5781 10.3884 17.3789C10.2595 17.2441 10.1892 17.2266 9.86696 17.2266C9.66188 17.2266 9.49196 17.209 9.49196 17.1797C9.49196 17.1562 9.62672 16.8047 9.79665 16.3887L10.1013 15.6445H15.0349H19.9627L22.1189 20.9004Z" fill="#0082E0"/>
<path d="M18.7438 18.6797C18.4274 18.9609 18.445 19.0312 19.6227 21.9141C20.7653 24.7031 20.8415 24.8438 21.2165 24.8438C21.5856 24.8438 21.8551 24.5801 21.8551 24.2227C21.8551 24.1406 21.3688 22.8809 20.7712 21.4277C19.9977 19.541 19.6403 18.7441 19.5348 18.6445C19.318 18.457 18.9782 18.4688 18.7438 18.6797Z" fill="#0082E0"/>
<path d="M21.6621 25.8105C21.4864 25.9922 21.4395 26.1973 21.5157 26.4609C21.5801 26.7129 21.7911 26.8535 22.1016 26.8535C22.6231 26.8535 22.875 26.209 22.5059 25.834C22.2715 25.6055 21.8848 25.5938 21.6621 25.8105Z" fill="#0082E0"/>
</svg>
