<svg width="34" height="34" viewBox="0 0 34 34" fill="none" xmlns="http://www.w3.org/2000/svg">
<circle cx="25" cy="25" r="9" fill="#CCE5F6"/>
<path d="M11.1914 3.06446C10.8281 3.16406 10.5351 3.35156 10.2598 3.66797C9.86132 4.11914 9.82616 4.28906 9.79687 5.95899L9.77343 7.44141H8.60741H7.4414V7.00196V6.5625L7.0371 6.11133C6.21093 5.17383 6.24609 5.20313 5.9707 5.22656C5.74218 5.24414 5.68359 5.28516 5.13281 5.88281L4.54101 6.51563L4.51757 6.97852L4.49999 7.43555L2.99413 7.45313L1.49413 7.47071L1.18359 7.63477C0.744133 7.86328 0.457024 8.14453 0.228508 8.56641L0.0292896 8.93555L0.0117114 17.1211C-7.32206e-06 25.2891 -7.31647e-06 25.3066 0.12304 25.6289C0.292961 26.0859 0.732414 26.5488 1.21874 26.7891L1.61132 26.9824H15H28.3887L28.7226 26.8242C29.168 26.6191 29.6074 26.1973 29.8066 25.7871L29.9707 25.459V17.1973V8.93555L29.8066 8.625C29.5781 8.18555 29.2969 7.89844 28.875 7.66992L28.5059 7.47071L27.0059 7.45313L25.5 7.43555L25.4824 6.97852L25.459 6.51563L24.8672 5.88281C24.3164 5.28516 24.2578 5.24414 24.0293 5.22656C23.7539 5.20313 23.7891 5.17383 22.9629 6.11133L22.5586 6.5625V7.00196V7.44141H21.3926H20.2266L20.2031 5.95899C20.1797 4.7461 20.1562 4.43555 20.0742 4.20703C19.9336 3.82031 19.5176 3.38086 19.1133 3.18164L18.7793 3.01758L15.1172 3.00586C12.3457 2.99414 11.3906 3.01172 11.1914 3.06446ZM18.8262 4.11914C19.2305 4.42383 19.248 4.49414 19.2656 6.04688L19.2832 7.44141H18.873H18.457V6.1875V4.92774L18.2988 4.80469C18.1465 4.6875 18.0879 4.68164 16.9453 4.69922C15.7734 4.7168 15.75 4.7168 15.6387 4.85742C15.4922 5.03321 15.498 5.2793 15.6504 5.47266L15.7676 5.625H16.6465H17.5195V6.53321V7.44141H15H12.4805V6.53321V5.625H13.3535H14.2324L14.3496 5.47266C14.5019 5.2793 14.5078 5.03321 14.3613 4.85742C14.25 4.7168 14.2266 4.7168 13.0547 4.69922C11.9121 4.68164 11.8535 4.6875 11.7012 4.80469L11.543 4.92774V6.1875V7.44141H11.1269H10.7109L10.7344 6.04688C10.7519 4.58203 10.7754 4.45899 11.0508 4.20703C11.373 3.91406 11.2617 3.92578 15.0644 3.9375L18.6152 3.95508L18.8262 4.11914ZM6.26366 6.66211L6.5039 6.94336V8.47852V10.0195H5.97656H5.44921V8.49024V6.9668L5.70116 6.67383C5.83593 6.51563 5.96484 6.38672 5.98827 6.38672C6.00585 6.38672 6.13476 6.50977 6.26366 6.66211ZM24.3047 6.67383L24.5508 6.9668V8.49024V10.0195H24.0234H23.4961V8.47852V6.94336L23.7363 6.66211C23.8652 6.50977 23.9941 6.38672 24.0117 6.38672C24.0351 6.38672 24.1641 6.51563 24.3047 6.67383ZM2.78906 8.47852C2.60156 9.25781 1.8164 10.043 1.03124 10.2305L0.861321 10.2715L0.896477 9.7793C0.978508 8.75977 1.43554 8.34961 2.51366 8.32617C2.82421 8.32031 2.82421 8.32031 2.78906 8.47852ZM4.51171 9.16992C4.51171 9.95508 4.50585 10.0195 4.40038 10.0195C4.18945 10.0195 3.94335 10.1484 3.87304 10.2891C3.80273 10.4473 3.77929 13.9688 3.84374 14.1504C3.89062 14.2676 4.17187 14.4141 4.36523 14.4141H4.51171V20.2441V26.0742H4.13085C3.77343 26.0742 3.74999 26.0684 3.74999 25.9395C3.74413 25.7168 3.4746 25.0195 3.26366 24.7031C2.78906 24 1.96288 23.4199 1.20116 23.2617L0.878899 23.1973V17.1914V11.1914H1.02538C1.21874 11.1914 1.85741 10.9512 2.20312 10.752C2.57226 10.5352 3.09374 10.0137 3.31054 9.64453C3.50976 9.29883 3.74999 8.66016 3.74999 8.4668C3.74999 8.32617 3.76757 8.32031 4.13085 8.32031H4.51171V9.16992ZM22.5586 9.16406V10.002L22.3242 10.043C22.1953 10.0605 22.0371 10.1309 21.9726 10.1953C21.8613 10.3066 21.8555 10.3945 21.8555 12.2109C21.8555 14.3672 21.8496 14.332 22.3125 14.3965L22.5586 14.4316V20.25V26.0742H15H7.4414V23.5664C7.4414 20.8359 7.4414 20.8594 7.11327 20.7773C6.90234 20.7246 6.65038 20.8301 6.56835 21.0117C6.52148 21.1113 6.5039 21.9141 6.5039 23.6133V26.0742H5.97656H5.44921V20.2441V14.4141H5.97656H6.5039V16.8984C6.5039 19.3184 6.5039 19.3828 6.62695 19.5352C6.78515 19.7344 7.10741 19.7461 7.30663 19.5586L7.4414 19.4355V16.9336V14.4316L7.68749 14.3965C8.15038 14.332 8.14452 14.3672 8.14452 12.2109C8.14452 10.3945 8.13866 10.3066 8.02734 10.1953C7.96288 10.1309 7.80468 10.0605 7.67577 10.043L7.4414 10.002V9.16406V8.32031H15H22.5586V9.16406ZM26.2969 8.66602C26.4609 9.45117 27.1055 10.3535 27.7969 10.752C28.1426 10.957 28.7812 11.1914 28.9746 11.1914H29.1211V17.1914V23.1973L28.7988 23.2617C28.0371 23.4199 27.2109 24 26.7363 24.7031C26.5254 25.0195 26.2559 25.7168 26.25 25.9395C26.25 26.0684 26.2266 26.0742 25.8691 26.0742H25.4883V23.6133C25.4883 21.9141 25.4707 21.1113 25.4238 21.0117C25.3418 20.8301 25.0898 20.7246 24.8789 20.7773C24.5508 20.8594 24.5508 20.8359 24.5508 23.5664V26.0742H24.0234H23.4961V20.2441V14.4141H24.0234H24.5508V16.916C24.5508 19.4004 24.5508 19.418 24.6797 19.5527C24.8613 19.7461 25.207 19.7402 25.3652 19.5352C25.4883 19.3828 25.4883 19.3184 25.4883 16.8984V14.4141H25.6348C25.8281 14.4141 26.1094 14.2676 26.1562 14.1504C26.1738 14.0977 26.1914 13.2188 26.1914 12.1934C26.1914 10.4063 26.1855 10.3301 26.0742 10.207C26.0039 10.1367 25.8457 10.0605 25.7226 10.043L25.4883 10.002V9.16406V8.32031H25.8574H26.2266L26.2969 8.66602ZM28.4004 8.50196C28.8574 8.72461 29.0449 9.07031 29.1035 9.80274L29.1387 10.2715L28.9687 10.2305C28.1836 10.043 27.3984 9.25781 27.2109 8.47266L27.1699 8.30274L27.6562 8.33789C27.9668 8.36133 28.2363 8.41992 28.4004 8.50196ZM7.20702 12.2168V13.4766H5.97656H4.74609V12.2168V10.957H5.97656H7.20702V12.2168ZM25.2539 12.2168V13.4766H24.0234H22.793V12.2168V10.957H24.0234H25.2539V12.2168ZM1.6582 24.4512C2.02148 24.6621 2.43749 25.1367 2.63671 25.5645C2.73632 25.7637 2.81249 25.9629 2.81249 25.998C2.81249 26.0508 2.69531 26.0742 2.41991 26.0742C1.90429 26.0742 1.6289 25.9922 1.37109 25.7695C1.06054 25.4941 0.937493 25.2012 0.896477 24.6328L0.861321 24.1406L1.13085 24.2227C1.2832 24.2695 1.51757 24.3691 1.6582 24.4512ZM29.1035 24.6328C29.0625 25.2012 28.9394 25.4941 28.6289 25.7695C28.3711 25.9922 28.0957 26.0742 27.5859 26.0742C27.3047 26.0742 27.1875 26.0508 27.1875 25.998C27.1875 25.8223 27.5566 25.1719 27.8144 24.8965C28.166 24.5215 28.6934 24.2168 29.1152 24.1465C29.1269 24.1406 29.1211 24.3633 29.1035 24.6328Z" fill="#0082E0"/>
<path d="M17.8122 9.42773C17.2848 9.59766 16.8454 9.99023 16.6227 10.4824C16.4411 10.8867 16.4528 11.5254 16.652 11.959C16.9626 12.6387 17.4489 12.9551 18.2399 12.9961C18.7262 13.0195 18.7731 13.0137 19.1305 12.8379C19.5348 12.6387 19.7809 12.3809 19.9919 11.9531C20.1735 11.5723 20.1794 10.8633 19.9919 10.459C19.693 9.80859 19.1188 9.42773 18.3981 9.39844C18.1579 9.38672 17.8942 9.39844 17.8122 9.42773ZM18.7966 10.4707C19.195 10.7695 19.3063 11.1504 19.1012 11.5664C18.9196 11.9531 18.6442 12.0996 18.152 12.0762C17.9411 12.0703 17.5427 11.7129 17.4606 11.4492C17.3317 11.0742 17.5719 10.5645 17.9528 10.3945C18.1872 10.2891 18.6032 10.3242 18.7966 10.4707Z" fill="#0082E0"/>
<path d="M10.9751 12.2578C10.8696 12.3808 9.7329 14.7011 9.64501 14.9765C9.62157 15.0468 9.63329 15.1758 9.66844 15.2578C9.71532 15.3925 9.93212 15.5156 10.9282 16.0019C11.5903 16.3183 12.1938 16.582 12.27 16.582C12.3462 16.582 12.4751 16.5293 12.563 16.459C12.7388 16.3242 12.7681 16.0429 12.6333 15.8437C12.5864 15.7793 12.1411 15.5273 11.6431 15.2929L10.7407 14.8593L11.1157 14.0683C11.3208 13.6347 11.5024 13.2656 11.5141 13.248C11.5493 13.2187 16.7524 15.7207 16.7583 15.7675C16.7583 15.7851 16.5884 16.1601 16.3774 16.5996L15.9966 17.3965L15.1001 16.957C14.5727 16.6992 14.1333 16.5234 14.022 16.5234C13.6704 16.5234 13.4653 17.0039 13.6997 17.2734C13.7524 17.3379 14.3325 17.6484 14.9829 17.959C16.1899 18.5332 16.2837 18.5625 16.5181 18.375C16.6528 18.2695 17.8716 15.709 17.8716 15.5273C17.8716 15.4394 17.8247 15.3105 17.772 15.2461C17.6196 15.0644 11.4966 12.1289 11.2739 12.1289C11.1626 12.1289 11.0513 12.1758 10.9751 12.2578Z" fill="#0082E0"/>
<path d="M18.3164 19.3301C17.4844 19.7754 16.7637 20.1855 16.7227 20.2441C16.6758 20.3027 16.6406 20.4199 16.6406 20.4961C16.6406 20.6367 18.1523 23.5547 18.3223 23.7422C18.5215 23.959 18.7559 23.8828 20.2793 23.0801C21.082 22.6582 21.7969 22.2656 21.8672 22.207C22.1133 22.0078 22.0488 21.8144 21.1875 20.1855C20.748 19.3476 20.3438 18.6269 20.291 18.5859C20.0801 18.4336 19.834 18.5273 18.3164 19.3301ZM20.3555 20.6484C20.6309 21.1816 20.8594 21.6328 20.8594 21.6621C20.8594 21.7383 18.8613 22.7519 18.8145 22.6992C18.7852 22.6699 18.5391 22.207 18.2637 21.6738L17.7598 20.7012L18.7676 20.1738C19.3184 19.8809 19.793 19.6523 19.8164 19.6641C19.834 19.6758 20.0801 20.1211 20.3555 20.6484Z" fill="#0082E0"/>
<path d="M12.3693 19.6348C11.9533 19.7168 11.3732 19.9219 10.9279 20.1445C8.68376 21.2637 7.72282 23.4141 8.95915 24.5683C10.506 26.0156 14.4318 24.4863 15.2697 22.1074C15.4162 21.6797 15.4045 21.0176 15.2345 20.6601C14.9826 20.1328 14.4904 19.7754 13.84 19.6348C13.4826 19.5586 12.7502 19.5586 12.3693 19.6348ZM14.0158 20.7012C14.2267 20.8242 14.3088 20.918 14.3849 21.1172C14.4787 21.3574 14.4787 21.3984 14.3908 21.6973C14.174 22.4414 13.4357 23.209 12.4513 23.7012C10.4767 24.6973 8.80095 24.0937 9.52751 22.6523C9.96696 21.791 11.174 20.9062 12.3166 20.6191C12.9494 20.4551 13.6584 20.4902 14.0158 20.7012Z" fill="#0082E0"/>
<path d="M5.39067 11.8946C5.23832 12.0469 5.23246 12.3809 5.38481 12.5332C5.52543 12.6738 5.83598 12.7383 6.18754 12.6973C6.54496 12.6621 6.67973 12.5274 6.67973 12.211C6.67973 11.8594 6.54496 11.7774 5.96489 11.7774C5.58403 11.7774 5.49028 11.7949 5.39067 11.8946Z" fill="#0082E0"/>
<path d="M23.4491 11.8711C23.2733 11.9883 23.2674 12.416 23.4373 12.5684C23.6659 12.7734 24.3924 12.7559 24.6151 12.5332C24.7674 12.3809 24.7616 12.0469 24.6092 11.8945C24.5096 11.7949 24.4159 11.7773 24.035 11.7773C23.7186 11.7773 23.5428 11.8066 23.4491 11.8711Z" fill="#0082E0"/>
</svg>
