<svg width="34" height="34" viewBox="0 0 34 34" fill="none" xmlns="http://www.w3.org/2000/svg">
<circle cx="25" cy="25" r="9" fill="#CCE5F6"/>
<path d="M10.8396 0.09375C9.78489 0.369141 8.79466 1.16602 8.33763 2.10938C8.10325 2.5957 7.90989 3.27539 7.90989 3.62695C7.90989 3.79102 7.89231 3.80273 7.6345 3.83789C6.57981 3.97266 5.92356 4.1543 5.18528 4.5293C4.52903 4.85742 4.09544 5.16211 3.56224 5.67773C2.77122 6.42773 2.22044 7.27734 1.85716 8.30273C1.39427 9.59766 1.38255 11.2734 1.822 12.627C2.00364 13.1777 2.43138 13.9922 2.77122 14.4375C2.93528 14.6602 3.09935 14.877 3.1345 14.918C3.17552 14.9707 3.15208 15.0469 3.05833 15.1582C2.98802 15.2461 2.78294 15.5449 2.6013 15.8086C1.38255 17.5957 1.14817 20.0273 1.99778 22.0605C2.34935 22.9102 3.09935 23.9941 3.40989 24.1055C3.74388 24.2227 4.11302 23.877 4.00755 23.543C3.98411 23.4727 3.86692 23.291 3.74388 23.1445C3.18724 22.4766 2.73606 21.5449 2.54856 20.6543C2.42552 20.0918 2.40794 18.9902 2.51341 18.4863C2.71849 17.4844 3.19896 16.4766 3.80247 15.7734L3.91966 15.6387L4.23021 15.8379C4.66966 16.1191 5.06224 16.3125 5.51927 16.4648C5.90013 16.5938 5.91771 16.6055 5.98216 16.8398C6.14622 17.4375 6.59153 18.0293 7.08372 18.2754C7.38255 18.4277 7.5056 18.4277 7.69896 18.2754C7.81614 18.1875 7.8513 18.1055 7.8513 17.9414C7.8513 17.6836 7.83372 17.6543 7.52903 17.4375C7.40013 17.3438 7.24778 17.209 7.18919 17.1445C6.63841 16.5117 6.79661 15.4805 7.49974 15.0586C7.97435 14.7715 8.02708 14.7129 8.02708 14.4785C8.02708 14.2148 7.83372 14.0039 7.59935 14.0039C7.14817 14.0039 6.42747 14.6016 6.14036 15.2051C6.04661 15.416 5.94114 15.5859 5.91185 15.5859C5.7888 15.5859 5.15013 15.293 4.82786 15.0879C2.64231 13.6875 1.81028 10.5879 2.95286 8.10938C3.5095 6.9082 4.59935 5.82422 5.77122 5.30273C6.68528 4.89844 7.99192 4.67578 8.71849 4.80469C9.12278 4.875 9.60911 5.0625 9.90208 5.27344C9.99583 5.33789 10.1599 5.39062 10.2771 5.39062C10.7283 5.39062 10.8865 4.89258 10.5349 4.57031C10.2888 4.3418 9.70286 4.06055 9.23411 3.94336C8.7888 3.83789 8.77708 3.80859 8.93528 3.19336C9.28099 1.8457 10.447 0.931641 11.8064 0.931641C12.7029 0.931641 13.4411 1.3418 13.9509 2.12695C14.3493 2.73633 14.3552 2.83008 14.3552 6.72656V10.1777L14.49 10.3008C14.6599 10.459 14.9411 10.4648 15.1228 10.3184C15.2575 10.207 15.2634 10.1719 15.2927 9.15234L15.322 8.09766L16.4353 9.03516C17.0505 9.55078 17.6189 10.0371 17.7068 10.1133C17.8533 10.2305 17.865 10.2656 17.8064 10.4121C17.7302 10.6172 17.7126 11.1445 17.7712 11.4375L17.8181 11.6543L16.57 12.5918L15.322 13.5293L15.2927 12.6973C15.2751 12.2402 15.24 11.8242 15.2165 11.7715C15.1638 11.6602 14.9294 11.543 14.7595 11.543C14.695 11.543 14.5779 11.6074 14.5017 11.6895L14.3552 11.8301V19.2773C14.3552 27.6035 14.3728 27.2227 13.9509 27.873C13.4411 28.6582 12.7029 29.0684 11.8064 29.0684C10.447 29.0684 9.28099 28.1543 8.93528 26.8066C8.88841 26.6191 8.84739 26.3906 8.84739 26.3027C8.84739 26.1562 8.87669 26.1328 9.15794 26.0742C9.322 26.0391 9.54466 25.9746 9.63841 25.9336C9.80247 25.8633 9.83763 25.8691 10.072 26.0332C10.406 26.2617 10.7751 26.3672 11.2322 26.3672C11.5544 26.3672 11.6306 26.3438 11.7478 26.2207C11.9411 26.0332 11.947 25.7344 11.7595 25.5586C11.654 25.459 11.5486 25.4297 11.2849 25.4297C10.863 25.4297 10.5408 25.2715 10.3357 24.9609C10.1482 24.6855 10.1247 24.2637 10.2712 23.9824C10.324 23.877 10.3708 23.7012 10.3708 23.5898C10.3708 23.2324 9.93138 23.0215 9.62669 23.2324C9.34544 23.4316 9.1345 24.4102 9.27513 24.9141C9.31614 25.0605 9.29856 25.0723 9.0056 25.1484C8.82981 25.1895 8.4138 25.2246 8.02708 25.2188C7.24778 25.2188 6.52122 25.0488 5.7595 24.6973C5.21458 24.4453 4.97435 24.4336 4.81028 24.6445C4.54075 24.9844 4.70481 25.2539 5.37278 25.5645C5.91771 25.8164 6.69114 26.0508 7.17747 26.0977C7.90989 26.1797 7.90989 26.1797 7.90989 26.373C7.90989 26.7246 8.10325 27.4043 8.33763 27.8906C8.67747 28.5879 9.322 29.2383 10.0193 29.5781C10.6814 29.9062 11.0915 30 11.8122 30C12.5271 30 13.0193 29.8711 13.5993 29.5312C14.3493 29.0859 15.0173 28.1777 15.1872 27.3516C15.24 27.0879 15.281 27.0117 15.3513 27.0293C15.3982 27.041 16.3181 27.2168 17.3962 27.4277C19.1072 27.7559 19.3591 27.8145 19.3943 27.9199C19.4236 27.9844 19.488 28.166 19.5466 28.3242C19.6755 28.6875 20.0329 29.0859 20.4197 29.2852C20.6599 29.4141 20.7947 29.4375 21.1814 29.4375C21.5798 29.4434 21.7029 29.4199 21.9841 29.2793C22.3415 29.1035 22.5993 28.8457 22.8044 28.459C22.9978 28.1074 22.9978 27.2695 22.8103 26.918L22.6814 26.6719L24.322 24.7559C25.5818 23.291 25.9919 22.8516 26.0622 22.8809C26.3669 22.998 26.7302 23.0332 27.0466 22.9746C28.3943 22.7227 28.9509 21.1816 28.0896 20.0566C27.9021 19.8105 27.4099 19.5234 27.0876 19.4766C26.9294 19.4531 26.8298 19.4062 26.8122 19.3418C26.7947 19.2891 26.6658 18.668 26.5134 17.9531L26.2439 16.6582L26.6189 16.2773C27.0349 15.8672 27.1872 15.5215 27.1872 15C27.1872 14.4785 27.0349 14.1328 26.6189 13.7227L26.2439 13.3418L26.5134 12.0469C26.6658 11.332 26.7947 10.7109 26.8122 10.6582C26.8298 10.5938 26.9294 10.5469 27.0876 10.5234C27.8845 10.4004 28.4939 9.63867 28.4939 8.75977C28.4939 7.5 27.2517 6.66211 26.0622 7.11914C25.9919 7.14844 25.5818 6.70898 24.322 5.24414L22.6814 3.32812L22.8103 3.08203C22.9978 2.73047 22.9978 1.89258 22.8044 1.54102C22.5993 1.1543 22.3415 0.896484 21.9841 0.720703C21.697 0.580078 21.5798 0.556641 21.1814 0.5625C20.32 0.568359 19.781 0.972656 19.4822 1.83398L19.3591 2.19727L17.49 2.56055C16.4587 2.75977 15.5329 2.93555 15.4392 2.95312C15.2575 2.98828 15.2575 2.98828 15.1872 2.64258C15.0232 1.85742 14.4079 0.984375 13.6872 0.515625C13.1365 0.158203 12.5388 0 11.7888 0.00585938C11.4431 0.00585938 11.0154 0.046875 10.8396 0.09375ZM21.5857 1.59961C21.99 1.82812 22.1365 2.28516 21.9255 2.68945C21.6091 3.31641 20.7595 3.30469 20.449 2.66602C20.2908 2.34375 20.32 2.08008 20.5486 1.81055C20.8474 1.45898 21.2107 1.38281 21.5857 1.59961ZM19.74 3.35742C19.8337 3.49805 20.0212 3.68555 20.1501 3.77344C20.2849 3.86719 20.3904 3.94922 20.3904 3.96094C20.3904 3.97266 20.1677 5.12695 19.8923 6.5332C19.6169 7.93359 19.3943 9.10547 19.3943 9.13477C19.3943 9.16406 19.3064 9.21094 19.2068 9.22852C19.1013 9.25195 18.8904 9.32227 18.7439 9.38672L18.4685 9.50391L16.8806 8.16211L15.2927 6.82617V5.38477V3.94336L16.7458 3.66211C17.5427 3.50977 18.4861 3.32227 18.8376 3.25195C19.195 3.17578 19.4997 3.11719 19.5232 3.11133C19.5466 3.10547 19.6404 3.2168 19.74 3.35742ZM23.654 5.91797L25.2302 7.76367L25.0954 8.05664C24.9197 8.44336 24.9138 9.00586 25.0837 9.45703C25.1716 9.70312 25.2888 9.86133 25.5525 10.0957L25.8982 10.4121L25.6052 11.7832C25.447 12.5391 25.3122 13.1719 25.3122 13.1895C25.3122 13.2129 25.2068 13.2422 25.072 13.2598C24.9431 13.2773 24.697 13.3594 24.5212 13.4473L24.2107 13.6055L22.7224 12.6035L21.24 11.5957L21.2575 11.1328C21.2751 10.8633 21.2517 10.5762 21.2107 10.4473C21.1052 10.125 20.824 9.73828 20.5603 9.5625C20.4372 9.47461 20.3376 9.36328 20.3318 9.30469C20.3318 9.22266 21.2224 4.57031 21.3103 4.23047C21.3279 4.16016 21.3865 4.10156 21.4392 4.0957C21.4919 4.0957 21.6267 4.06055 21.738 4.01953C21.8845 3.9668 21.9607 3.9668 22.0075 4.00781C22.0427 4.04297 22.781 4.9043 23.654 5.91797ZM27.2048 8.09766C27.4275 8.25586 27.615 8.67188 27.5622 8.88867C27.3747 9.68555 26.4314 9.86719 26.0154 9.1875C25.5583 8.4375 26.49 7.58789 27.2048 8.09766ZM19.863 10.248C20.4607 10.5645 20.4841 11.3672 19.9099 11.7188C19.1072 12.2051 18.2341 11.0625 18.9079 10.418C19.2126 10.125 19.529 10.0664 19.863 10.248ZM22.2126 13.4062L23.7068 14.4199L23.6482 14.7129C23.6072 14.9062 23.6072 15.0938 23.6482 15.2871L23.7068 15.5801L22.1892 16.6055L20.6716 17.6367L20.5134 17.5254C20.0388 17.1855 19.2302 17.1387 18.6853 17.4199L18.3982 17.5723L16.8454 16.418L15.2927 15.2637V15V14.7363L16.8454 13.582L18.3982 12.4277L18.7029 12.5859C18.9665 12.7207 19.0779 12.7441 19.5115 12.7441C19.9626 12.7441 20.0388 12.7266 20.3318 12.5625C20.5075 12.457 20.6658 12.3809 20.6833 12.3867C20.7009 12.3867 21.3865 12.8496 22.2126 13.4062ZM25.8982 14.332C26.3493 14.7188 26.3669 15.2344 25.9333 15.6387C25.7224 15.8379 25.2419 15.873 24.9783 15.709C24.2458 15.2461 24.5622 14.1797 25.4353 14.1797C25.6521 14.1797 25.7575 14.2148 25.8982 14.332ZM24.5388 16.5586C24.697 16.6406 24.9372 16.7227 25.072 16.7402C25.2009 16.7578 25.3122 16.7871 25.3122 16.8105C25.3122 16.8281 25.447 17.4609 25.6052 18.2168L25.8982 19.5879L25.5525 19.9043C25.2888 20.1387 25.1716 20.2969 25.0837 20.543C24.9138 20.9941 24.9197 21.5566 25.0954 21.9434L25.2302 22.2363L23.5954 24.1406C22.699 25.1895 21.9314 26.0332 21.8904 26.0215C21.8552 26.0098 21.7146 25.9746 21.5798 25.9395C21.4099 25.8984 21.3279 25.8457 21.3044 25.7578C21.2224 25.4121 20.3318 20.7715 20.3318 20.6895C20.3376 20.6367 20.4372 20.5254 20.5603 20.4375C20.824 20.2617 21.1052 19.875 21.2107 19.5527C21.2517 19.4238 21.2751 19.1367 21.2575 18.8672L21.24 18.4043L22.7048 17.4082C23.5134 16.8574 24.1872 16.4121 24.2107 16.4062C24.2283 16.4062 24.3806 16.4766 24.5388 16.5586ZM16.6286 17.4551L17.8181 18.3457L17.7712 18.5625C17.7126 18.8555 17.7302 19.3887 17.8064 19.5938C17.8474 19.6875 17.865 19.7695 17.8591 19.7754C17.8122 19.8047 15.5388 21.7148 15.4275 21.8145L15.2927 21.9316V19.1953C15.2927 17.0098 15.3103 16.4648 15.3689 16.5059C15.404 16.541 15.9724 16.9629 16.6286 17.4551ZM19.9099 18.2812C20.4372 18.6035 20.4783 19.3359 19.9802 19.6875C19.5993 19.957 19.1365 19.875 18.8376 19.4824C18.3103 18.7969 19.1716 17.8301 19.9099 18.2812ZM27.1052 20.4844C27.4861 20.666 27.6618 21.1348 27.4919 21.5273C27.281 21.9902 26.8474 22.1777 26.4079 21.9844C26.0505 21.8262 25.8747 21.5332 25.9099 21.1465C25.9685 20.5547 26.5603 20.2266 27.1052 20.4844ZM19.0017 20.6953C19.2185 20.7715 19.3943 20.8477 19.3943 20.8711C19.3943 20.9004 19.6169 22.0723 19.8923 23.4785L20.3962 26.0449L20.2322 26.1621C20.0388 26.2969 19.822 26.5137 19.6579 26.7305L19.5408 26.8887L18.8669 26.7539C18.4978 26.6777 17.5427 26.4902 16.7458 26.3379L15.2927 26.0625V24.6152V23.1738L16.863 21.8438C17.7888 21.0586 18.4626 20.5254 18.5154 20.5371C18.5622 20.5547 18.779 20.625 19.0017 20.6953ZM21.5622 26.9414C21.8728 27.0938 22.0486 27.3926 22.0134 27.7207C21.9841 28.0605 21.8142 28.3066 21.5095 28.4414C21.1872 28.5938 20.8943 28.5293 20.6189 28.248C20.32 27.9492 20.2732 27.6797 20.4548 27.3223C20.6892 26.877 21.1286 26.7246 21.5622 26.9414Z" fill="#0082E0"/>
<path d="M11.5019 7.74612C11.4316 7.78128 11.3086 7.94534 11.2324 8.1094C11.0391 8.5137 10.8164 8.76565 10.5351 8.91214L10.3008 9.03518L10.1133 8.8594C9.79101 8.54886 9.33983 8.36136 8.83593 8.33206C8.58983 8.32034 8.3203 8.32034 8.23241 8.34378C7.86913 8.43753 7.74023 8.80667 7.9746 9.1055C8.08593 9.24612 8.1328 9.25784 8.50194 9.25784C9.13476 9.25784 9.49218 9.4512 9.74413 9.93167C9.89062 10.2188 9.90233 10.6758 9.76171 10.9395C9.6328 11.1914 9.64452 11.3789 9.79101 11.5664C9.89648 11.7012 9.95507 11.7246 10.1543 11.7071C10.3535 11.6953 10.418 11.6543 10.5293 11.4903C10.7285 11.1973 10.8047 10.8692 10.7988 10.3418L10.793 9.87307L11.0859 9.69729C11.6309 9.36917 12.1875 8.59573 12.1875 8.15628C12.1875 7.81643 11.8066 7.58792 11.5019 7.74612Z" fill="#0082E0"/>
<path d="M12.4098 18.4981C12.3571 18.5567 12.2692 18.7207 12.2047 18.8672C12.0758 19.166 11.6891 19.5352 11.3727 19.6758C11.2555 19.7227 11.0036 19.7637 10.8102 19.7637C10.359 19.7695 9.93714 19.5528 9.5973 19.1485C9.39222 18.9024 9.33363 18.8672 9.13441 18.8672C8.67152 18.8672 8.52503 19.2891 8.84144 19.7227C9.35121 20.4317 10.2946 20.8242 11.1618 20.6895C11.9586 20.5664 12.6618 20.0625 13.0075 19.377C13.2125 18.9668 13.2301 18.6797 13.0661 18.5156C12.9137 18.3633 12.5328 18.3574 12.4098 18.4981Z" fill="#0082E0"/>
</svg>
