<svg width="34" height="34" viewBox="0 0 34 34" fill="none" xmlns="http://www.w3.org/2000/svg">
<circle cx="25" cy="25" r="9" fill="#CCE5F6"/>
<g clip-path="url(#clip0_2048_11)">
<path d="M7.29512 2.26172C7.16621 2.27344 6.73262 2.31445 6.32832 2.34961C4.42402 2.51367 2.92402 2.93555 2.35566 3.48047C2.0334 3.7793 1.99238 3.91406 1.99238 4.59961V5.21484H1.65254C0.931837 5.21484 0.427931 5.49609 0.15254 6.04688L0.00019621 6.35156V15.7441C0.00019621 26.1855 -0.03496 25.3535 0.398634 25.8047C0.855665 26.2793 0.427931 26.25 6.36934 26.25C9.82637 26.25 11.7072 26.2734 11.8127 26.3086C11.8947 26.3438 12.1525 26.543 12.3811 26.748C13.8518 28.1133 16.1486 28.1133 17.6193 26.748C17.8479 26.543 18.1057 26.3438 18.1877 26.3086C18.2932 26.2734 20.1682 26.25 23.6193 26.25C28.008 26.25 28.9221 26.2383 29.0861 26.168C29.3732 26.0508 29.7424 25.6934 29.8771 25.4062C30.0002 25.1602 30.0002 25.125 30.0002 15.7559V6.35156L29.8479 6.04688C29.5725 5.49609 29.0686 5.21484 28.3479 5.21484H28.008V4.59961C28.008 3.91406 27.967 3.7793 27.6447 3.47461C27.0881 2.94727 25.7053 2.54883 23.6721 2.33203C22.7111 2.23242 19.7697 2.23242 18.8088 2.33789C17.2502 2.50195 15.9729 2.80078 15.3107 3.16406L15.0002 3.32812L14.6955 3.16406C14.0451 2.8125 12.9318 2.53711 11.4553 2.36719C10.7404 2.28516 7.8166 2.20898 7.29512 2.26172ZM10.465 3.33984C12.0588 3.46289 13.3889 3.7207 14.092 4.03711L14.4729 4.21289V13.6172C14.4729 18.791 14.467 23.0273 14.4553 23.0273C14.4436 23.0273 14.2443 22.9629 14.01 22.8809C12.299 22.3008 9.15254 22.0723 6.41621 22.3301C5.17402 22.4473 3.77949 22.7344 3.15254 22.998C3.05293 23.0391 3.04707 22.5703 3.04707 13.6641V4.2832L3.19941 4.16602C3.63887 3.82031 5.45527 3.44531 7.26582 3.32227C7.92207 3.27539 9.77949 3.28711 10.465 3.33984ZM24.1115 3.45117C25.1252 3.58594 26.2326 3.84961 26.6428 4.05469L26.924 4.19531L26.9416 13.6113C26.9475 18.791 26.9416 23.0273 26.9299 23.0273C26.9182 23.0273 26.8127 22.9863 26.6955 22.9395C26.3322 22.7871 25.3713 22.5703 24.5217 22.4414C21.6916 22.0312 17.924 22.2246 15.9904 22.8809C15.7561 22.9629 15.5568 23.0273 15.5451 23.0273C15.5334 23.0273 15.5275 18.8086 15.5275 13.6582V4.2832L15.6916 4.16602C16.0959 3.87891 17.5783 3.52148 18.8674 3.4043C19.2365 3.36914 19.6467 3.32812 19.7756 3.31641C19.9045 3.30469 20.7365 3.30469 21.6213 3.31055C22.8107 3.32812 23.4611 3.36328 24.1115 3.45117ZM1.99238 14.8359V23.3965L2.13887 23.6484C2.30293 23.9238 2.66621 24.1406 2.97676 24.1406C3.07637 24.1406 3.34004 24.0762 3.55684 23.9941C4.98067 23.4551 7.57637 23.1797 9.92598 23.3145C12.0236 23.4316 13.424 23.707 14.2385 24.1523C14.8479 24.4922 15.1525 24.4922 15.7619 24.1523C17.7307 23.0684 23.7541 22.9805 26.4436 23.9941C26.6604 24.0762 26.924 24.1406 27.0236 24.1406C27.3342 24.1406 27.6975 23.9238 27.8615 23.6484L28.008 23.3965V14.8242V6.25781L28.3654 6.28125C29.01 6.32812 28.9455 5.22656 28.9455 15.7559V24.9434L28.8107 25.0664L28.676 25.1895L23.3205 25.207L17.9592 25.2246L17.6721 25.3594C17.5139 25.4297 17.2092 25.6582 16.9924 25.8633C15.7912 26.9941 14.215 27 13.0256 25.875C12.7971 25.6641 12.4865 25.4297 12.3283 25.3594L12.0412 25.2246L6.67988 25.207L1.32441 25.1895L1.18965 25.0664L1.05488 24.9434V15.7793C1.05488 9.4043 1.07246 6.58008 1.11934 6.49805C1.20137 6.3457 1.37129 6.27539 1.71699 6.27539L1.99238 6.26953V14.8359Z" fill="#0082E0"/>
<path d="M8.29102 8.25586C8.2207 8.28516 8.13867 8.34375 8.09766 8.39062C7.96875 8.54883 4.98047 16.5937 4.98047 16.793C4.98047 17.0215 5.25586 17.2852 5.50195 17.2852C5.8418 17.2852 5.92969 17.1328 6.47461 15.6738L6.99023 14.2969H8.50195C9.87891 14.2969 10.0078 14.3027 10.0488 14.3965C10.0723 14.4551 10.2949 15.0703 10.5527 15.7617C11.0391 17.0801 11.1621 17.2852 11.4609 17.2852C11.6484 17.2852 11.9297 17.1387 11.9766 17.0215C11.9941 16.9687 12.0117 16.8457 12.0117 16.752C12.0117 16.5234 9 8.50781 8.86523 8.37305C8.73633 8.24414 8.45508 8.18555 8.29102 8.25586ZM9.58594 13.2246C9.57422 13.2363 9.08203 13.2363 8.48438 13.2305L7.40039 13.2129L7.9043 11.8652C8.18555 11.1211 8.43164 10.4648 8.46094 10.4004C8.49609 10.3125 8.63672 10.6348 9.05273 11.748C9.35742 12.5508 9.59766 13.2187 9.58594 13.2246Z" fill="#0082E0"/>
<path d="M21.1231 7.88088C20.9824 8.01565 20.9766 8.04494 20.9766 8.87698V9.72659H19.1309H17.2793L17.1387 9.87307C16.9571 10.0489 16.9395 10.4121 17.1035 10.6114L17.2149 10.752L20.1797 10.7696C21.8086 10.7754 23.1446 10.8047 23.1446 10.8281C23.1446 10.8985 22.5059 12.0117 22.1953 12.4746C22.0313 12.7207 21.7559 13.1016 21.5801 13.3184L21.2578 13.7168L21.1113 13.5235C21.0352 13.418 20.8594 13.1426 20.7246 12.9199C20.3789 12.3281 20.2969 12.2461 20.0274 12.2461C19.711 12.2461 19.5879 12.3281 19.5059 12.586C19.4473 12.7852 19.459 12.8438 19.5938 13.1133C19.6817 13.2832 19.9219 13.6699 20.1328 13.9864L20.5137 14.5489L20.2617 14.8067C19.8399 15.2461 18.9317 15.9785 18.2168 16.4649C17.8418 16.7227 17.5196 16.9746 17.4961 17.0215C17.4199 17.2266 17.461 17.4668 17.6074 17.6074C17.836 17.836 18.1172 17.8067 18.627 17.4903C19.2774 17.0918 20.1094 16.4414 20.6895 15.8906L21.211 15.3985L21.8145 15.9727C22.8106 16.9219 24.0703 17.7539 24.5098 17.7539C24.8086 17.7539 25.0196 17.5489 25.0196 17.2559C25.0196 16.9922 24.8496 16.8164 24.3164 16.5235C23.7481 16.2071 23.0625 15.6856 22.4766 15.1172L21.9492 14.6074L22.0664 14.461C22.9981 13.2656 23.7832 12.0469 24.1465 11.2207L24.3399 10.7813H24.9727C25.8106 10.7813 26.0098 10.6758 26.0156 10.2364C26.0156 10.0781 25.9746 9.97268 25.8692 9.87307L25.7285 9.72659H23.877H22.0313V8.92971C22.0313 7.9219 21.9492 7.74026 21.4863 7.7344C21.3281 7.7344 21.2227 7.77541 21.1231 7.88088Z" fill="#0082E0"/>
</g>
<defs>
<clipPath id="clip0_2048_11">
<rect width="30" height="30" fill="white"/>
</clipPath>
</defs>
</svg>
