<svg width="34" height="34" viewBox="0 0 34 34" fill="none" xmlns="http://www.w3.org/2000/svg">
<circle cx="25" cy="25" r="9" fill="#CCE5F6"/>
<g clip-path="url(#clip0_2048_10)">
<path d="M18.0469 0.0586014C15.8613 0.146492 13.7109 0.45118 11.2793 1.01954C10.1367 1.28907 9.52149 1.71095 9.14649 2.47266C8.89453 2.98243 8.85352 3.42188 8.84766 5.39649V7.07813L7.81055 7.41212C5.83594 8.04493 3.82617 8.90626 1.81641 9.97852C0.873047 10.4824 0.498047 10.8223 0.222656 11.4082C0.0585938 11.7481 0.0292969 11.8887 0.0117188 12.3633L-0.0117188 12.9199L0.814453 15.9961C1.8457 19.8633 2.00977 20.3379 2.74805 21.7734C3.49805 23.2149 4.40625 24.4512 5.56055 25.6113C7.25391 27.2988 9.10547 28.4531 11.6016 29.3731C13.3477 30.0176 13.3301 30.0176 14.4609 29.9883C15.3984 29.9649 15.457 29.959 15.9199 29.7715C16.916 29.3789 17.4258 28.9395 18.7441 27.3281C19.7109 26.1504 20.625 24.7266 21.0293 23.7539C21.1406 23.4902 21.1992 23.4434 21.5215 23.2793C21.9609 23.0625 23.5488 21.9551 24.3047 21.3399C27.2051 18.9902 29.1563 15.6035 29.8359 11.7422C29.9648 11.0039 29.9707 10.8867 29.9707 6.94337V2.9004L29.7832 2.51368C29.543 2.02149 29.1094 1.58204 28.6406 1.35352C27.8906 0.990242 25.2012 0.45118 22.9043 0.205086C22.1895 0.128914 19.4941 -0.0117111 19.2188 0.0117264C19.1719 0.0175858 18.6445 0.0351639 18.0469 0.0586014ZM22.1484 1.20118C23.9883 1.36524 25.7109 1.64649 27.3164 2.05665C28.1602 2.26759 28.2715 2.32032 28.5586 2.63673C28.9629 3.08204 28.9453 2.91212 28.9453 6.73829C28.9453 8.79493 28.9219 10.4297 28.8809 10.7695C28.5938 13.3887 27.5918 15.9141 25.9922 18.0469C25.4707 18.7441 24.2813 19.9746 23.584 20.5371C22.8984 21.0879 21.3809 22.1484 21 22.3418C20.0391 22.8281 18.873 22.8281 17.9004 22.3418C17.5078 22.1426 15.7969 20.9356 15.1758 20.4141C14.5313 19.875 13.4883 18.7969 12.9961 18.1641C11.7012 16.4883 10.7402 14.4434 10.2891 12.3926C10.002 11.0977 10.002 11.0566 9.97266 7.11915C9.96094 4.41798 9.97266 3.3047 10.0195 3.14649C10.0957 2.89454 10.4824 2.43751 10.7227 2.31446C10.8984 2.22071 11.9883 1.94532 12.8613 1.76368C14.1738 1.49415 15.5566 1.30079 16.9629 1.17774C17.9941 1.08985 21.0293 1.10743 22.1484 1.20118ZM9.07617 11.7422C9.50391 14.3438 10.5586 16.7754 12.1758 18.8672C12.3867 19.1426 12.9199 19.7285 13.3535 20.1738C13.9629 20.7891 14.127 20.9941 14.0625 21.0352C13.9102 21.1289 12.7441 21.4453 12.2168 21.5332C11.9297 21.5801 10.834 21.6856 9.78516 21.7676C7.5 21.9492 7.52344 21.9434 7.3418 22.125C7.21875 22.2539 7.19531 22.3125 7.22461 22.5117C7.24219 22.6406 7.29492 22.7871 7.33594 22.8281C7.44727 22.9395 12.5098 25.2246 12.8965 25.3359C13.5293 25.5234 14.3672 25.4121 14.9238 25.0606C15.2988 24.8262 15.5273 24.5684 16.1426 23.7012C16.4531 23.2676 16.7227 22.9102 16.7402 22.9102C16.7578 22.9102 16.8398 22.957 16.9219 23.0215C17.5488 23.4609 18.4688 23.7481 19.2773 23.7539L19.8398 23.7598L19.582 24.2285C19.0371 25.2129 18.5156 25.9395 17.4199 27.2285C16.6758 28.1074 16.3828 28.3652 15.8555 28.6231C15.1289 28.9863 14.332 29.0859 13.5938 28.916C12.9668 28.7695 11.0449 28.0313 10.166 27.5977C6.58008 25.834 3.88477 22.6699 2.70117 18.8379C2.25586 17.3789 1.05469 12.7324 1.05469 12.4512C1.05469 12.0352 1.2832 11.5899 1.63477 11.3379C2.03906 11.0449 4.16602 9.97266 5.33203 9.47462C5.89453 9.23438 6.91406 8.84766 7.58789 8.61915L8.81836 8.20313L8.88867 9.5918C8.92383 10.3887 9.00586 11.3145 9.07617 11.7422ZM15.5039 22.0371C15.7031 22.1836 15.8086 22.2949 15.7793 22.3418C15.7559 22.3828 15.5391 22.6875 15.2988 23.0274C14.5195 24.1289 14.2441 24.3399 13.5938 24.3457C13.2305 24.3457 13.1426 24.3106 11.5898 23.6133C10.6934 23.2149 9.96094 22.8691 9.96094 22.8516C9.96094 22.834 10.4004 22.7813 10.9453 22.7402C12.4688 22.6289 13.5352 22.4063 14.4961 22.0078C14.7598 21.9024 15.0176 21.8086 15.0762 21.8027C15.1348 21.8027 15.3281 21.9024 15.5039 22.0371Z" fill="#0082E0"/>
<path d="M14.4258 7.61719C14.1855 7.68164 13.8281 7.81641 13.623 7.91602C13.2305 8.10938 12.5684 8.60742 12.5684 8.70703C12.5684 8.74219 12.7324 8.91797 12.9316 9.10547L13.3008 9.44531L13.5469 9.24023C14.2734 8.64844 15.2754 8.41992 16.1309 8.64258C16.5527 8.75391 16.875 8.91211 17.2793 9.21094L17.5898 9.44531L17.9355 9.10547C18.123 8.91797 18.2812 8.73047 18.2812 8.68945C18.2812 8.56641 17.6953 8.13867 17.1973 7.89844C16.3535 7.49414 15.3047 7.38867 14.4258 7.61719Z" fill="#0082E0"/>
<path d="M22.5583 7.58789C22.0544 7.69922 21.1931 8.13281 20.8298 8.45508C20.6716 8.60156 20.5485 8.72461 20.5661 8.73633C20.5837 8.74805 20.7595 8.91211 20.9528 9.09961L21.3103 9.44531L21.5915 9.22852C22.7693 8.33203 24.2458 8.33789 25.3591 9.24023C25.4939 9.35156 25.6286 9.43359 25.6579 9.42187C25.6814 9.41016 25.8571 9.24023 26.0388 9.04102L26.3669 8.68359L26.1208 8.4668C25.7341 8.13867 25.2712 7.875 24.7556 7.69922C24.1755 7.5 23.1735 7.45312 22.5583 7.58789Z" fill="#0082E0"/>
<path d="M13.6816 14.1328C13.4883 14.2324 13.418 14.3613 13.418 14.5957C13.418 14.7422 13.4648 14.8652 13.5527 14.9648C13.623 15.041 14.6602 15.9023 15.8496 16.875C18.4512 19.002 18.4688 19.0137 19.4531 19.0137C20.4375 19.0137 20.4551 19.002 23.0566 16.875C24.252 15.9023 25.2832 15.041 25.3594 14.9648C25.623 14.6719 25.4883 14.1797 25.1191 14.0918C25.043 14.0684 24.0996 14.2148 23.0215 14.4082C20.3027 14.9004 20.3203 14.9004 19.1895 14.8652C18.2754 14.8418 18.0176 14.8066 16.084 14.4492C14.9238 14.2383 13.9336 14.0625 13.8867 14.0625C13.8398 14.0625 13.7461 14.0977 13.6816 14.1328ZM17.0391 15.7031C18.8379 16.0312 20.0508 16.0312 21.8848 15.7031C22.4531 15.5977 22.9277 15.5273 22.9336 15.5391C22.9746 15.5801 20.291 17.7305 20.0449 17.8535C19.7227 18.0234 19.2305 18.0293 18.8965 17.877C18.7207 17.8008 16.5 16.0547 15.9727 15.5801C15.8848 15.5039 15.9727 15.5098 17.0391 15.7031Z" fill="#0082E0"/>
<path d="M6.94355 15.6973C6.21113 15.8965 5.68965 16.1777 5.17988 16.6523C4.91621 16.8926 4.35957 17.6191 4.40059 17.6602C4.4123 17.6719 4.62324 17.7891 4.86934 17.9238L5.30879 18.1641L5.60176 17.7949C5.92402 17.3906 6.43965 17.0156 6.95527 16.8105C7.23652 16.6992 7.40645 16.6758 7.93965 16.6758C8.51973 16.6699 8.6252 16.6875 8.96504 16.834C9.17598 16.9277 9.38691 17.0156 9.43379 17.0273C9.49824 17.0508 9.58613 16.9277 9.7502 16.5996C9.97285 16.1484 9.97285 16.1484 9.85566 16.0488C9.79121 16.002 9.51582 15.8848 9.24629 15.791C8.59004 15.5684 7.56465 15.5273 6.94355 15.6973Z" fill="#0082E0"/>
</g>
<defs>
<clipPath id="clip0_2048_10">
<rect width="30" height="30" fill="white"/>
</clipPath>
</defs>
</svg>
