<svg width="34" height="34" viewBox="0 0 34 34" fill="none" xmlns="http://www.w3.org/2000/svg">
<circle cx="25" cy="25" r="9" fill="#CCE5F6"/>
<g clip-path="url(#clip0_2048_12)">
<path d="M0.28125 0.0878985C0.193359 0.134773 0.09375 0.228523 0.0585938 0.292977C0.0292969 0.35157 0 0.773445 0 1.23048C0 2.02735 0.00585938 2.06251 0.140625 2.19727C0.410156 2.4668 0.767578 2.46095 1.04297 2.18555C1.16016 2.06837 1.24805 2.03321 1.39453 2.04493C1.64063 2.06251 1.86328 1.92188 1.96289 1.67579C2.09766 1.35352 1.99805 1.14259 1.41797 0.568367C0.972656 0.128914 0.861328 0.0468829 0.667969 0.0234454C0.527344 0.00586724 0.380859 0.0351641 0.28125 0.0878985Z" fill="#0082E0"/>
<path d="M2.81244 2.46683C2.4726 2.60159 2.32025 2.9473 2.46088 3.28128C2.65424 3.75003 3.32807 3.75589 3.55072 3.293C3.77924 2.81253 3.29877 2.27933 2.81244 2.46683Z" fill="#0082E0"/>
<path d="M0.351106 3.63866C-0.0121753 3.77929 -0.129363 4.33007 0.140168 4.5996C0.532747 4.99218 1.17142 4.7578 1.17142 4.21874C1.17142 3.92577 1.04251 3.7207 0.808137 3.63866C0.59134 3.56249 0.544465 3.56249 0.351106 3.63866Z" fill="#0082E0"/>
<path d="M4.2007 4.18361C4.00734 4.36525 3.94289 4.6758 4.06008 4.89846C4.11281 4.99221 4.54054 5.4551 5.02101 5.92385C5.92336 6.82033 6.08742 6.91994 6.39797 6.80275C6.66164 6.70315 6.7964 6.50979 6.7964 6.21682C6.7964 5.959 6.79054 5.95315 5.84133 4.99807L4.89211 4.04299H4.62258C4.4175 4.04299 4.31789 4.07815 4.2007 4.18361Z" fill="#0082E0"/>
<path d="M0.351562 6.04102C0.0117188 6.17578 0 6.22852 0 7.81055V9.26953L0.169922 9.43945C0.304688 9.57422 0.392578 9.60938 0.585938 9.60938C0.779297 9.60938 0.867188 9.57422 1.00195 9.43945L1.17188 9.26953V7.82227C1.17188 6.23438 1.16016 6.16406 0.808594 6.04102C0.591797 5.96484 0.544922 5.96484 0.351562 6.04102Z" fill="#0082E0"/>
<path d="M7.48828 7.30079C7.27734 7.41212 7.20703 7.55275 7.20703 7.85158C7.20703 8.5254 8.19141 8.64845 8.36719 7.99806C8.51953 7.459 7.97461 7.03126 7.48828 7.30079Z" fill="#0082E0"/>
<path d="M9.10547 8.88281C8.88867 8.98828 8.78906 9.18164 8.78906 9.47461C8.78906 9.66797 8.86523 9.76172 9.74414 10.6465L10.6934 11.6016H10.9629C11.3965 11.6016 11.6777 11.2559 11.5723 10.8516C11.5254 10.6523 9.88477 8.98242 9.62695 8.87109C9.39258 8.77148 9.33398 8.77148 9.10547 8.88281Z" fill="#0082E0"/>
<path d="M0.427284 10.8223C-0.000450819 10.9043 -0.152795 11.5195 0.169471 11.8418C0.55619 12.2227 1.17142 11.959 1.17142 11.4082C1.17142 11.2031 1.13627 11.1152 1.01908 10.9922C0.93119 10.9102 0.831581 10.8399 0.784706 10.8399C0.74369 10.8399 0.679237 10.8281 0.632362 10.8164C0.591346 10.8047 0.497596 10.8106 0.427284 10.8223Z" fill="#0082E0"/>
<path d="M12.1699 12.1641C11.6953 12.6328 12.1875 13.4121 12.7969 13.1601C13.2129 12.9844 13.3183 12.5156 13.0137 12.1933C12.7851 11.9473 12.3984 11.9355 12.1699 12.1641Z" fill="#0082E0"/>
<path d="M0.427734 13.2246C0.357422 13.2363 0.234375 13.3184 0.152344 13.4004L0 13.5527V15.0293V16.5059L0.152344 16.6641C0.375 16.8809 0.796875 16.8809 1.01953 16.6641L1.17188 16.5059V15.0293V13.5527L1.01953 13.3945C0.931641 13.3125 0.832031 13.2422 0.785156 13.2422C0.744141 13.2422 0.679688 13.2305 0.632812 13.2188C0.591797 13.207 0.498047 13.2129 0.427734 13.2246Z" fill="#0082E0"/>
<path d="M22.1719 13.3242C22.0664 13.4063 22.0605 13.5117 22.043 16.043L22.0254 18.6797L22.1836 18.8027C22.4121 18.9844 22.7109 18.9668 22.8984 18.7617L23.0508 18.5918L23.3379 18.7734C23.5781 18.9199 23.6895 18.9551 23.9883 18.9551C24.4453 18.9551 24.7383 18.8145 24.9961 18.4629C25.2773 18.0703 25.3887 17.5957 25.3594 16.9219C25.3301 16.3301 25.2305 16.0605 24.8965 15.6797C24.5273 15.252 23.7363 15.1582 23.3086 15.4922L23.0918 15.6504L23.0742 14.5605C23.0566 13.4941 23.0508 13.4648 22.916 13.3535C22.752 13.2188 22.3418 13.2012 22.1719 13.3242ZM23.959 16.2539C24.2461 16.4063 24.3164 16.582 24.3164 17.1328C24.3164 17.6074 24.3047 17.6426 24.1348 17.8418C23.8887 18.1172 23.5957 18.1289 23.291 17.8652L23.0859 17.6836V17.1563C23.0859 16.5703 23.127 16.4473 23.3965 16.2891C23.6191 16.1484 23.7422 16.1426 23.959 16.2539Z" fill="#0082E0"/>
<path d="M13.7984 13.7227C13.4761 14.0098 13.5113 14.4258 13.8863 14.7949L14.1207 15.0293L7.64019 21.5098L1.15386 27.9961L1.04253 27.8613C0.831593 27.5918 0.29253 27.6211 0.0874523 27.9141C-0.041454 28.0957 -0.0355946 29.5957 0.0933116 29.7949L0.187062 29.9414H15.0054H29.8179L29.9058 29.8125C29.9585 29.7422 29.9996 29.5605 29.9996 29.4141V29.1504L22.3121 21.457C18.0816 17.2266 14.5484 13.7227 14.4605 13.6758C14.232 13.5527 13.9742 13.5762 13.7984 13.7227ZM21.4742 22.3828L27.9195 28.8281H17.0386H6.15776L6.09917 28.4883C5.94097 27.668 5.65386 26.9531 5.19683 26.2852L4.96831 25.9395L9.96636 20.9414C12.7203 18.1875 14.982 15.9375 14.9996 15.9375C15.0171 15.9375 17.9292 18.8379 21.4742 22.3828ZM4.26519 27.1113C4.4937 27.4746 4.72808 28.0312 4.82769 28.4766L4.90972 28.8281H3.49761H2.07964L3.07573 27.832C3.62066 27.2871 4.07183 26.8359 4.07769 26.8359C4.08355 26.8359 4.16558 26.959 4.26519 27.1113Z" fill="#0082E0"/>
<path d="M15.5391 23.8594C14.959 23.9473 14.543 24.2637 14.3555 24.7617C14.2676 25.0078 14.2383 25.2188 14.2383 25.6875C14.2383 26.6133 14.4258 27.0117 15.0059 27.334C15.293 27.4922 15.3691 27.5098 15.8789 27.5098C16.3301 27.5098 16.4883 27.4863 16.7109 27.3809C17.0508 27.2227 17.209 26.959 17.1152 26.7012C17.0156 26.4434 16.8105 26.3848 16.4648 26.5078C15.9492 26.6895 15.5039 26.6191 15.3457 26.3262C15.293 26.2266 15.2637 25.9863 15.2637 25.6641C15.2637 25.0547 15.3516 24.8848 15.709 24.7734C15.9141 24.7148 15.9961 24.7207 16.2305 24.8027C16.6348 24.9492 16.8457 24.9316 16.9863 24.75C17.1504 24.5391 17.1445 24.3047 16.9629 24.123C16.7344 23.9004 16.0723 23.7715 15.5391 23.8594Z" fill="#0082E0"/>
<path d="M5.24414 15.2989C4.88086 15.3457 4.57617 15.4746 4.42969 15.6387C4.33594 15.7442 4.32422 15.8028 4.37109 15.9785C4.44727 16.2715 4.56445 16.3301 4.875 16.2422C5.33789 16.1016 5.53711 16.0782 5.72461 16.125C5.95312 16.1836 6.15234 16.4239 6.15234 16.6407C6.15234 16.793 6.15234 16.793 5.53125 16.8574C4.5 16.9688 4.14258 17.2442 4.14258 17.9239C4.14258 18.3809 4.3125 18.7032 4.64648 18.8614C5.12109 19.0899 5.58398 19.002 6.0293 18.6035L6.26953 18.3867V18.5625C6.26953 18.8731 6.63867 19.0196 7.00195 18.8555C7.08398 18.8203 7.16602 18.7324 7.18359 18.6563C7.20117 18.586 7.20703 18.0176 7.19531 17.3907L7.17773 16.2481L7.00195 15.961C6.90234 15.8028 6.73242 15.6153 6.62695 15.545C6.29883 15.3223 5.75977 15.2285 5.24414 15.2989ZM6.15234 17.5254C6.15234 17.7012 5.98828 17.959 5.80078 18.0703C5.58398 18.1934 5.41406 18.1875 5.27344 18.0469C4.95117 17.7246 5.26758 17.4317 5.96484 17.4082C6.11719 17.4024 6.15234 17.4258 6.15234 17.5254Z" fill="#0082E0"/>
<path d="M0.169694 18.2168C-0.0588219 18.4512 -0.0705407 18.8379 0.146256 19.0606C0.544694 19.4531 1.17165 19.2012 1.17165 18.6504C1.17165 18.2871 0.937272 18.0469 0.585709 18.0469C0.39235 18.0469 0.304459 18.082 0.169694 18.2168Z" fill="#0082E0"/>
<path d="M0.169922 20.6191L0 20.7891V22.2363C0 23.8418 0.0117188 23.9004 0.386719 24.0234C0.533203 24.0762 0.638672 24.0762 0.785156 24.0234C1.16016 23.9004 1.17188 23.8418 1.17188 22.2363V20.7891L1.00195 20.6191C0.867188 20.4844 0.779297 20.4492 0.585938 20.4492C0.392578 20.4492 0.304688 20.4844 0.169922 20.6191Z" fill="#0082E0"/>
<path d="M0.28125 25.3476C0.0761719 25.4531 0 25.5996 0 25.8691C0 26.2969 0.375 26.5605 0.785156 26.4258C1.03125 26.3437 1.17188 26.1445 1.17188 25.8691C1.17188 25.5937 1.08984 25.4531 0.878906 25.3418C0.667969 25.2305 0.486328 25.2305 0.28125 25.3476Z" fill="#0082E0"/>
</g>
<defs>
<clipPath id="clip0_2048_12">
<rect width="30" height="29.9414" fill="white"/>
</clipPath>
</defs>
</svg>
