<svg width="34" height="34" viewBox="0 0 34 34" fill="none" xmlns="http://www.w3.org/2000/svg">
<circle cx="25" cy="25" r="9" fill="#CCE5F6"/>
<path d="M4.80467 0.09375C3.64452 0.392578 2.56639 1.33008 2.12694 2.41992C1.68163 3.50977 1.7285 4.62891 2.26171 5.73047C3.10546 7.48242 5.23241 8.34375 7.10741 7.69336L7.61717 7.51172V15.3574V23.2031H7.20116C6.8203 23.2031 6.77342 23.2148 6.61522 23.373L6.4453 23.543V24.6035V25.6582L5.32616 25.6758L4.20702 25.6934L4.0371 25.8867L3.86717 26.0742V27.8672V29.6602L4.0371 29.8301L4.20702 30H15H25.793L25.9629 29.8301L26.1328 29.6602V27.8672V26.0742L25.9629 25.8867L25.793 25.6934L24.6738 25.6758L23.5547 25.6582V24.6035V23.543L23.3848 23.373C23.2265 23.2148 23.1797 23.2031 22.7988 23.2031H22.3828V15.3574V7.51172L22.8984 7.69336C24.8379 8.36719 26.9883 7.43555 27.8262 5.55469C28.6875 3.62695 27.8672 1.33008 25.9922 0.410156C25.0898 -0.0292969 25.9277 0 14.9707 0.00585938C6.6035 0.00585938 5.08006 0.0175781 4.80467 0.09375ZM25.0019 1.32422C26.3086 1.77539 27.123 3.07617 26.9062 4.35352C26.5195 6.58008 23.8535 7.44727 22.2656 5.85938C21.6445 5.23828 21.4043 4.56445 21.4746 3.62109L21.5156 3.04688L21.3398 2.87109L21.164 2.69531H15.0058H8.8535L8.68944 2.83594L8.52538 2.97656V3.76172C8.51952 4.62305 8.45506 4.875 8.08592 5.44922C7.61131 6.18164 6.69139 6.67969 5.80077 6.67969C4.14842 6.67969 2.81249 5.11523 3.0996 3.52148C3.31639 2.29688 4.25389 1.40039 5.4785 1.23047C5.67186 1.20703 10.0605 1.18945 15.2344 1.19531L24.6387 1.20117L25.0019 1.32422ZM20.2383 4.3125C20.2851 4.9043 20.543 5.63086 20.8769 6.14062C21.0293 6.36328 21.1523 6.58008 21.1523 6.61523C21.1523 6.66211 19.4883 6.67969 15 6.67969C10.5117 6.67969 8.84764 6.66211 8.84764 6.61523C8.84764 6.58008 8.97069 6.36328 9.12303 6.14062C9.45702 5.63086 9.71483 4.9043 9.76171 4.3125L9.80272 3.86719H15H20.1973L20.2383 4.3125ZM21.1523 15.5566V23.2031H20.4785H19.8047V16.9336C19.8047 10.2188 19.8105 10.3535 19.5234 10.2012C19.4414 10.1602 18.8437 10.1367 17.8242 10.1367H16.248L16.1015 10.2832C16.0195 10.3652 15.9375 10.5117 15.914 10.6113C15.8965 10.7168 15.8789 13.5879 15.8789 16.998V23.2031H15H14.1211V16.998C14.1211 13.5879 14.1035 10.7168 14.0859 10.6113C14.0625 10.5117 13.9805 10.3652 13.8984 10.2832L13.7519 10.1367H12.1758C11.1562 10.1367 10.5586 10.1602 10.4765 10.2012C10.1894 10.3535 10.1953 10.2188 10.1953 16.9336V23.2031H9.52147H8.84764V15.5566V7.91016H15H21.1523V15.5566ZM12.8906 17.2559V23.2031H12.1582H11.4258V17.2559V11.3086H12.1582H12.8906V17.2559ZM18.5742 17.2559V23.2031H17.8418H17.1094V17.2559V11.3086H17.8418H18.5742V17.2559ZM22.3242 25.0195V25.6641H15H7.67577V25.0195V24.375H15H22.3242V25.0195ZM24.9023 27.8613V28.8281H15H5.09764V27.8613V26.8945H15H24.9023V27.8613Z" fill="#0082E0"/>
<path d="M5.23248 3.41016C4.8985 3.57422 4.83991 4.125 5.13287 4.40039C5.26178 4.52344 5.33795 4.54102 5.72467 4.54102C6.14655 4.54102 6.16998 4.53516 6.33405 4.34766C6.52741 4.13086 6.55084 3.89648 6.41608 3.63281C6.3692 3.53906 6.27545 3.43359 6.21686 3.39844C6.07037 3.32227 5.40241 3.32812 5.23248 3.41016Z" fill="#0082E0"/>
<path d="M23.7715 3.4043C23.6309 3.48633 23.4961 3.76758 23.4961 3.97852C23.4961 4.0957 23.5605 4.22461 23.666 4.34766C23.8301 4.53516 23.8535 4.54102 24.2754 4.54102C24.6621 4.54102 24.7383 4.52344 24.8672 4.40039C25.166 4.11914 25.1016 3.56836 24.75 3.4043C24.5684 3.32227 23.9121 3.32227 23.7715 3.4043Z" fill="#0082E0"/>
</svg>
