<svg width="34" height="34" viewBox="0 0 34 34" fill="none" xmlns="http://www.w3.org/2000/svg">
<circle cx="25" cy="25" r="9" fill="#CCE5F6"/>
<path d="M7.90447 4.40625C7.18962 4.76367 6.54509 5.56641 6.29314 6.41602C6.17009 6.83203 6.15251 7.75195 6.26384 8.13281L6.33416 8.38476L6.02947 8.73633L5.72478 9.08789L5.60173 8.71875C5.34978 7.96875 4.80486 7.29492 4.16033 6.92578C3.6447 6.62695 3.39275 6.69141 3.1408 7.20117C2.88298 7.69922 2.78923 8.13281 2.78923 8.75976C2.79509 9.76172 3.0822 10.4648 3.79119 11.1797L4.21306 11.6016L4.049 12.0176L3.88494 12.4336L3.76189 12.2344C3.59197 11.9648 3.19939 11.5898 2.81267 11.3437C2.42595 11.0918 2.13298 11.0625 1.95134 11.2617C1.47673 11.7832 1.24236 13.0605 1.45916 13.9453C1.65837 14.748 2.12712 15.4277 2.81267 15.9082L3.28142 16.2422V16.7578V17.2734L2.97087 17.1035C2.56658 16.8867 2.05681 16.7578 1.59978 16.7578C1.30681 16.7578 1.2072 16.7812 1.0783 16.8926C0.931812 17.0215 0.920093 17.0566 0.925952 17.4961C0.94353 18.375 1.24822 19.1602 1.81658 19.7637C2.37322 20.3613 3.01189 20.6777 3.82634 20.7715L4.16619 20.8125L4.4533 21.3926C4.61736 21.709 4.74626 21.9844 4.74626 22.002C4.74626 22.0195 4.51189 22.0312 4.23064 22.0312C3.30486 22.0312 2.45525 22.3945 2.31462 22.8398C2.19744 23.2324 3.12908 24.3574 3.86736 24.7148C4.67595 25.1133 5.549 25.166 6.42791 24.873L6.87322 24.7207L7.20134 25.0078C7.89861 25.6055 8.2033 25.8047 8.42595 25.7988C8.77165 25.7871 8.99431 25.4414 8.87126 25.1133C8.85369 25.0605 8.61345 24.8496 8.34392 24.6387C6.36345 23.0859 5.00994 20.8828 4.44158 18.2812C4.32439 17.7363 4.31267 17.502 4.31267 16.2305C4.31267 14.959 4.32439 14.7246 4.44158 14.1855C4.83416 12.4043 5.57244 10.8809 6.71501 9.5039C7.049 9.09375 7.18962 8.97656 7.52947 8.80664C8.56658 8.27929 9.25798 7.11914 9.25798 5.88867C9.25798 5.20312 8.99431 4.34766 8.75994 4.25391C8.549 4.17773 8.26189 4.22461 7.90447 4.40625ZM8.24431 6.04688C8.22087 6.4043 8.174 6.59766 8.03337 6.87891C7.87517 7.20117 7.37126 7.79297 7.25994 7.79297C7.17205 7.79297 7.13689 7.2832 7.20134 6.95508C7.28923 6.46875 7.51775 6.03516 7.86345 5.68945C8.12712 5.42578 8.174 5.39648 8.22087 5.48438C8.25017 5.53711 8.26189 5.79492 8.24431 6.04688ZM4.50017 8.72461C4.79314 9.28125 4.87517 10.0137 4.69353 10.5C4.64666 10.6348 4.6408 10.6348 4.424 10.4004C3.93767 9.87891 3.68572 9.04687 3.80876 8.36133L3.87908 7.95703L4.10173 8.17383C4.22478 8.29687 4.40642 8.54297 4.50017 8.72461ZM2.90056 12.7734C3.31072 13.3359 3.47478 14.0273 3.34001 14.6719L3.2697 15.0117L3.04119 14.7891C2.54314 14.3027 2.27947 13.459 2.40251 12.7617C2.46697 12.4043 2.48455 12.3691 2.5783 12.4219C2.63689 12.4512 2.78337 12.6094 2.90056 12.7734ZM2.44353 17.959C2.99431 18.2344 3.52166 18.9316 3.66228 19.5586C3.7033 19.7461 3.69744 19.7578 3.56853 19.7168C3.22869 19.6172 2.87712 19.4062 2.61931 19.1484C2.34978 18.8789 2.05095 18.334 1.96892 17.9707C1.92205 17.7656 2.03923 17.7598 2.44353 17.959ZM4.92205 23.0977C5.03337 23.1328 5.22087 23.209 5.3322 23.2617C5.56072 23.3789 6.09392 23.8301 6.09392 23.9062C6.09392 23.9941 5.43181 24.0937 5.09783 24.0586C4.68181 24.0117 4.0197 23.6895 3.72673 23.3848C3.47478 23.127 3.47478 23.1211 3.92595 23.0332C4.21306 22.9746 4.59978 23.0039 4.92205 23.0977Z" fill="#0082E0"/>
<path d="M21.2229 4.25977C21.1116 4.30664 20.9299 4.69922 20.8303 5.10938C20.4846 6.58008 21.1878 8.15625 22.4768 8.80664C22.8401 8.98828 22.9514 9.08789 23.3323 9.5625C24.4924 10.9922 25.1721 12.4102 25.5588 14.1797C25.676 14.7246 25.6878 14.959 25.6878 16.2305C25.6878 17.502 25.676 17.7363 25.5588 18.2812C24.9905 20.8828 23.637 23.0859 21.6565 24.6387C21.387 24.8496 21.1467 25.0605 21.1292 25.1133C21.0061 25.4414 21.2288 25.7871 21.5745 25.7988C21.7971 25.8047 22.1018 25.6055 22.7991 25.0078L23.1272 24.7207L23.5725 24.873C24.4514 25.166 25.3245 25.1133 26.1331 24.7148C26.8713 24.3574 27.803 23.2324 27.6858 22.8398C27.5452 22.3945 26.6956 22.0312 25.7698 22.0312C25.4885 22.0312 25.2542 22.0195 25.2542 22.0078C25.2542 21.9902 25.3831 21.7148 25.5471 21.3926L25.8401 20.8066L26.1741 20.7715C26.9885 20.6777 27.6272 20.3555 28.1838 19.7637C28.7581 19.1543 29.0628 18.3574 29.0628 17.4844C29.0628 17.0332 29.051 16.9922 28.9104 16.8809C28.6057 16.6406 27.6741 16.7578 27.0295 17.1035L26.719 17.2734V16.7578V16.2422L27.1819 15.9199C27.6506 15.5859 27.8616 15.3633 28.1721 14.8535C28.7229 13.9512 28.7698 12.5918 28.2893 11.6309C28.1018 11.2617 27.9553 11.1328 27.721 11.1328C27.3635 11.1328 26.5432 11.748 26.2385 12.2402L26.1155 12.4395L25.9456 12.0176L25.7815 11.6016L26.1799 11.2031C26.8948 10.5 27.1995 9.77929 27.2053 8.78906C27.2112 8.12695 27.1233 7.71094 26.8596 7.20117C26.6077 6.69141 26.3557 6.62695 25.8401 6.92578C25.1956 7.29492 24.6506 7.96875 24.3987 8.71875L24.2756 9.08789L23.971 8.73633L23.6663 8.38476L23.7366 8.13281C23.8479 7.75195 23.8303 6.83203 23.7073 6.41602C23.5432 5.85938 23.262 5.39062 22.8518 4.97461C22.2835 4.40625 21.6038 4.10742 21.2229 4.25977ZM22.301 5.85938C22.5061 6.08203 22.7288 6.58594 22.7991 6.95508C22.8635 7.2832 22.8284 7.79297 22.7405 7.79297C22.6292 7.79297 22.1253 7.20117 21.967 6.88477C21.7854 6.50977 21.6858 5.85352 21.762 5.53711L21.803 5.37305L21.9846 5.54297C22.0842 5.63672 22.2307 5.77734 22.301 5.85938ZM26.2034 9.04101C26.1272 9.5332 25.8694 10.0957 25.5764 10.3945C25.3538 10.6172 25.3479 10.6172 25.301 10.4883C25.0491 9.81445 25.2893 8.83594 25.8577 8.2207L26.1038 7.95117L26.1799 8.29687C26.2444 8.56054 26.2503 8.73633 26.2034 9.04101ZM27.6096 13.4414C27.5335 13.9336 27.2698 14.4844 26.9651 14.7891L26.7307 15.0117L26.6663 14.7129C26.4963 13.9277 26.7249 13.1367 27.2874 12.5566L27.5042 12.334L27.5862 12.6855C27.6506 12.9609 27.6565 13.125 27.6096 13.4414ZM28.0315 17.9707C27.9495 18.334 27.6506 18.8789 27.3811 19.1484C27.1233 19.4062 26.7717 19.6172 26.4319 19.7168C26.303 19.7578 26.2971 19.7461 26.3381 19.5586C26.4788 18.9316 27.0061 18.2344 27.5569 17.959C27.9612 17.7598 28.0784 17.7656 28.0315 17.9707ZM26.051 23.0332C26.2385 23.0684 26.4202 23.1152 26.4436 23.1387C26.5198 23.2148 25.969 23.6719 25.5881 23.8535C25.3889 23.9414 25.0784 24.0352 24.9026 24.0586C24.5686 24.0937 23.9065 23.9941 23.9065 23.9062C23.9065 23.8066 24.469 23.3613 24.7737 23.2207C24.9436 23.1387 25.2073 23.0566 25.3596 23.0273C25.512 23.0039 25.6526 22.9805 25.6702 22.9746C25.6878 22.9746 25.8577 22.998 26.051 23.0332Z" fill="#0082E0"/>
<path d="M13.5996 8.0625C12.6094 8.22656 11.3906 8.72461 10.5176 9.31641C8.73633 10.5293 7.48828 12.457 7.125 14.5605C7.00195 15.252 7.00195 16.623 7.125 17.3145C7.69336 20.6133 10.377 23.2852 13.6523 23.8184C14.3672 23.9297 15.6328 23.9297 16.3477 23.8184C19.6289 23.2852 22.3477 20.5664 22.8809 17.2852C22.9922 16.5703 22.9922 15.3047 22.8809 14.5898C22.3477 11.3027 19.6348 8.58984 16.3477 8.05664C15.6621 7.94531 14.2734 7.95117 13.5996 8.0625ZM14.502 11.6484C14.4141 11.7363 12.6562 11.3145 12.6562 11.2031C12.6562 11.1152 13.0898 10.3301 13.2715 10.0781C13.5527 9.70312 13.9922 9.28711 14.2676 9.15234L14.502 9.03516L14.5195 10.3242C14.5254 11.0391 14.5195 11.6309 14.502 11.6484ZM16.4297 9.73242C16.7578 10.0898 17.2207 10.8105 17.3086 11.1152C17.3437 11.2266 17.3086 11.25 16.9805 11.3613C16.6055 11.4844 15.791 11.6602 15.5801 11.6602C15.4746 11.6602 15.4687 11.6016 15.4687 10.3359V9.01758L15.7676 9.18164C15.9316 9.26953 16.2305 9.51562 16.4297 9.73242ZM12.3164 9.67969C12.2227 9.82031 12.0586 10.1016 11.9531 10.3125C11.8477 10.5234 11.7539 10.7051 11.7422 10.7168C11.7187 10.7461 11.1621 10.3887 11.0742 10.2832C11.0273 10.2246 11.0508 10.1777 11.1855 10.0781C11.3789 9.94336 12.3633 9.43945 12.4395 9.43359C12.4629 9.43359 12.4102 9.54492 12.3164 9.67969ZM18.1172 9.69727C18.832 10.0547 19.0078 10.1836 18.9258 10.2832C18.8379 10.3887 18.2812 10.7461 18.2578 10.7168C18.2461 10.7051 18.1641 10.5469 18.0762 10.3711C17.9883 10.1953 17.8242 9.9082 17.7187 9.73828C17.6074 9.57422 17.5371 9.43359 17.5488 9.43359C17.5664 9.43359 17.8242 9.55078 18.1172 9.69727ZM10.6758 11.25C10.9453 11.4434 11.209 11.6309 11.2617 11.6719C11.3555 11.7422 11.3555 11.7832 11.2148 12.2754C11.0273 12.9727 10.8516 14.0566 10.8047 14.8359L10.7637 15.4688H9.39258H8.01562L8.05664 15.0996C8.18555 13.9512 8.75391 12.5801 9.48047 11.6602C9.68555 11.4023 10.1426 10.8984 10.1777 10.8984C10.1895 10.8984 10.4121 11.0566 10.6758 11.25ZM20.127 11.2031C21.1289 12.3164 21.7852 13.7227 21.9434 15.0996L21.9844 15.4688H20.6074H19.2363L19.1953 14.8359C19.1484 14.0566 18.9727 12.9727 18.7852 12.2754C18.6445 11.7832 18.6445 11.7422 18.7383 11.6719C19.4648 11.1328 19.7812 10.9043 19.8164 10.9043C19.834 10.8984 19.9746 11.0391 20.127 11.2031ZM12.9668 12.3867C13.2539 12.4688 13.7227 12.5684 14.0098 12.6094L14.5312 12.6797V14.0742V15.4688H13.1426H11.7598L11.7949 14.8945C11.8418 14.209 11.9707 13.3945 12.1406 12.6973C12.2402 12.2871 12.2871 12.1875 12.3574 12.2051C12.4102 12.2227 12.6855 12.2988 12.9668 12.3867ZM17.8945 12.873C18.0703 13.6406 18.2227 14.6895 18.2227 15.1582V15.4688H16.8457H15.4687V14.0625V12.6562H15.6094C15.8789 12.6562 16.7461 12.4805 17.1738 12.3398C17.4141 12.2637 17.6367 12.1992 17.6719 12.1934C17.707 12.1875 17.8066 12.498 17.8945 12.873ZM10.8047 17.0391C10.8516 17.8184 11.0273 18.9023 11.2148 19.5996C11.3555 20.0918 11.3555 20.1328 11.2617 20.2031C11.209 20.2441 10.9395 20.4375 10.6641 20.6367L10.1719 20.9941L9.88477 20.6836C8.88867 19.5996 8.21484 18.1523 8.05664 16.7695L8.01562 16.4062H9.39258H10.7637L10.8047 17.0391ZM14.5312 17.8008V19.1953L14.0098 19.2656C13.7227 19.3066 13.2539 19.4062 12.9668 19.4883C12.6855 19.5762 12.4102 19.6523 12.3574 19.6699C12.2871 19.6875 12.2402 19.5879 12.1406 19.1777C11.9707 18.4805 11.8418 17.666 11.7949 16.9746L11.7598 16.4062H13.1426H14.5312V17.8008ZM18.2051 16.9746C18.1582 17.666 18.0293 18.4805 17.8594 19.1777C17.7598 19.5879 17.7129 19.6875 17.6426 19.6699C17.5898 19.6523 17.3145 19.5762 17.0332 19.4883C16.7461 19.4062 16.2773 19.3066 15.9902 19.2656L15.4687 19.1953V17.8008V16.4062H16.8574H18.2402L18.2051 16.9746ZM21.9434 16.7695C21.7852 18.1523 21.1113 19.5996 20.1152 20.6836L19.8281 20.9941L19.3359 20.6367C19.0605 20.4375 18.791 20.2441 18.7383 20.2031C18.6445 20.1328 18.6445 20.0918 18.7852 19.5996C18.9727 18.9023 19.1484 17.8184 19.1953 17.0391L19.2363 16.4062H20.6074H21.9844L21.9434 16.7695ZM14.5312 21.5332V22.8516L14.291 22.7285C13.9922 22.582 13.541 22.166 13.2715 21.8027C13.0898 21.5508 12.6562 20.7598 12.6562 20.6719C12.6562 20.5781 13.9512 20.2324 14.373 20.2207L14.5312 20.2148V21.5332ZM16.1484 20.3027C16.6582 20.4023 17.3437 20.6133 17.3437 20.6719C17.3437 20.7598 16.9102 21.5508 16.7285 21.8027C16.459 22.166 16.0078 22.582 15.709 22.7285L15.4687 22.8516V21.5332C15.4687 20.0156 15.3926 20.1562 16.1484 20.3027ZM11.9004 21.457C11.9766 21.627 12.1406 21.9141 12.2578 22.1016C12.3809 22.2891 12.4629 22.4414 12.4453 22.4414C12.3867 22.4414 11.3437 21.9023 11.1797 21.791C11.0918 21.7266 11.0273 21.6445 11.0508 21.6152C11.0859 21.5508 11.6719 21.1523 11.7246 21.1523C11.7422 21.1523 11.8184 21.2871 11.9004 21.457ZM18.5801 21.334C18.9961 21.5977 19.0195 21.6445 18.8203 21.791C18.6621 21.9023 17.6133 22.4414 17.5547 22.4414C17.543 22.4414 17.6543 22.2363 17.8066 21.9785C17.959 21.7266 18.1172 21.4395 18.1582 21.334C18.2051 21.2344 18.252 21.1523 18.2695 21.1523C18.2871 21.1523 18.4277 21.2344 18.5801 21.334Z" fill="#0082E0"/>
</svg>
