<svg width="34" height="34" viewBox="0 0 34 34" fill="none" xmlns="http://www.w3.org/2000/svg">
<circle cx="25" cy="25" r="9" fill="#CCE5F6"/>
<g clip-path="url(#clip0_2048_13)">
<path d="M14.0332 0.111317C12.9727 0.416004 12.0938 1.24804 11.707 2.3203C11.5371 2.80663 11.4961 3.76171 11.6309 4.27147C11.8359 5.06249 12.3691 5.8535 12.9902 6.27538L13.2422 6.45116V7.03124C13.2422 7.60546 13.2422 7.61718 13.1074 7.61718C12.7676 7.61718 12.3457 7.42968 12.0762 7.16014C11.8301 6.91405 11.7832 6.82616 11.6367 6.29882C11.5488 5.97655 11.4082 5.58983 11.3262 5.43749C11.1387 5.09764 10.6055 4.5703 10.2598 4.39452C9.70312 4.11327 9.5918 4.10155 7.29492 4.10155C4.37695 4.09569 4.25391 4.08397 2.25586 3.57421C0.492188 3.12304 0.398438 3.11718 0.140625 3.36913C0.0175781 3.49218 0 3.56249 0 3.94335C0 4.50585 0.0878906 4.96288 0.298828 5.51366C0.474609 5.96483 0.832031 6.58007 1.08398 6.85546C1.17773 6.96093 1.22461 7.10741 1.25391 7.37108C1.30664 7.95116 1.44727 8.41991 1.74023 9.01757C1.96289 9.46288 2.11523 9.67382 2.54883 10.1308C2.8418 10.4414 3.21094 10.8633 3.36914 11.0742C4.83984 13.0312 6.87305 14.0215 9.19922 13.9277C10.5996 13.8633 11.8242 13.4414 12.873 12.6504C13.043 12.5273 13.1953 12.4219 13.2129 12.4219C13.2305 12.4219 13.2422 12.8672 13.2422 13.418V14.4141H12.7031C12.0059 14.4141 11.5312 14.5312 10.9336 14.8359C9.4043 15.6269 8.5957 17.4492 9.01758 19.1133C9.15234 19.6465 9.38086 20.1152 9.5625 20.2383C9.74414 20.3672 10.1367 20.3555 10.3066 20.2148C10.5469 20.0156 10.5645 19.7344 10.3652 19.2422C9.89648 18.0644 10.2188 16.8633 11.2031 16.1367C11.6191 15.832 12.1172 15.6621 12.7617 15.6094L13.2422 15.5683V18.1875V20.8008H12.4277C11.4844 20.8008 11.1152 20.8594 10.6348 21.0879C9.66797 21.539 9.07617 22.4824 9.06445 23.584C9.05273 24.873 9.77344 25.8926 10.998 26.3144C11.2734 26.4082 11.4902 26.4258 12.3926 26.4258H13.459L13.5645 26.9121C13.8281 28.1308 14.3848 29.6894 14.6309 29.8828C14.8535 30.0527 15.2344 30.041 15.4219 29.8535C15.6738 29.6015 16.3125 27.6973 16.5 26.6367L16.541 26.4082L16.998 26.4433C17.6777 26.4961 18.0469 26.7246 18.252 27.1992C18.5566 27.9433 18.0645 28.6758 17.1738 28.7988C16.5527 28.8808 16.3184 29.4433 16.7285 29.8594C16.8457 29.9765 16.9277 30 17.2383 30C18.1641 30 18.9375 29.4844 19.3594 28.5996C19.5234 28.248 19.541 28.1601 19.541 27.6269C19.541 27.0937 19.5234 27.0058 19.3594 26.6543C18.9199 25.7344 18.1641 25.2539 17.1445 25.2539H16.6875L16.7227 25.0723C16.7402 24.9726 16.7578 24.2461 16.7578 23.4668V22.0488L17.3027 22.0137C18.334 21.9433 19.1484 21.5859 19.8398 20.8945C21.832 18.9023 21.082 15.5976 18.4102 14.6016C18.1172 14.4902 17.8652 14.4492 17.3906 14.4258L16.7578 14.3965V13.4121C16.7578 12.8672 16.7695 12.4219 16.7871 12.4219C16.8047 12.4219 16.957 12.5273 17.127 12.6504C18.7969 13.9101 21.1055 14.2793 23.1738 13.6172C24.5039 13.1894 25.6992 12.3164 26.6309 11.0742C26.7891 10.8633 27.1582 10.4414 27.4512 10.1308C27.8848 9.67382 28.0371 9.46288 28.2598 9.01757C28.5527 8.42577 28.6875 7.95702 28.752 7.37108C28.7812 7.07811 28.8223 6.96093 28.9688 6.78514C29.6016 6.041 29.9941 4.95702 30 3.96679C30 3.56249 29.9824 3.49218 29.8594 3.36913C29.6016 3.11718 29.5078 3.12304 27.7441 3.57421C25.7461 4.08397 25.623 4.09569 22.7051 4.10155C20.3613 4.10155 20.2676 4.11327 19.6816 4.42968C19.3418 4.61718 18.8145 5.15038 18.6445 5.49022C18.5742 5.61913 18.4453 5.98827 18.3574 6.30468C18.2168 6.82616 18.1699 6.91405 17.9238 7.16014C17.6543 7.42968 17.2324 7.61718 16.8926 7.61718C16.7578 7.61718 16.7578 7.60546 16.7578 7.03124V6.45116L17.0098 6.27538C17.6309 5.8535 18.1641 5.06249 18.3691 4.27147C18.5039 3.76171 18.4629 2.80663 18.293 2.3203C17.9004 1.23046 16.9746 0.369129 15.9023 0.0937386C15.416 -0.0293083 14.4961 -0.0234489 14.0332 0.111317ZM15.6152 1.30663C16.2539 1.50585 16.7344 1.92186 17.0156 2.51952C17.1797 2.86522 17.1973 2.95311 17.1973 3.45702C17.1973 3.97264 17.1797 4.04882 17.0039 4.40624C16.7637 4.89257 16.3066 5.33202 15.832 5.51366C15.3633 5.70116 14.6367 5.70116 14.168 5.51366C13.6934 5.33202 13.2363 4.89257 12.9961 4.40624C12.8203 4.04882 12.8027 3.97264 12.8027 3.45702C12.8027 2.95311 12.8203 2.86522 12.9844 2.51952C13.2598 1.93944 13.7402 1.51757 14.3555 1.31249C14.6367 1.21874 15.3281 1.21288 15.6152 1.30663ZM2.16797 4.83397C3.86719 5.26171 3.52734 5.23241 6.5332 5.26757C9.66797 5.31444 9.58594 5.29686 10.043 5.80663C10.2598 6.04686 10.3184 6.17577 10.459 6.67968C10.8047 7.93358 11.5605 8.62499 12.7617 8.79491L13.2422 8.86522V9.75585V10.6523L12.75 11.1152C11.9707 11.8535 11.2207 12.2871 10.2656 12.5508C9.60938 12.7324 8.19727 12.7324 7.5293 12.5508C6.98438 12.3984 5.98242 11.918 5.68359 11.666L5.47852 11.4902L6.25781 11.4844H7.04297L7.21289 11.3144C7.44727 11.0742 7.45312 10.7226 7.21875 10.4941C7.06055 10.3359 7.03711 10.3301 6.18164 10.2949C5.21484 10.2539 4.85742 10.1777 4.27734 9.89647C3.78516 9.65038 3.08203 8.95311 2.85352 8.48436C2.76562 8.30272 2.69531 8.13866 2.69531 8.12694C2.69531 8.10936 2.84766 8.1621 3.03516 8.23827C3.59766 8.46679 4.35352 8.56639 5.33789 8.54296C6.19922 8.52538 6.21094 8.52538 6.36914 8.36132C6.60352 8.1328 6.60352 7.74608 6.36914 7.51757C6.21094 7.3535 6.20508 7.3535 5.13867 7.31835C3.97852 7.27733 3.5625 7.18358 2.94727 6.8203C2.30273 6.45116 1.50586 5.43163 1.37695 4.81639C1.3418 4.64061 1.34766 4.62304 1.44141 4.65233C1.50586 4.66991 1.82812 4.75194 2.16797 4.83397ZM28.623 4.81639C28.4941 5.43163 27.6914 6.45116 27.0527 6.8203C26.4375 7.18358 26.0215 7.27733 24.8613 7.31835C23.7949 7.3535 23.7891 7.3535 23.6309 7.51757C23.3965 7.74608 23.3965 8.1328 23.6309 8.36132C23.7891 8.52538 23.8008 8.52538 24.6621 8.54296C25.6465 8.56639 26.4023 8.46679 26.9648 8.23827C27.1523 8.1621 27.3047 8.10936 27.3047 8.12694C27.3047 8.13866 27.2344 8.30272 27.1465 8.48436C26.918 8.95311 26.2148 9.65038 25.7227 9.89647C25.1426 10.1777 24.7852 10.2539 23.8184 10.2949C22.9629 10.3301 22.9395 10.3359 22.7812 10.4941C22.5469 10.7226 22.5527 11.0742 22.7871 11.3144L22.957 11.4844H23.7422L24.5215 11.4902L24.3164 11.666C24.0176 11.918 23.0156 12.3984 22.4707 12.5508C21.8027 12.7324 20.3906 12.7324 19.7344 12.5508C18.7793 12.2871 18.0293 11.8535 17.25 11.1152L16.7578 10.6523V9.75585V8.86522L17.2383 8.79491C18.4395 8.62499 19.1953 7.93358 19.541 6.67968C19.6816 6.17577 19.7402 6.04686 19.957 5.80663C20.4141 5.29686 20.332 5.31444 23.4668 5.26757C26.5078 5.23241 26.2148 5.26171 28.0371 4.78124C28.3301 4.70507 28.5879 4.63475 28.6113 4.63475C28.6406 4.62889 28.6406 4.71679 28.623 4.81639ZM15.5859 13.8398V20.8008H15H14.4141V13.8398V6.88475H15H15.5859V13.8398ZM17.8887 15.7441C18.8086 16.0312 19.4766 16.7754 19.6641 17.7187C19.9922 19.3242 18.709 20.7949 16.9805 20.8008H16.7578V18.1875V15.5801L17.1855 15.6152C17.4141 15.6387 17.7363 15.6914 17.8887 15.7441ZM13.2422 23.4199C13.2422 24.1875 13.2598 24.9199 13.2832 25.043L13.3184 25.2715L12.4395 25.2422C11.666 25.2187 11.5312 25.1953 11.2441 25.0664C10.1836 24.5801 9.94922 23.2851 10.7812 22.4707C11.1387 22.1191 11.4434 22.0371 12.4102 22.0312H13.2422V23.4199ZM15.5859 22.6582C15.5859 23.6133 15.4805 25.2187 15.3867 25.8105C15.2578 26.6015 15.0469 27.4922 15 27.4394C14.9297 27.3574 14.7773 26.7187 14.6484 25.9863C14.5254 25.2539 14.4199 23.748 14.4141 22.6582V22.0312H15H15.5859V22.6582Z" fill="#0082E0"/>
</g>
<defs>
<clipPath id="clip0_2048_13">
<rect width="30" height="30" fill="white"/>
</clipPath>
</defs>
</svg>
