<svg width="34" height="34" viewBox="0 0 34 34" fill="none" xmlns="http://www.w3.org/2000/svg">
<circle cx="25" cy="25" r="9" fill="#CCE5F6"/>
<g clip-path="url(#clip0_2048_20)">
<path d="M13.5352 0.040998C11.8711 0.216779 10.3066 0.632795 8.82422 1.2949C8.05664 1.63475 7.85156 1.82225 7.85156 2.17381C7.85156 2.35545 7.89258 2.4492 8.02148 2.58397C8.27344 2.83592 8.50195 2.81248 9.28125 2.45506C10.5469 1.86912 12.0703 1.45311 13.5234 1.28319C14.3496 1.18944 16.3711 1.24217 17.1855 1.37694L17.8125 1.4824V1.93944C17.8125 2.57811 17.9648 2.97069 18.3926 3.40428C18.8438 3.86131 19.2305 4.00779 19.9219 3.97264C20.3086 3.9492 20.4844 3.91404 20.7129 3.79686C21.498 3.39256 21.9258 2.54295 21.7852 1.66404C21.6797 0.996076 21.2754 0.462873 20.6367 0.164045C20.3027 -1.7643e-05 20.2266 -0.0117364 19.752 0.0117011C19.3184 0.0234199 19.1836 0.0585761 18.8906 0.20506L18.5449 0.386701L17.8711 0.251935C17.502 0.181623 16.9395 0.0995917 16.623 0.0644355C16.0957 0.00584173 14.0156 -0.0117364 13.5352 0.040998ZM20.2969 1.41209C20.4141 1.5117 20.5312 1.68162 20.5605 1.79295C20.6367 2.0742 20.543 2.35545 20.2969 2.57225C20.127 2.72459 20.0449 2.75389 19.793 2.75389C19.5293 2.75389 19.4766 2.73045 19.2715 2.52537C19.0664 2.32029 19.043 2.26756 19.043 1.99217C19.043 1.71678 19.0664 1.66404 19.2715 1.45897C19.4766 1.25389 19.5293 1.23045 19.793 1.23045C20.0449 1.23045 20.127 1.25975 20.2969 1.41209Z" fill="#0082E0"/>
<path d="M6.11719 2.87694C5.95898 2.95898 5.80078 3.22851 5.80078 3.42773C5.80078 4.20702 6.9082 4.24804 7.01367 3.4746C7.04297 3.24609 7.02539 3.20507 6.83789 3.01757C6.62109 2.80077 6.375 2.7539 6.11719 2.87694Z" fill="#0082E0"/>
<path d="M24.4102 2.95898C23.7715 3.21679 23.3028 3.82617 23.2149 4.5C23.0157 6.03515 24.3282 7.13671 25.8458 6.71484C25.9922 6.67382 26.0274 6.70898 26.4434 7.33593C28.0137 9.69726 28.7696 12.2051 28.7696 15.0527C28.7696 16.6582 28.5176 18.1816 28.0255 19.541L27.8555 20.0098L27.3926 20.0566C26.6192 20.1328 26.045 20.5254 25.711 21.2051C25.5997 21.4277 25.5762 21.5684 25.5762 22.0605C25.5762 22.5879 25.5938 22.6758 25.7403 22.957C26.168 23.7715 27.0294 24.1992 27.9024 24.0234C28.9161 23.8242 29.5372 23.0801 29.5372 22.0547C29.5372 21.5801 29.3848 21.1172 29.127 20.8066L28.9571 20.6016L29.1622 20.0449C29.7071 18.5391 29.9473 17.1914 29.9825 15.3809C30.0235 13.541 29.8536 12.2109 29.3614 10.6055C28.9219 9.15234 28.1192 7.50586 27.3106 6.38671C27.1583 6.17578 27.0118 5.9707 26.9883 5.92968C26.9649 5.88867 27.0001 5.71289 27.0645 5.53125C27.3458 4.78125 27.17 3.96093 26.6075 3.39257C26.1915 2.97656 25.7813 2.8125 25.1778 2.8125C24.8672 2.8125 24.6622 2.85351 24.4102 2.95898ZM25.7286 4.27148C25.9337 4.47656 25.9571 4.52929 25.9571 4.80468C25.9571 5.08007 25.9337 5.13281 25.7286 5.33789C25.5235 5.54296 25.4708 5.5664 25.1954 5.5664C24.92 5.5664 24.8672 5.54296 24.6622 5.33789C24.4571 5.13281 24.4337 5.08007 24.4337 4.80468C24.4337 4.52929 24.4571 4.47656 24.6622 4.27148C24.8672 4.0664 24.92 4.04296 25.1954 4.04296C25.4708 4.04296 25.5235 4.0664 25.7286 4.27148ZM27.8555 21.3516C28.3946 21.5801 28.4708 22.3769 27.9786 22.6992C27.2813 23.1562 26.461 22.3477 26.8946 21.6328C27.0938 21.3105 27.4805 21.1934 27.8555 21.3516Z" fill="#0082E0"/>
<path d="M4.36524 4.44726C4.08399 4.56445 3.05274 5.80078 2.38477 6.82617C1.24805 8.57226 0.550783 10.3828 0.169923 12.5684C0.0117203 13.4707 -0.0468734 15.5508 0.0585953 16.5586C0.19922 17.9473 0.562502 19.418 1.08399 20.6953C1.86328 22.5937 2.86524 24.0879 4.38867 25.6113C6.24024 27.457 8.20899 28.6465 10.6289 29.3789C12.2168 29.8652 13.5352 30.0293 15.4336 29.9824C17.6074 29.9355 18.9727 29.625 21.2461 28.6816C21.4863 28.582 21.4922 28.582 21.7148 28.7344C22.2539 29.0859 22.9805 29.168 23.5957 28.9394C24.0645 28.7637 24.5449 28.2832 24.7266 27.8027C24.9082 27.3164 24.873 26.5898 24.6562 26.1621C23.9004 24.6973 21.8027 24.6973 21.0469 26.1621C20.9297 26.3906 20.8887 26.5664 20.8711 26.9707L20.8418 27.4922L20.4551 27.668C19.3711 28.1543 17.8184 28.5644 16.4707 28.7168C15.5742 28.8164 13.5645 28.7578 12.7148 28.6055C11.2734 28.3418 10.2598 28.0137 8.93555 27.3633C6.20508 26.0332 3.96094 23.7949 2.63672 21.0703C1.67578 19.1016 1.29492 17.5488 1.24805 15.375C1.20117 13.5469 1.38867 12.2402 1.91016 10.6699C2.51367 8.86523 3.50977 7.15429 4.79883 5.71874C5.17383 5.30273 5.21485 5.23241 5.21485 5.01562C5.20899 4.55859 4.79297 4.27734 4.36524 4.44726ZM23.3848 26.5371C23.5898 26.7422 23.6133 26.7949 23.6133 27.0703C23.6133 27.3457 23.5898 27.3984 23.3848 27.6035C23.1797 27.8086 23.127 27.832 22.8516 27.832C22.5762 27.832 22.5234 27.8086 22.3184 27.6035C22.1133 27.3984 22.0898 27.3457 22.0898 27.0703C22.0898 26.7949 22.1133 26.7422 22.3184 26.5371C22.5234 26.332 22.5762 26.3086 22.8516 26.3086C23.127 26.3086 23.1797 26.332 23.3848 26.5371Z" fill="#0082E0"/>
<path d="M10.3477 5.01562L10.1953 5.17383V6.1582V7.14844H8.82422H7.45898L7.30078 7.30078L7.14844 7.45898V8.82422V10.1953H6.1582H5.17383L5.01562 10.3477C4.79883 10.5703 4.79883 10.9922 5.01562 11.2148L5.17383 11.3672H6.1582H7.14844V12.1875V13.0078H6.1582H5.17383L5.01562 13.1602C4.79883 13.3828 4.79883 13.8047 5.01562 14.0273L5.17383 14.1797H6.1582H7.14844V15V15.8203H6.1582H5.17383L5.01562 15.9727C4.79883 16.1953 4.79883 16.6172 5.01562 16.8398L5.17383 16.9922H6.1582H7.14844V17.8125V18.6328H6.1582H5.17383L5.01562 18.7852C4.79883 19.0078 4.79883 19.4297 5.01562 19.6523L5.17383 19.8047H6.1582H7.14844V21.1758V22.541L7.30078 22.6992L7.45898 22.8516H8.82422H10.1953V23.8418V24.8262L10.3477 24.9844C10.5703 25.2012 10.9922 25.2012 11.2148 24.9844L11.3672 24.8262V23.8418V22.8516H12.1875H13.0078V23.8418V24.8262L13.1602 24.9844C13.3828 25.2012 13.8047 25.2012 14.0273 24.9844L14.1797 24.8262V23.8418V22.8516H15H15.8203V23.8418V24.8262L15.9727 24.9844C16.1953 25.2012 16.6172 25.2012 16.8398 24.9844L16.9922 24.8262V23.8418V22.8516H17.8125H18.6328V23.8418V24.8262L18.7852 24.9844C19.0078 25.2012 19.4297 25.2012 19.6523 24.9844L19.8047 24.8262V23.8418V22.8516H21.1758H22.541L22.6992 22.6992L22.8516 22.541V21.1758V19.8047H23.8418H24.8262L24.9844 19.6523C25.1074 19.5293 25.1367 19.4414 25.1367 19.2188C25.1367 18.9961 25.1074 18.9082 24.9844 18.7852L24.8262 18.6328H23.8418H22.8516V17.8125V16.9922H23.8418H24.8262L24.9844 16.8398C25.2012 16.6172 25.2012 16.1953 24.9844 15.9727L24.8262 15.8203H23.8418H22.8516V15V14.1797H23.8418H24.8262L24.9844 14.0273C25.2012 13.8047 25.2012 13.3828 24.9844 13.1602L24.8262 13.0078H23.8418H22.8516V12.1875V11.3672H23.8418H24.8262L24.9844 11.2148C25.2012 10.9922 25.2012 10.5703 24.9844 10.3477L24.8262 10.1953H23.8418H22.8516V8.82422V7.45898L22.6992 7.30078L22.541 7.14844H21.1758H19.8047V6.1582V5.17383L19.6523 5.01562C19.4297 4.79883 19.0078 4.79883 18.7852 5.01562L18.6328 5.17383V6.1582V7.14844H17.8125H16.9922V6.1582V5.17383L16.8398 5.01562C16.7168 4.89258 16.6289 4.86328 16.4062 4.86328C16.1836 4.86328 16.0957 4.89258 15.9727 5.01562L15.8203 5.17383V6.1582V7.14844H15H14.1797V6.1582V5.17383L14.0273 5.01562C13.9043 4.89258 13.8164 4.86328 13.5938 4.86328C13.3711 4.86328 13.2832 4.89258 13.1602 5.01562L13.0078 5.17383V6.1582V7.14844H12.1875H11.3672V6.1582V5.17383L11.2148 5.01562C11.0918 4.89258 11.0039 4.86328 10.7812 4.86328C10.5586 4.86328 10.4707 4.89258 10.3477 5.01562ZM21.6797 15V21.6797H15H8.32031V15V8.32031H15H21.6797V15Z" fill="#0082E0"/>
<path d="M9.64453 9.64453L9.49219 9.80273V15V20.1973L9.64453 20.3555L9.80273 20.5078H15H20.1973L20.3555 20.3555L20.5078 20.1973V15V9.80273L20.3555 9.64453L20.1973 9.49219H15H9.80273L9.64453 9.64453ZM19.3359 15V19.3359H15H10.6641V15V10.6641H15H19.3359V15Z" fill="#0082E0"/>
<path d="M11.9706 12.1758C11.7772 12.3281 11.6952 12.6094 11.7772 12.8555C11.9823 13.4824 12.9491 13.3184 12.9491 12.6562C12.9491 12.3105 12.7089 12.0703 12.3515 12.0703C12.205 12.0703 12.0468 12.1172 11.9706 12.1758Z" fill="#0082E0"/>
<path d="M14.5137 12.2168C14.3555 12.3809 14.2969 12.5742 14.3438 12.8027C14.3555 12.8789 14.4376 13.0137 14.5137 13.0957L14.6661 13.2422H16.1426H17.6192L17.7774 13.0898C17.9005 12.9668 17.9298 12.8789 17.9298 12.6562C17.9298 12.4336 17.9005 12.3457 17.7774 12.2227L17.6192 12.0703H16.1426H14.6661L14.5137 12.2168Z" fill="#0082E0"/>
<path d="M11.9706 14.5195C11.7772 14.6719 11.6952 14.9531 11.7772 15.1992C11.9062 15.5977 11.8241 15.5859 14.871 15.5859H17.619L17.7772 15.4336C17.9003 15.3105 17.9296 15.2227 17.9296 15C17.9296 14.7773 17.9003 14.6894 17.7772 14.5664L17.619 14.4141H14.8593C12.3339 14.4141 12.0878 14.4258 11.9706 14.5195Z" fill="#0082E0"/>
<path d="M11.9706 16.8633C11.7772 17.0156 11.6952 17.2969 11.7772 17.543C11.9823 18.1699 12.9491 18.0059 12.9491 17.3437C12.9491 16.998 12.7089 16.7578 12.3515 16.7578C12.205 16.7578 12.0468 16.8047 11.9706 16.8633Z" fill="#0082E0"/>
<path d="M14.338 16.9043C13.9454 17.3027 14.1974 17.9297 14.7482 17.9297C14.9591 17.9297 15.0411 17.8945 15.1818 17.7598C15.5626 17.373 15.2989 16.7578 14.7482 16.7578C14.5489 16.7578 14.4552 16.793 14.338 16.9043Z" fill="#0082E0"/>
<path d="M16.9102 16.9102C16.7871 17.0332 16.7578 17.1211 16.7578 17.3438C16.7578 17.5664 16.7871 17.6543 16.9102 17.7773C17.0332 17.9004 17.1211 17.9297 17.3438 17.9297C17.5664 17.9297 17.6543 17.9004 17.7773 17.7773C17.9004 17.6543 17.9297 17.5664 17.9297 17.3438C17.9297 17.1211 17.9004 17.0332 17.7773 16.9102C17.6543 16.7871 17.5664 16.7578 17.3438 16.7578C17.1211 16.7578 17.0332 16.7871 16.9102 16.9102Z" fill="#0082E0"/>
</g>
<defs>
<clipPath id="clip0_2048_20">
<rect width="30" height="30" fill="white"/>
</clipPath>
</defs>
</svg>
