<svg width="34" height="34" viewBox="0 0 34 34" fill="none" xmlns="http://www.w3.org/2000/svg">
<circle cx="25" cy="25" r="9" fill="#CCE5F6"/>
<g clip-path="url(#clip0_2048_25)">
<path d="M16.7227 0.140625C16.3418 0.316406 16.0195 0.638672 15.8438 1.01953L15.7031 1.31836V4.18945V7.06055H13.0078H10.3125V6.41602C10.3125 5.85938 10.2891 5.73047 10.1719 5.47266C9.99609 5.0918 9.67383 4.76953 9.29297 4.59375L8.99414 4.45312H5.15625H1.31836L1.01953 4.59375C0.638672 4.76953 0.316406 5.0918 0.140625 5.47266L0 5.77148V17.2266V28.6816L0.140625 28.9805C0.316406 29.3613 0.638672 29.6836 1.01953 29.8594L1.31836 30H5.16211H9.00586L9.36328 29.8184L9.72656 29.6367L10.0898 29.8184L10.4473 30H13.0078H15.5684L15.9258 29.8184L16.2891 29.6367L16.6523 29.8184L17.0098 30H19.5703H22.1309L22.4883 29.8184L22.8516 29.6367L23.2148 29.8184L23.5723 30H26.127H28.6816L28.9805 29.8594C29.3613 29.6836 29.6836 29.3613 29.8594 28.9805L30 28.6816V18.5156V8.34961L29.8594 8.05078C29.6777 7.66406 29.3555 7.34766 28.9688 7.16602L28.6641 7.02539L26.0508 7.04297L23.4375 7.06055V4.18945V1.31836L23.2969 1.01953C23.1211 0.638672 22.7988 0.316406 22.418 0.140625L22.1191 0H19.5703H17.0215L16.7227 0.140625ZM21.9492 1.2832C22.2129 1.45898 22.2363 1.56445 22.2539 2.61914L22.2773 3.63281H19.5762H16.875V2.75977C16.875 2.2793 16.8926 1.81055 16.9102 1.70508C16.9512 1.49414 17.1797 1.24805 17.3613 1.21289C17.4316 1.19531 18.4688 1.18945 19.6582 1.19531C21.4043 1.20117 21.8496 1.21875 21.9492 1.2832ZM22.2656 15V25.1367H19.5703H16.875V15V4.86328H19.5703H22.2656V15ZM8.82422 5.73633C9.12891 5.93555 9.11133 5.4082 9.12891 14.9824L9.14062 23.9062H5.15625H1.17188V17.2266V10.5469H2.92383C3.89062 10.5469 4.74609 10.5234 4.82227 10.4941C5.24414 10.3301 5.36133 9.80273 5.04492 9.48633L4.875 9.31641H3.02344H1.17188V7.82812C1.17188 7.01367 1.18945 6.26367 1.20703 6.1582C1.24805 5.94727 1.47656 5.70117 1.6582 5.66602C1.72852 5.64844 3.3457 5.64258 5.24414 5.64844C8.09766 5.6543 8.72461 5.66602 8.82422 5.73633ZM15.3867 8.31445C15.6738 8.50781 15.6738 8.4668 15.6914 11.3496L15.709 14.0625H13.0078H10.3125V11.4902C10.3125 10.0781 10.3301 8.8418 10.3477 8.73633C10.3887 8.52539 10.6172 8.2793 10.7988 8.24414C10.8691 8.22656 11.9062 8.2207 13.0957 8.22656C14.8418 8.23242 15.2871 8.25 15.3867 8.31445ZM28.5117 8.31445C28.7461 8.47266 28.793 8.61914 28.8164 9.29883L28.8398 9.96094H26.1387H23.4375V9.43945C23.4375 9.15234 23.4551 8.8418 23.4727 8.73633C23.5137 8.52539 23.7422 8.2793 23.9238 8.24414C23.9941 8.22656 25.0312 8.2207 26.2207 8.22656C27.9668 8.23242 28.4121 8.25 28.5117 8.31445ZM28.8281 18.5156V25.8984H26.1328H23.4375V18.5156V11.1328H26.1328H28.8281V18.5156ZM15.7031 18.5156V21.7383H13.0078H10.3125V18.5156V15.293H13.0078H15.7031V18.5156ZM15.6914 25.6758C15.6738 28.5996 15.6797 28.5527 15.3574 28.7227C15.1523 28.834 10.8633 28.834 10.6582 28.7227C10.3359 28.5527 10.3418 28.5996 10.3242 25.6758L10.3066 22.9688H13.0078H15.709L15.6914 25.6758ZM9.12891 26.7598C9.11133 28.5059 9.09961 28.5586 8.79492 28.7227C8.58984 28.834 1.72266 28.834 1.51758 28.7227C1.21289 28.5586 1.20117 28.5059 1.18359 26.7598L1.16602 25.1367H5.15625H9.14648L9.12891 26.7598ZM22.2539 27.375C22.2363 28.459 22.207 28.5703 21.9199 28.7227C21.7148 28.834 17.4258 28.834 17.2207 28.7227C16.9336 28.5703 16.9043 28.459 16.8867 27.375L16.8633 26.3672H19.5703H22.2773L22.2539 27.375ZM28.8164 27.7266C28.793 28.4297 28.7402 28.582 28.4824 28.7227C28.2773 28.834 23.9883 28.834 23.7832 28.7227C23.5254 28.582 23.4727 28.4297 23.4492 27.7266L23.4258 27.0703H26.1328H28.8398L28.8164 27.7266Z" fill="#0082E0"/>
<path d="M19.3125 11.3379C18.9785 11.5137 18.9902 11.4199 18.9844 14.2266V16.8281L19.1543 16.998C19.2891 17.1328 19.377 17.168 19.5703 17.168C19.7637 17.168 19.8516 17.1328 19.9863 16.998L20.1562 16.8281V14.2266C20.1562 11.666 20.1562 11.6191 20.0332 11.4902C19.9102 11.3613 19.6875 11.25 19.5527 11.25C19.5117 11.25 19.4062 11.291 19.3125 11.3379Z" fill="#0082E0"/>
<path d="M19.4121 18.4981C18.9844 18.5801 18.8321 19.1953 19.1543 19.5176C19.5411 19.8984 20.1563 19.6348 20.1563 19.084C20.1563 18.8789 20.1211 18.791 20.0039 18.668C19.9161 18.5859 19.8164 18.5156 19.7696 18.5156C19.7286 18.5156 19.6641 18.5039 19.6172 18.4922C19.5762 18.4805 19.4825 18.4863 19.4121 18.4981Z" fill="#0082E0"/>
<path d="M6.61523 9.48634C6.29296 9.8086 6.40429 10.3477 6.82616 10.4883C7.34765 10.6641 7.79296 10.2188 7.61718 9.69728C7.48241 9.29884 6.92577 9.18165 6.61523 9.48634Z" fill="#0082E0"/>
<path d="M24.5273 14.8008L24.375 14.959V18.5156V22.0723L24.5273 22.2305C24.75 22.4473 25.1719 22.4473 25.3945 22.2305L25.5469 22.0723V18.5156V14.959L25.3945 14.8008C25.2715 14.6777 25.1836 14.6484 24.9609 14.6484C24.7383 14.6484 24.6504 14.6777 24.5273 14.8008Z" fill="#0082E0"/>
<path d="M26.8711 14.8008L26.7188 14.959V18.5156V22.0723L26.8711 22.2305C27.0938 22.4473 27.5156 22.4473 27.7383 22.2305L27.8906 22.0723V18.5156V14.959L27.7383 14.8008C27.6152 14.6777 27.5273 14.6484 27.3047 14.6484C27.082 14.6484 26.9941 14.6777 26.8711 14.8008Z" fill="#0082E0"/>
</g>
<defs>
<clipPath id="clip0_2048_25">
<rect width="30" height="30" fill="white"/>
</clipPath>
</defs>
</svg>
