<svg width="34" height="34" viewBox="0 0 34 34" fill="none" xmlns="http://www.w3.org/2000/svg">
<circle cx="25" cy="25" r="9" fill="#CCE5F6"/>
<g clip-path="url(#clip0_2048_19)">
<path d="M13.7988 0.0410156C12.2929 0.228515 10.7988 0.74414 9.5097 1.52344C7.59368 2.68945 5.98821 4.64062 5.20892 6.75C4.94524 7.46484 4.99798 7.76953 5.41399 7.91016C5.79485 8.0332 6.01165 7.85742 6.24602 7.20703C7.0429 4.98633 8.83587 3.0293 11.0156 2.00391C12.3105 1.38867 13.2128 1.17773 14.6777 1.13086C16.0956 1.08984 17.0859 1.24805 18.3574 1.72851C21.0702 2.74805 23.3027 5.25 24.0234 8.08594C24.2988 9.16406 24.3163 9.41601 24.3163 12.5859C24.3163 15.7852 24.3281 15.9023 24.5976 16.0488C24.8144 16.166 25.1308 16.125 25.2831 15.9668L25.4296 15.8262V12.6562C25.4296 9.24023 25.412 8.96484 25.1015 7.77539C24.6327 5.95898 23.7304 4.39453 22.3827 3.04687C20.7714 1.43555 18.8202 0.445312 16.5468 0.09375C16.0019 0.00585938 14.3144 -0.0234375 13.7988 0.0410156Z" fill="#0082E0"/>
<path d="M14.0918 2.2031C13.4648 2.29685 12.8965 2.42576 12.498 2.55467C9.77344 3.43943 7.76953 5.54881 7.00195 8.33201C6.76172 9.22264 6.73828 9.66795 6.73828 14.6894V19.5L6.89062 19.6816C7.08398 19.916 7.41211 19.9336 7.6582 19.7226L7.82227 19.582L7.85742 14.5195C7.88086 11.0683 7.91602 9.3574 7.95703 9.12889C8.07422 8.5781 8.35547 7.77537 8.63086 7.23045C9.53906 5.43748 11.1621 4.09568 13.0957 3.55076C13.916 3.32224 14.5078 3.25779 15.3457 3.31053C16.4824 3.38084 16.5 3.38084 16.6699 3.22264C16.7812 3.11717 16.8164 3.02928 16.8164 2.83592C16.8164 2.52537 16.6816 2.35545 16.377 2.27928C16.125 2.21482 14.3848 2.16209 14.0918 2.2031Z" fill="#0082E0"/>
<path d="M17.7889 3.05273C17.4783 3.41602 17.6248 3.75586 18.2342 4.07227C18.4686 4.19531 18.7791 4.37109 18.9197 4.46484C19.4412 4.79297 19.9217 4.59375 19.9217 4.04883C19.9217 3.79687 19.7401 3.62109 19.0428 3.22266C18.2987 2.79492 18.035 2.75977 17.7889 3.05273Z" fill="#0082E0"/>
<path d="M14.502 4.37694C13.8281 4.42967 12.8848 4.68748 12.3398 4.96287C11.5137 5.37889 10.6816 6.06444 10.166 6.74998C9.94922 7.04295 9.90234 7.14842 9.90234 7.3535C9.90234 7.56444 9.93164 7.63475 10.0898 7.76366C10.3711 7.99803 10.623 7.9453 10.9277 7.57616C12.1523 6.11131 13.3828 5.49022 15.0586 5.49608C17.0215 5.50194 18.7617 6.66209 19.5586 8.5078C19.9395 9.3867 19.9395 9.40428 19.9629 13.1484C19.9805 15.2871 20.0098 16.5879 20.0449 16.6582C20.127 16.8047 20.4375 16.9277 20.6367 16.8926C20.7188 16.875 20.8535 16.7988 20.9297 16.7168L21.0645 16.5703L21.082 13.5176C21.1055 9.46873 21.0586 9.00584 20.4492 7.76366C19.5352 5.8828 17.7598 4.63475 15.6738 4.39452C15.1582 4.33592 14.9824 4.33592 14.502 4.37694Z" fill="#0082E0"/>
<path d="M20.9763 5.37305C20.8181 5.43164 20.6833 5.64844 20.6833 5.86523C20.6833 6.01172 20.7536 6.18164 20.906 6.42188C21.445 7.25977 21.7673 8.00391 21.9841 8.88867C22.1071 9.39258 22.113 9.51562 22.1364 14.6191C22.1481 18.2871 22.1364 19.9922 22.0895 20.3789C21.9841 21.2109 21.7673 21.9316 21.3864 22.7051C21.0056 23.4844 20.6247 24.0234 20.0212 24.6387C19.5466 25.1191 19.4821 25.2539 19.57 25.5234C19.6579 25.7754 19.8337 25.8984 20.1149 25.8984C20.3083 25.8984 20.3903 25.8516 20.695 25.5586C21.7497 24.5566 22.5817 23.1738 22.9626 21.7793C23.2497 20.7246 23.2614 20.4609 23.2614 14.9648C23.2614 9.39844 23.2556 9.22852 22.9392 8.13867C22.6696 7.18945 22.0661 5.98242 21.6442 5.52539C21.4626 5.33203 21.2341 5.2793 20.9763 5.37305Z" fill="#0082E0"/>
<path d="M14.0332 6.65624C12.9902 6.90819 12.0059 7.70506 11.5195 8.6953C11.127 9.49217 11.1328 9.33983 11.1328 14.8125C11.1328 18.2402 11.1504 19.7871 11.1973 19.875C11.2793 20.0273 11.5898 20.1562 11.7891 20.1152C11.8711 20.0976 12.0059 20.0215 12.082 19.9394L12.2168 19.793L12.2461 14.8066L12.2754 9.81444L12.4102 9.48631C12.8613 8.37303 13.8457 7.67577 14.9766 7.67577C16.2012 7.67577 17.2793 8.49022 17.6426 9.69139C17.7422 10.0195 17.7539 10.2949 17.7539 12.791C17.7539 15.709 17.7656 15.8437 18.0352 15.9902C18.252 16.1074 18.5449 16.0664 18.7148 15.9023L18.8672 15.7441V12.832C18.8672 10.1191 18.8613 9.89061 18.75 9.46873C18.4805 8.41405 17.707 7.44725 16.7578 6.98436C16.4824 6.8496 16.1016 6.69725 15.9082 6.65038C15.4746 6.53905 14.5078 6.54491 14.0332 6.65624Z" fill="#0082E0"/>
<path d="M14.4551 8.8125C14.1328 8.92969 13.8047 9.17578 13.6289 9.42188C13.3184 9.87305 13.3008 10.0137 13.3008 11.877V13.6055L13.4707 13.7754C13.6934 13.9922 13.9863 14.0039 14.2207 13.8047L14.3848 13.6641L14.4141 11.9238L14.4434 10.1836L14.6367 10.0137C14.9238 9.75586 15.2637 9.80859 15.4688 10.1484C15.5801 10.3359 15.5859 10.4473 15.5859 15.2168C15.5859 18.668 15.6035 20.1328 15.6504 20.2324C15.8262 20.6133 16.459 20.6133 16.6348 20.2324C16.6816 20.1328 16.6992 18.6387 16.6992 15.1172C16.6992 10.2305 16.6992 10.1367 16.5762 9.81445C16.2715 8.99414 15.2695 8.52539 14.4551 8.8125Z" fill="#0082E0"/>
<path d="M4.77522 9.16406L4.59944 9.30469L4.58186 14.8066C4.57014 18.6094 4.58186 20.4727 4.62874 20.8594C4.951 23.5664 6.42171 26.168 8.58382 27.832C8.84749 28.0371 8.95296 28.084 9.15218 28.084C9.47444 28.084 9.6678 27.873 9.6678 27.5332C9.6678 27.2695 9.6385 27.2344 8.88264 26.6016C7.43538 25.3945 6.33382 23.5254 5.84749 21.4336C5.72444 20.9004 5.71858 20.7715 5.68929 15.0996L5.65413 9.30469L5.49007 9.16406C5.27913 8.98242 5.00374 8.98242 4.77522 9.16406Z" fill="#0082E0"/>
<path d="M9.33946 9.89063C9.26915 9.90235 9.15196 9.97266 9.07579 10.0547C8.94688 10.1895 8.93516 10.2656 8.91758 10.8809C8.89415 11.6953 8.9293 11.9238 9.11094 12.1055C9.32774 12.3223 9.74376 12.2754 9.94297 12.0176C9.98985 11.9531 10.0133 11.6484 10.0191 11.0684C10.0191 10.3359 10.0016 10.1895 9.91954 10.084C9.80235 9.94922 9.53282 9.85547 9.33946 9.89063Z" fill="#0082E0"/>
<path d="M9.28711 13.2949C9.22266 13.3242 9.11719 13.4062 9.05273 13.4766C8.93555 13.6055 8.93555 13.6875 8.93555 16.957C8.93555 20.5254 8.93555 20.5254 9.24023 21.4746C9.54492 22.4297 10.084 23.2734 10.8457 23.9883C11.3438 24.4629 12.0879 24.9609 12.2871 24.9609C12.6855 24.9609 12.9551 24.5859 12.8262 24.2051C12.7793 24.0703 12.6387 23.9355 12.3105 23.7188C11.209 22.9746 10.4648 21.9023 10.1484 20.5957C10.0781 20.3203 10.0547 19.541 10.0254 16.8926C9.99023 13.6406 9.98438 13.5352 9.87305 13.4238C9.73242 13.2891 9.45117 13.2305 9.28711 13.2949Z" fill="#0082E0"/>
<path d="M13.5293 15.1933C13.3066 15.3633 13.3008 15.4629 13.3008 18C13.3008 20.7012 13.3242 20.9414 13.6406 21.5273C13.8457 21.914 14.3906 22.459 14.7598 22.6465C16.1074 23.3262 17.748 22.875 18.4863 21.6152C18.8379 21.0117 18.8672 20.8183 18.8672 19.0254C18.8672 17.4199 18.8672 17.4082 18.7324 17.25C18.5391 17.0273 18.1582 17.0273 17.9414 17.25L17.7832 17.4023L17.7539 19.0312C17.7305 20.4258 17.7129 20.6836 17.6191 20.8594C17.2207 21.668 16.3242 22.0488 15.5215 21.7441C15.0938 21.5801 14.6895 21.1758 14.5312 20.7598C14.4199 20.4609 14.4141 20.3027 14.4141 17.959V15.4805L14.2617 15.2988C14.1387 15.1465 14.0684 15.1172 13.8691 15.1172C13.7344 15.1172 13.582 15.1523 13.5293 15.1933Z" fill="#0082E0"/>
<path d="M24.6739 17.2031C24.3516 17.3379 24.3164 17.5137 24.3164 19.0547C24.3164 20.8476 24.1758 21.7031 23.666 22.998C22.752 25.3476 20.6895 27.3926 18.3574 28.2715C17.1563 28.7285 16.1543 28.8984 14.7949 28.8867C13.5235 28.875 13.6114 28.8633 13.4473 29.0332C13.125 29.3496 13.336 29.8828 13.8164 29.9648C14.25 30.0351 15.9492 30 16.5469 29.9062C20.2969 29.3262 23.4199 26.8183 24.7559 23.3144C25.2774 21.9551 25.4297 20.9707 25.4297 18.9902C25.4297 17.6308 25.418 17.4609 25.3301 17.3496C25.1778 17.168 24.9024 17.1035 24.6739 17.2031Z" fill="#0082E0"/>
<path d="M20.2909 18.1055C20.0389 18.2051 19.9979 18.375 19.9569 19.3359C19.9393 19.834 19.8866 20.4258 19.8397 20.6426C19.3065 23.0742 16.8924 24.8027 14.4784 24.4805C13.6522 24.375 13.4412 24.3808 13.2889 24.539C13.1073 24.7207 13.1014 25.1426 13.2772 25.3183C13.5233 25.5586 14.742 25.7109 15.6444 25.6055C16.4119 25.5176 16.9803 25.3594 17.6659 25.0254C18.3631 24.6797 18.867 24.3105 19.4237 23.7246C20.5721 22.5117 21.0936 21.0937 21.0936 19.1543C21.0936 18.4512 21.0233 18.2344 20.7655 18.1289C20.5428 18.0351 20.4725 18.0351 20.2909 18.1055Z" fill="#0082E0"/>
<path d="M7.68139 22.5937C7.46459 22.8633 7.49389 23.1035 7.80443 23.6426C8.97045 25.6758 10.8923 27.1054 13.1775 27.6328C13.9744 27.8144 15.1638 27.8789 15.9724 27.7734C17.0154 27.6445 18.2751 27.2578 18.574 26.9765C18.8669 26.6953 18.697 26.1328 18.2927 26.0566C18.2048 26.039 17.988 26.0801 17.8122 26.1445C16.3181 26.6894 15.2341 26.8301 13.9451 26.6367C11.7654 26.3086 9.84349 24.9668 8.75951 23.0273C8.48998 22.541 8.37279 22.4414 8.05639 22.4414C7.85131 22.4414 7.77514 22.4707 7.68139 22.5937Z" fill="#0082E0"/>
<path d="M10.459 28.0195C10.2656 28.1308 10.2012 28.2597 10.1953 28.5176C10.1953 28.7168 10.2246 28.7871 10.3652 28.9043C10.5879 29.0859 11.3848 29.4199 11.6895 29.4551C12.3223 29.5312 12.5273 28.6758 11.9414 28.4004C11.5078 28.1953 10.8281 27.9492 10.7051 27.9492C10.6348 27.9492 10.5234 27.9844 10.459 28.0195Z" fill="#0082E0"/>
</g>
<defs>
<clipPath id="clip0_2048_19">
<rect width="30" height="30" fill="white"/>
</clipPath>
</defs>
</svg>
