<svg width="34" height="34" viewBox="0 0 34 34" fill="none" xmlns="http://www.w3.org/2000/svg">
<circle cx="25" cy="25" r="9" fill="#CCE5F6"/>
<path d="M7.78125 1.20706C7.57617 1.31839 7.5 1.45901 7.5 1.75198C7.5 2.10355 7.66406 2.23831 8.33789 2.45511C10.3184 3.0762 11.7773 4.27737 12.1934 5.62503C12.3516 6.14065 12.3516 6.90823 12.1934 7.58792C12.0938 8.0098 12.082 8.14456 12.1348 8.30276C12.2402 8.63089 12.6562 8.76565 13.002 8.58401C13.5059 8.3262 13.7051 6.3223 13.3359 5.18558C12.7969 3.51565 11.1035 2.06839 8.8125 1.31839C8.12695 1.08987 8.00977 1.07815 7.78125 1.20706Z" fill="#0082E0"/>
<path d="M14.6953 1.20703C14.6074 1.25391 14.5078 1.3418 14.4727 1.40625C14.4375 1.47656 14.4141 2.70703 14.4141 4.92188V8.33203L14.584 8.50195C14.7188 8.63672 14.8066 8.67188 15 8.67188C15.1934 8.67188 15.2812 8.63672 15.416 8.50195L15.5859 8.33203V4.92188C15.5859 2.69531 15.5625 1.47656 15.5273 1.40039C15.4512 1.26562 15.1699 1.11328 14.9883 1.11328C14.9121 1.11914 14.7832 1.1543 14.6953 1.20703Z" fill="#0082E0"/>
<path d="M21.7087 1.22461C19.5818 1.88086 17.9587 3.05273 17.2322 4.44727C16.822 5.23828 16.7283 5.64844 16.7341 6.5918C16.7459 8.01562 17.0095 8.67188 17.5837 8.67188C17.7537 8.67188 17.8591 8.63086 17.9587 8.53125C18.1697 8.32031 18.1931 8.12109 18.0701 7.65234C17.9002 7.01953 17.9119 6.01172 18.0994 5.50781C18.574 4.20703 19.8865 3.14648 21.8377 2.48437C22.6052 2.2207 22.7634 2.0918 22.7634 1.72852C22.7634 1.21875 22.3591 1.02539 21.7087 1.22461Z" fill="#0082E0"/>
<path d="M6.16992 4.02539C5.98242 4.06055 5.74219 4.37109 5.74219 4.57617C5.74219 4.98047 6.00586 5.21484 6.46289 5.21484C6.81445 5.21484 7.39453 5.36719 7.74023 5.54297C8.0918 5.71875 8.51367 6.09375 8.70703 6.39844C8.90039 6.70898 9.12305 7.40039 9.17578 7.85156C9.24023 8.45508 9.39844 8.67188 9.7793 8.67188C10.2363 8.67188 10.4648 8.35547 10.4004 7.80469C10.2188 6.20508 9.54492 5.09766 8.37305 4.48242C7.76953 4.16602 6.63281 3.93164 6.16992 4.02539Z" fill="#0082E0"/>
<path d="M23.2852 4.0488C21.5391 4.27146 20.3145 5.41989 19.957 7.16013C19.9043 7.40622 19.8633 7.77536 19.8633 7.96872C19.8633 8.29099 19.8809 8.34958 20.0332 8.50193C20.2734 8.7363 20.625 8.74216 20.8535 8.50779C20.9824 8.37888 21.0234 8.27341 21.0586 7.96872C21.2227 6.47458 21.9141 5.59568 23.1562 5.30271C23.3613 5.25583 23.666 5.21482 23.8359 5.21482C24.1055 5.21482 24.1758 5.19138 24.3223 5.04489C24.6621 4.69919 24.4922 4.11325 24.0176 4.0195C23.8125 3.97849 23.7832 3.97849 23.2852 4.0488Z" fill="#0082E0"/>
<path d="M9.94922 9.9668C9.75 10.1602 9.75 10.2188 9.9082 11.25C9.99023 11.8008 9.94336 13.2012 9.82031 13.916C9.49805 15.7266 8.91797 17.3789 7.82227 19.5996C6.65625 21.9551 5.03906 24.5098 3.22852 26.8477L2.60742 27.6445L2.03906 27.668C1.50586 27.6855 1.45898 27.6973 1.30664 27.8496C1.07227 28.0781 1.07227 28.4648 1.30664 28.6934L1.46484 28.8574H15H28.5352L28.6934 28.6934C28.9277 28.4648 28.9277 28.0781 28.6934 27.8496C28.541 27.6973 28.4941 27.6855 27.9609 27.6621L27.3926 27.6445L26.8594 26.959C23.6895 22.9043 21.252 18.3867 20.4258 15.0469C20.0859 13.6816 19.9512 12.1641 20.0918 11.25C20.25 10.2188 20.25 10.1602 20.0508 9.9668C19.7285 9.64453 19.5996 9.67969 18.1523 10.5469C17.4551 10.9629 16.8633 11.3086 16.8398 11.3086C16.8105 11.3086 16.4473 10.9629 16.0254 10.5469C15.2754 9.80859 15.2461 9.78516 15 9.78516C14.7539 9.78516 14.7246 9.80859 13.9746 10.5469C13.5527 10.9629 13.1895 11.3086 13.1602 11.3086C13.1367 11.3086 12.5449 10.9629 11.8477 10.5469C10.4004 9.67969 10.2715 9.64453 9.94922 9.9668ZM15.6445 11.9297C15.9844 12.2695 16.3301 12.5859 16.418 12.6328C16.7168 12.791 16.8809 12.7383 17.8828 12.1406L18.8438 11.5664L18.8203 11.9121C18.75 12.8379 19.0488 14.7715 19.4824 16.2363C20.3555 19.1895 22.5293 23.2207 25.1602 26.7656C25.5 27.2227 25.7812 27.6152 25.7812 27.627C25.7812 27.6445 24.873 27.6562 23.7656 27.6562H21.75L20.0684 23.7246C18.5625 20.2266 18.3574 19.7812 18.1992 19.6758C17.8301 19.4473 17.2852 19.7344 17.2852 20.1621C17.2852 20.2676 17.9355 21.8555 18.8438 23.9766C19.6992 25.9746 20.3906 27.6211 20.373 27.6328C20.3613 27.6445 18.1465 27.6504 15.4512 27.6445L10.5469 27.627L10.9746 26.9824C12.6328 24.498 13.6113 21.6562 13.8398 18.7031C13.9043 17.877 13.9043 17.7949 13.8047 17.6133C13.6348 17.2969 13.2891 17.1973 12.9551 17.373C12.7266 17.4902 12.668 17.6777 12.6328 18.4863C12.498 21.4277 11.168 24.8848 9.25195 27.2695L8.94141 27.6562H6.58008C5.2793 27.6562 4.21875 27.6445 4.21875 27.627C4.21875 27.6152 4.5 27.2227 4.83984 26.7656C6.35742 24.7207 7.75195 22.4824 8.78906 20.4199C10.377 17.2676 11.1328 14.6895 11.1562 12.3633L11.1621 11.5664L12.123 12.1406C13.1191 12.7383 13.2832 12.791 13.582 12.6328C13.6699 12.5859 14.0156 12.2695 14.3555 11.9297C14.6895 11.5898 14.9824 11.3086 15 11.3086C15.0176 11.3086 15.3105 11.5898 15.6445 11.9297Z" fill="#0082E0"/>
<path d="M4.57031 12.0996V12.7148H5.18555H5.80078V12.0996V11.4844H5.18555H4.57031V12.0996Z" fill="#0082E0"/>
<path d="M24.1992 12.0996V12.7148H24.8145H25.4297V12.0996V11.4844H24.8145H24.1992V12.0996Z" fill="#0082E0"/>
<path d="M4.57031 14.4141V15H5.18555H5.80078V14.4141V13.8281H5.18555H4.57031V14.4141Z" fill="#0082E0"/>
<path d="M24.1992 14.4141V15H24.8145H25.4297V14.4141V13.8281H24.8145H24.1992V14.4141Z" fill="#0082E0"/>
<path d="M4.57031 16.7285V17.3438H5.18555H5.80078V16.7285V16.1133H5.18555H4.57031V16.7285Z" fill="#0082E0"/>
<path d="M24.1992 16.7285V17.3438H24.8145H25.4297V16.7285V16.1133H24.8145H24.1992V16.7285Z" fill="#0082E0"/>
<path d="M4.57031 19.043V19.6289H5.18555H5.80078V19.043V18.457H5.18555H4.57031V19.043Z" fill="#0082E0"/>
<path d="M24.1992 19.043V19.6289H24.8145H25.4297V19.043V18.457H24.8145H24.1992V19.043Z" fill="#0082E0"/>
</svg>
