<svg width="34" height="34" viewBox="0 0 34 34" fill="none" xmlns="http://www.w3.org/2000/svg">
<circle cx="25" cy="25" r="9" fill="#CCE5F6"/>
<path d="M13.6525 1.88086C12.2404 1.96289 10.9221 2.33203 9.55098 3.02344C7.04903 4.28906 5.15645 6.48047 4.27754 9.13477C3.83223 10.4766 3.65645 11.8477 3.75606 13.248C3.86153 14.7715 4.17208 15.8379 5.00411 17.5781C5.85958 19.3652 6.08223 20.1621 6.13497 21.7148C6.18184 23.0098 6.11739 23.4492 5.50215 25.916C5.21504 27.0703 4.98067 28.0957 4.98067 28.1953C4.98067 28.3184 5.03926 28.4297 5.17989 28.5703L5.37911 28.7695H10.6291H15.8791L16.0549 28.6113C16.2307 28.4473 16.2424 28.418 16.5119 26.7891L16.7873 25.1367H16.9338C17.0158 25.1367 17.9123 25.2422 18.926 25.3711C19.9397 25.5 20.8947 25.6055 21.0471 25.6055C22.3361 25.6055 23.4963 24.6445 23.7307 23.3848C23.7658 23.2148 23.7893 22.3359 23.7893 21.4453V19.8164L24.8615 19.3945C25.4475 19.1602 26.0158 18.9023 26.1213 18.8262C26.3264 18.6738 26.5022 18.3691 26.5725 18.0586C26.6662 17.6191 26.5783 17.4141 25.6701 16.0137L24.8029 14.6719L24.8908 14.209C24.9553 13.8867 24.9846 13.3594 24.9846 12.5098C24.9846 11.4727 24.967 11.168 24.8557 10.5762C24.3225 7.75195 22.6701 5.22656 20.3322 3.66211C18.8381 2.66016 16.9045 1.98633 15.3049 1.89844C14.9943 1.88086 14.6604 1.86328 14.5607 1.85742C14.467 1.8457 14.0568 1.85742 13.6525 1.88086ZM14.3557 5.47266V7.77539L13.9221 7.80469C12.9025 7.86914 12.0881 8.58398 11.8947 9.5918C11.7951 10.1016 11.8596 10.5293 12.1174 11.0332C12.4924 11.7539 13.1897 12.1875 13.9748 12.1875H14.3557V13.2715V14.3555H12.6799H11.0041L10.8049 14.5547C10.5588 14.8008 10.5412 15.0586 10.7522 15.457C11.0041 15.9316 10.9045 16.4004 10.4826 16.6816C10.2893 16.8105 10.2072 16.8281 9.93184 16.8047C9.56856 16.7754 9.31075 16.5879 9.16426 16.248C9.04708 15.9785 9.06465 15.8145 9.22872 15.5039C9.38106 15.2109 9.42208 14.8418 9.31661 14.6426C9.17012 14.373 9.0295 14.3555 7.06661 14.3555H5.22676L5.14473 13.9277C5.09786 13.6699 5.06856 13.0957 5.07442 12.4219C5.07442 11.5312 5.09786 11.2324 5.20919 10.7227C5.73067 8.2793 7.01387 6.31055 9.00606 4.88086C10.4357 3.86133 12.3518 3.20508 13.9924 3.16992L14.3557 3.16406V5.47266ZM16.7287 3.46289C18.4631 3.90234 20.1799 4.96289 21.3635 6.31641C23.2092 8.43164 24.0412 11.2617 23.59 13.916L23.5256 14.3262L22.8752 14.3438L22.2248 14.3613L22.1955 13.9277C22.1428 13.1484 21.6857 12.4277 21.0295 12.0996C19.594 11.3672 17.9006 12.3164 17.8244 13.8984L17.801 14.3555H16.7229H15.6447V12.6797V11.0039L15.4455 10.8047C15.1994 10.5586 14.9416 10.541 14.5432 10.752C14.0686 11.0039 13.5998 10.8984 13.3127 10.4824C13.1955 10.3184 13.1779 10.2246 13.1955 9.96094C13.2248 9.56836 13.3537 9.36328 13.6877 9.19922C13.9982 9.04688 14.1623 9.05273 14.4963 9.22852C14.7893 9.38086 15.1584 9.42188 15.3576 9.31641C15.6389 9.16406 15.6447 9.10547 15.6447 6.08789V3.26367L15.9553 3.30469C16.1193 3.32812 16.4709 3.39844 16.7287 3.46289ZM20.5725 13.3945C20.7775 13.582 20.9182 13.8691 20.9182 14.0801C20.9182 14.1562 20.8537 14.3438 20.7717 14.4961C20.6193 14.7832 20.5783 15.1582 20.6838 15.3516C20.8127 15.5918 20.9533 15.6152 22.4357 15.6445L23.8713 15.6738L24.5568 16.7285C24.9377 17.3086 25.2248 17.8008 25.2072 17.8184C25.1838 17.8359 24.6916 18.041 24.1057 18.2754C23.051 18.6914 22.9279 18.7676 22.6115 19.1836C22.5471 19.2715 22.5236 19.6699 22.5002 21.2344C22.465 23.3613 22.4592 23.3906 22.09 23.8125C21.8732 24.0586 21.5803 24.2227 21.2639 24.2812C21.1291 24.3047 20.1506 24.2051 18.7033 24.0234C17.4143 23.8652 16.2775 23.7305 16.1838 23.7305C16.0783 23.7305 15.9318 23.7949 15.8264 23.8828L15.6447 24.0352V23.127V22.2246L16.0783 22.1953C17.9709 22.0723 18.844 19.7812 17.508 18.4395C17.1154 18.0469 16.6701 17.8535 16.1018 17.8242L15.6447 17.8008V16.7227V15.6445H17.3205H18.9963L19.1955 15.4453C19.4416 15.1992 19.4592 14.9414 19.2482 14.543C18.9963 14.0684 19.1018 13.5996 19.5178 13.3125C19.6818 13.1953 19.7756 13.1777 20.0568 13.1953C20.3264 13.2188 20.426 13.2539 20.5725 13.3945ZM7.80489 16.0781C7.86934 17.1094 8.57247 17.9062 9.592 18.1055C10.1018 18.2051 10.5295 18.1406 11.0334 17.8828C11.7541 17.5078 12.1877 16.8105 12.1877 16.0254V15.6445H13.2717H14.3557V17.3203V18.9961L14.5549 19.1953C14.801 19.4414 15.0588 19.459 15.4572 19.248C15.9318 18.9961 16.4006 19.0957 16.6818 19.5176C16.8107 19.7109 16.8283 19.793 16.8049 20.0684C16.7756 20.4316 16.5881 20.6895 16.2482 20.8359C15.9787 20.9531 15.8147 20.9355 15.5041 20.7715C15.2111 20.6191 14.842 20.5781 14.6428 20.6836C14.3557 20.8418 14.3557 20.8652 14.3557 24.2871V27.4805H10.4065H6.45723L6.86153 25.875C7.08418 24.9902 7.30098 24.0234 7.34786 23.7188C7.69942 21.4629 7.33614 19.2715 6.26387 17.1445C6.04122 16.6992 5.79512 16.1777 5.71309 15.9902L5.57247 15.6445H6.67403H7.77559L7.80489 16.0781Z" fill="#0082E0"/>
</svg>
