<svg width="34" height="34" viewBox="0 0 34 34" fill="none" xmlns="http://www.w3.org/2000/svg">
<circle cx="25" cy="25" r="9" fill="#CCE5F6"/>
<path d="M5.00977 0.580078C4.72266 0.714844 4.42969 1.01367 4.3125 1.30078C4.17188 1.63477 4.18359 3.11133 4.33008 3.42773C4.43555 3.66797 4.76953 4.00195 5.01562 4.11328L5.15625 4.17773V10.834V17.4902L4.21875 17.959L3.28125 18.4277V23.5078V28.5938H2.8125H2.34375V29.0625V29.5312H15H27.6562V29.0625V28.5938H27.1875H26.7188V18.75V8.90625H22.9688H19.2188V6.53906V4.17188L19.3945 4.10156C19.6289 4.00195 20.0039 3.58594 20.1035 3.30469C20.2148 2.99414 20.2148 1.69336 20.1035 1.38281C19.998 1.08398 19.6582 0.708984 19.3652 0.580078C19.1426 0.474609 18.7793 0.46875 12.1875 0.46875C5.54883 0.46875 5.23242 0.474609 5.00977 0.580078ZM18.8672 1.4707C19.1133 1.55859 19.2188 1.81055 19.2188 2.34375C19.2188 2.87695 19.1133 3.12891 18.8672 3.2168C18.5918 3.31055 5.7832 3.31055 5.50781 3.2168C5.26172 3.12891 5.15625 2.87695 5.15625 2.35547C5.15625 1.82227 5.23828 1.58789 5.47266 1.48828C5.71875 1.38281 18.5625 1.36523 18.8672 1.4707ZM18.2812 6.5625V8.90625H16.4062H14.5312V14.0918C14.5312 16.9453 14.5195 19.2773 14.5078 19.2773C14.4902 19.2773 12.9199 18.6152 11.0156 17.8125C9.11133 17.0039 7.5293 16.3477 7.49414 16.3477C7.46484 16.3477 7.14844 16.4941 6.79688 16.6699C6.44531 16.8457 6.14062 16.9922 6.12305 16.9922C6.10547 16.9922 6.09375 14.1211 6.09375 10.6055V4.21875H12.1875H18.2812V6.5625ZM25.7812 19.2188V28.5938H24.375H22.9688V26.7188V24.8438H21.5625H20.1562V24.375V23.9062H22.5H24.8438V22.0312V20.1562H20.6953H16.5469L16.0195 19.9277L15.498 19.7051L15.4805 14.7715L15.4688 9.84375H20.625H25.7812V19.2188ZM13.5996 20.0039L19.1895 22.3711L19.207 25.4824L19.2188 28.5938H18.75H18.2812V26.25V23.9062H16.4062H14.5312V26.25V28.5938H13.5938H12.6562V26.25V23.9062H10.7812H8.90625V26.25V28.5938H8.4375H7.96875V23.1152C7.96875 20.1035 7.97461 17.6367 7.98633 17.6367C7.99805 17.6367 10.5234 18.7031 13.5996 20.0039ZM7.03125 23.1445V28.5938H5.625H4.21875V23.8301V19.0723L5.58398 18.3867C6.32812 18.0117 6.96094 17.7012 6.99023 17.7012C7.01367 17.6953 7.03125 20.1445 7.03125 23.1445ZM23.9062 22.0312V22.9688H22.0312H20.1621L20.1445 22.3184L20.127 21.668L19.5117 21.4102C19.1777 21.2637 18.8906 21.1348 18.873 21.1172C18.8613 21.1055 19.9863 21.0938 21.375 21.0938H23.9062V22.0312ZM11.7188 26.7188V28.5938H10.7812H9.84375V26.7188V24.8438H10.7812H11.7188V26.7188ZM17.3438 26.7188V28.5938H16.4062H15.4688V26.7188V24.8438H16.4062H17.3438V26.7188ZM22.0312 27.1875V28.5938H21.0938H20.1562V27.1875V25.7812H21.0938H22.0312V27.1875Z" fill="#0082E0"/>
<path d="M7.03125 6.5625V7.96875H8.4375H9.84375V6.5625V5.15625H8.4375H7.03125V6.5625ZM8.90625 6.5625V7.03125H8.4375H7.96875V6.5625V6.09375H8.4375H8.90625V6.5625Z" fill="#0082E0"/>
<path d="M10.7812 6.5625V7.96875H12.1875H13.5938V6.5625V5.15625H12.1875H10.7812V6.5625ZM12.6562 6.5625V7.03125H12.1875H11.7188V6.5625V6.09375H12.1875H12.6562V6.5625Z" fill="#0082E0"/>
<path d="M14.5312 6.5625V7.96875H15.9375H17.3438V6.5625V5.15625H15.9375H14.5312V6.5625ZM16.4062 6.5625V7.03125H15.9375H15.4688V6.5625V6.09375H15.9375H16.4062V6.5625Z" fill="#0082E0"/>
<path d="M7.03125 10.3125V11.7188H8.4375H9.84375V10.3125V8.90625H8.4375H7.03125V10.3125ZM8.90625 10.3125V10.7812H8.4375H7.96875V10.3125V9.84375H8.4375H8.90625V10.3125Z" fill="#0082E0"/>
<path d="M10.7812 10.3125V11.7188H12.1875H13.5938V10.3125V8.90625H12.1875H10.7812V10.3125ZM12.6562 10.3125V10.7812H12.1875H11.7188V10.3125V9.84375H12.1875H12.6562V10.3125Z" fill="#0082E0"/>
<path d="M7.03125 14.0625V15.4688H8.4375H9.84375V14.0625V12.6562H8.4375H7.03125V14.0625ZM8.90625 14.0625V14.5312H8.4375H7.96875V14.0625V13.5938H8.4375H8.90625V14.0625Z" fill="#0082E0"/>
<path d="M10.7812 14.0625V15.4688H12.1875H13.5938V14.0625V12.6562H12.1875H10.7812V14.0625ZM12.6562 14.0625V14.5312H12.1875H11.7188V14.0625V13.5938H12.1875H12.6562V14.0625Z" fill="#0082E0"/>
<path d="M16.4062 12.6562V14.5312H20.625H24.8438V12.6562V10.7812H20.625H16.4062V12.6562ZM23.9062 12.6562V13.5938H20.625H17.3438V12.6562V11.7188H20.625H23.9062V12.6562Z" fill="#0082E0"/>
<path d="M16.4062 17.3438V19.2188H20.625H24.8438V17.3438V15.4688H20.625H16.4062V17.3438ZM23.9062 17.3438V18.2812H20.625H17.3438V17.3438V16.4062H20.625H23.9062V17.3438Z" fill="#0082E0"/>
<path d="M8.99414 19.0605C8.95312 19.1601 8.85938 19.3769 8.79492 19.5293L8.67188 19.8105L8.80664 19.8574C8.87695 19.8867 9.10547 19.9804 9.31055 20.0625C9.51562 20.1504 9.68555 20.2148 9.69141 20.2031C9.74414 20.1269 10.0781 19.3125 10.0605 19.3007C10.0547 19.289 9.82617 19.1894 9.5625 19.0781L9.07617 18.8672L8.99414 19.0605Z" fill="#0082E0"/>
<path d="M10.7988 20.1387C10.6523 20.4727 10.623 20.6016 10.6757 20.6309C10.8046 20.7129 15.7734 22.8047 15.7851 22.7813C15.8378 22.7051 16.1718 21.8907 16.1542 21.879C16.1425 21.8614 11.0097 19.6875 10.9921 19.6875C10.9921 19.6875 10.8984 19.8926 10.7988 20.1387Z" fill="#0082E0"/>
</svg>
