<svg width="34" height="34" viewBox="0 0 34 34" fill="none" xmlns="http://www.w3.org/2000/svg">
<circle cx="25" cy="25" r="9" fill="#CCE5F6"/>
<g clip-path="url(#clip0_2048_3)">
<path d="M17.707 2.70117C17.0742 3.01172 16.7578 3.54492 16.7578 4.27734C16.7637 4.97461 17.0449 5.49023 17.6133 5.80664L17.9297 5.98828V6.70312V7.41797L16.8047 8.0918C16.1895 8.45508 15.6562 8.76562 15.6211 8.77734C15.5859 8.7832 15.2109 8.57812 14.7949 8.31445C14.0039 7.82227 13.793 7.74023 13.5234 7.8457C13.2012 7.96875 13.0664 8.44922 13.2598 8.75391C13.3125 8.83008 13.7227 9.11719 14.1738 9.4043L15 9.91406V11.3027V12.6855L14.5898 12.9434C14.1387 13.2188 14.0625 13.3125 14.0625 13.5938C14.0625 14.0039 14.3906 14.291 14.7773 14.2148C14.877 14.1973 15.0879 14.0977 15.2461 14.0039C15.3984 13.9043 15.5566 13.8281 15.5859 13.8281C15.6152 13.8281 16.1543 14.1387 16.7812 14.5137L17.9297 15.1992V16.582V17.9648L16.7871 18.6562C16.1602 19.0312 15.6094 19.3359 15.5684 19.3242C15.5215 19.3125 14.9824 19.002 14.3672 18.6328L13.2422 17.959V17.4258C13.2422 16.9277 13.2305 16.8809 13.0898 16.7344C12.8672 16.5176 12.4453 16.5176 12.2227 16.7344C12.082 16.8809 12.0703 16.9277 12.0703 17.4375V17.9883L11.4902 18.375C11.168 18.5859 10.8809 18.7559 10.8516 18.7441C10.8223 18.7324 10.2949 18.416 9.67383 18.0469L8.55469 17.373V16.6641V15.9492L8.87109 15.7676C9.43945 15.4512 9.7207 14.9355 9.72656 14.2383C9.72656 13.5059 9.41016 12.9727 8.77734 12.6621C8.47266 12.5039 8.35547 12.4805 7.97461 12.4805C7.23047 12.4805 6.70312 12.7969 6.39258 13.4297C6.23438 13.7344 6.21094 13.8516 6.21094 14.2324C6.2168 14.9355 6.49805 15.4512 7.06641 15.7676L7.38281 15.9492V16.6641V17.3789L6.60352 17.8418C6.18164 18.0996 5.66602 18.4043 5.4668 18.5273L5.10352 18.7383L4.30664 18.2461C3.62695 17.8242 3.47461 17.7539 3.25781 17.7539C2.89453 17.7539 2.69531 17.959 2.69531 18.334C2.69531 18.4805 2.73047 18.6445 2.77148 18.7031C2.8125 18.7559 3.19922 19.0195 3.63281 19.2949L4.42383 19.7871L4.44141 21.3164L4.45312 22.8398L3.65039 23.4727C3.20508 23.8184 2.8125 24.123 2.77734 24.1523C2.73633 24.1816 2.60156 24.1523 2.45508 24.082C2.07422 23.9121 1.41211 23.9238 1.02539 24.1055C0.597656 24.3047 0.380859 24.5098 0.181641 24.9141C0.0234375 25.2188 0 25.3359 0 25.7227C0 26.1094 0.0234375 26.2266 0.181641 26.5312C0.492188 27.1641 1.02539 27.4805 1.75781 27.4805C2.49609 27.4805 3.02344 27.1641 3.33984 26.5254C3.50391 26.1973 3.52148 26.1152 3.50977 25.6699L3.49805 25.1836L4.01953 24.7734C4.30664 24.5449 4.6875 24.2461 4.86914 24.1113L5.19727 23.8535L6.46289 24.6152C7.54102 25.2539 7.77539 25.3711 7.97461 25.3711C8.17969 25.3711 8.41406 25.2539 9.52734 24.5801L10.8398 23.7949L11.6309 24.2871C12.3105 24.7148 12.457 24.7852 12.6738 24.7852C13.043 24.7852 13.2422 24.5801 13.2422 24.2051C13.2422 23.8477 13.1953 23.7949 12.252 23.209L11.4844 22.7227V21.293V19.8691L12.0117 19.5117C12.3047 19.3184 12.5801 19.1426 12.6211 19.125C12.668 19.1074 13.3008 19.4531 14.0273 19.8867C15.1523 20.5664 15.3867 20.6836 15.5918 20.6836C15.7969 20.6836 16.0254 20.5664 17.1504 19.8926C17.8711 19.459 18.4922 19.1016 18.5215 19.1016C18.5508 19.1016 19.166 19.459 19.8926 19.8926C21.0176 20.5664 21.2461 20.6836 21.4512 20.6836C21.6562 20.6836 21.8848 20.5664 23.0098 19.8926C23.7363 19.4531 24.3516 19.1074 24.375 19.1133C24.3926 19.125 24.8789 19.459 25.4473 19.8574L26.4844 20.5898V21.0293C26.4844 21.7734 26.8008 22.3008 27.4336 22.6113C27.7383 22.7695 27.8555 22.793 28.2363 22.793C28.9805 22.793 29.5078 22.4766 29.8184 21.8438C29.9766 21.5391 30 21.4219 30 21.041C30 20.2969 29.6836 19.7695 29.0508 19.459C28.5703 19.2188 27.9668 19.2012 27.4922 19.4238L27.1875 19.5645L26.0742 18.7734L24.9609 17.9824V16.2715C24.9609 14.6426 24.9551 14.5488 24.8438 14.4316C24.7793 14.3613 24.123 13.9395 23.3789 13.4941L22.0312 12.6855V11.2969V9.90234L22.752 9.42773C23.7305 8.77734 23.7891 8.71289 23.7891 8.37305C23.7891 7.93945 23.4375 7.67578 23.0273 7.79297C22.9395 7.81641 22.5469 8.05664 22.1543 8.32031C21.7617 8.57812 21.416 8.78906 21.3926 8.77734C21.3633 8.76562 20.8418 8.45508 20.2207 8.08594L19.1016 7.41211V6.70312V5.98828L19.418 5.80664C19.9863 5.49023 20.2676 4.97461 20.2734 4.27148C20.2734 3.89062 20.25 3.77344 20.0918 3.46875C19.7812 2.83594 19.2539 2.51953 18.5098 2.51953C18.1289 2.51953 18.0117 2.54297 17.707 2.70117ZM18.8965 3.89648C19.2363 4.23047 18.9844 4.80469 18.5039 4.80469C18.1875 4.80469 17.9883 4.59961 17.9883 4.27734C17.9883 4.10156 18.0234 4.00195 18.1348 3.89648C18.334 3.69141 18.6973 3.69141 18.8965 3.89648ZM19.7168 9.24023L20.8594 9.91992V11.3027V12.6914L19.7109 13.377C19.084 13.7578 18.5332 14.0625 18.4922 14.0508C18.4512 14.0391 17.9121 13.7285 17.2969 13.3594L16.1719 12.6855V11.3086V9.93164L17.3027 9.24609C17.918 8.87109 18.4629 8.56055 18.498 8.56055C18.5391 8.55469 19.084 8.85938 19.7168 9.24023ZM8.34961 13.8574C8.68945 14.1914 8.4375 14.7656 7.95703 14.7656C7.64062 14.7656 7.44141 14.5605 7.44141 14.2383C7.44141 13.9102 7.64062 13.7109 7.96875 13.7109C8.14453 13.7109 8.24414 13.7461 8.34961 13.8574ZM22.6406 14.5137L23.7891 15.1992V16.582V17.9648L22.6465 18.6562C22.0195 19.0312 21.4688 19.3359 21.4277 19.3242C21.3809 19.3125 20.8418 19.002 20.2266 18.6328L19.1016 17.959V16.582V15.2051L20.2324 14.5195C20.8477 14.1445 21.3867 13.834 21.4277 13.834C21.4688 13.8281 22.0137 14.1387 22.6406 14.5137ZM9.16992 19.2012L10.3125 19.8926V21.2695V22.6523L9.16406 23.3438C8.53125 23.7188 7.98633 24.0234 7.94531 24.0117C7.9043 24 7.36523 23.6895 6.75 23.3203L5.625 22.6465V21.2695V19.8926L6.75586 19.207C7.37109 18.832 7.91602 18.5215 7.95117 18.5215C7.99219 18.5156 8.54297 18.8262 9.16992 19.2012ZM28.623 20.6543C28.9629 20.9883 28.7109 21.5625 28.2305 21.5625C27.9141 21.5625 27.7148 21.3574 27.7148 21.0352C27.7148 20.707 27.9141 20.5078 28.2422 20.5078C28.418 20.5078 28.5176 20.543 28.623 20.6543ZM2.13867 25.3418C2.47852 25.6758 2.22656 26.25 1.74609 26.25C1.42969 26.25 1.23047 26.0449 1.23047 25.7227C1.23047 25.3945 1.42969 25.1953 1.75781 25.1953C1.93359 25.1953 2.0332 25.2305 2.13867 25.3418Z" fill="#0082E0"/>
<path d="M12.2227 14.3906C12.0996 14.5137 12.0703 14.6016 12.0703 14.8242C12.0703 15.0469 12.0996 15.1348 12.2227 15.2578C12.3457 15.3809 12.4336 15.4102 12.6562 15.4102C12.8789 15.4102 12.9668 15.3809 13.0898 15.2578C13.2129 15.1348 13.2422 15.0469 13.2422 14.8242C13.2422 14.6016 13.2129 14.5137 13.0898 14.3906C12.9668 14.2676 12.8789 14.2383 12.6562 14.2383C12.4336 14.2383 12.3457 14.2676 12.2227 14.3906Z" fill="#0082E0"/>
</g>
<defs>
<clipPath id="clip0_2048_3">
<rect width="30" height="30" fill="white"/>
</clipPath>
</defs>
</svg>
