<svg width="34" height="34" viewBox="0 0 34 34" fill="none" xmlns="http://www.w3.org/2000/svg">
<circle cx="25" cy="25" r="9" fill="#CCE5F6"/>
<g clip-path="url(#clip0_2048_24)">
<path d="M13.4473 0.0644531C8.1094 0.785156 4.79886 5.24414 4.99807 11.4199C5.03323 12.5449 5.12698 13.2188 5.38479 14.2148C5.95901 16.4121 7.18362 18.5859 8.84768 20.3496C9.14651 20.666 9.38089 20.9297 9.36917 20.9414C9.35745 20.9531 9.08206 21.0938 8.75393 21.2578C5.36136 22.957 2.23245 25.5996 0.703153 28.0547C0.0469032 29.1152 -0.1113 29.584 0.0937783 29.8711L0.181669 30H15H29.8184L29.9063 29.8711C30.1114 29.584 29.9532 29.1152 29.2969 28.0547C27.7676 25.5996 24.6387 22.957 21.2403 21.2578C20.918 21.0938 20.6426 20.9531 20.6309 20.9414C20.6192 20.9297 20.8242 20.6953 21.0821 20.4199C21.3457 20.1445 21.7383 19.6934 21.9551 19.418L22.3477 18.9258L22.5059 19.084C22.5879 19.1777 23.2324 19.8633 23.9297 20.6074C25.1953 21.9668 25.2012 21.9727 25.4473 21.9727C25.6875 21.9727 25.711 21.9551 27.1114 20.5488C28.4473 19.2129 28.5352 19.1133 28.5352 18.9082C28.5352 18.6738 28.7578 18.9434 25.9629 15.8613L24.5918 14.3438L24.7207 13.7812C24.9258 12.8438 24.9668 12.498 25.002 11.4199C25.1192 7.83398 24.0586 4.76953 21.9785 2.69531C20.6074 1.33008 19.125 0.5625 17.0508 0.140625C16.4649 0.0234375 14.1094 -0.0234375 13.4473 0.0644531ZM17.0567 1.10742C17.7891 1.26562 18.4336 1.47656 19.0313 1.75781C19.5703 2.00977 20.2383 2.40234 20.1973 2.4375C20.1856 2.45508 19.043 2.33203 17.6602 2.16797C14.6953 1.82227 14.6426 1.81641 14.4785 2.02734C14.3203 2.22656 14.3203 2.41406 14.4903 2.60742C14.6192 2.75977 14.6485 2.76562 17.8418 3.13477C19.6172 3.33984 21.1758 3.52734 21.3106 3.54492C21.5391 3.58008 21.5918 3.62109 21.9375 4.06641C22.3711 4.61719 22.7813 5.29102 23.0567 5.88867L23.2442 6.30469L21.5977 6.11133C20.6895 6.00586 17.3672 5.61914 14.209 5.25C11.0508 4.88086 8.30276 4.55859 8.10354 4.53516L7.74026 4.49414L7.92776 4.22461C8.20315 3.82617 9.22854 2.81836 9.67972 2.50195L10.0664 2.22656L11.6309 2.41406L13.1895 2.5957L13.3477 2.47852C13.4766 2.38477 13.5059 2.31445 13.5059 2.10938C13.5059 1.75195 13.3594 1.66406 12.627 1.58203C12.3047 1.54688 11.9766 1.50586 11.8946 1.48828L11.7481 1.45312L11.8946 1.39453C12.2051 1.27734 12.8965 1.10742 13.3946 1.02539C14.1856 0.896484 16.3125 0.943359 17.0567 1.10742ZM8.68362 5.54883C9.4512 5.63672 10.0606 5.72461 10.0313 5.74219C9.99026 5.7832 7.09573 6.21094 6.90237 6.21094C6.81448 6.21094 6.8262 6.15234 6.9844 5.80078C7.08401 5.57227 7.19534 5.39062 7.2305 5.39062C7.26565 5.39062 7.9219 5.46094 8.68362 5.54883ZM18.3985 6.67969C20.8946 6.97266 23.0567 7.23047 23.2032 7.25391C23.4082 7.28906 22.5117 7.43555 18.75 7.98633C16.1543 8.36719 12.2403 8.94141 10.0547 9.25781C7.86331 9.58008 6.0469 9.84375 6.01761 9.84375C5.89456 9.84375 6.22268 7.76367 6.40432 7.38867C6.47464 7.24805 6.53909 7.23633 10.1074 6.70312C12.1055 6.41016 13.7637 6.16406 13.7989 6.1582C13.8282 6.15234 15.9024 6.39258 18.3985 6.67969ZM23.8653 8.4668C23.9297 8.78906 24.0762 10.043 24.0469 10.0723C24.0293 10.0957 16.8047 9.26367 16.7754 9.24023C16.7578 9.2168 23.5899 8.21484 23.7012 8.2207C23.7832 8.23242 23.8242 8.29688 23.8653 8.4668ZM15.8789 10.0898C17.8242 10.3184 18.4688 10.4121 18.2578 10.4355C18.0352 10.459 17.6289 9.85352 17.5 10C17.0137 10.5449 17.8711 10.166 18.4864 10.4297C19.1836 10.7227 18.5 10.5 20 10.5704C19.9414 10.4415 18.8438 10.5 18.7559 10.4297H18.6153L18.7559 10.4355C18.8321 10.4355 20.0567 10.5762 21.4746 10.7402L24.0528 11.0449L24.0703 11.3379C24.0938 11.707 23.9883 12.6387 23.8418 13.3535C23.7774 13.6582 23.7188 13.916 23.7129 13.9277C23.7012 13.9395 22.5645 13.8105 21.1934 13.6523C19.8164 13.4883 18.5977 13.3594 18.4864 13.3594C18.211 13.3594 18.0469 13.5293 18.0469 13.8164C18.0469 14.2383 18 14.2207 20.8477 14.5605C22.9219 14.8066 23.4024 14.877 23.3907 14.9473C23.3379 15.1816 23.0332 15.873 22.6934 16.5293C22.3653 17.1621 22.2949 17.2617 22.1836 17.2441C22.1192 17.2324 20.7012 17.0684 19.043 16.875C11.5078 16.0078 6.87893 15.4629 6.8262 15.4453C6.73245 15.416 6.33401 14.1855 6.18167 13.4648C6.1055 13.1191 6.05276 12.832 6.06448 12.832C6.07034 12.832 8.44339 13.1074 11.3321 13.4473C14.2266 13.7871 16.6641 14.0625 16.752 14.0625C17.168 14.0625 17.3555 13.5469 17.0449 13.2773C16.9102 13.1602 16.4532 13.1016 11.7422 12.5508C8.91214 12.2168 6.43948 11.9297 6.25198 11.9121L5.91214 11.877L5.92972 11.3438L5.94729 10.8164L9.37503 10.3066C11.2617 10.0254 12.8965 9.79688 13.0078 9.79102C13.1192 9.78516 14.4141 9.91992 15.8789 10.0898ZM26.127 17.4609L27.4219 18.8965L26.4434 19.875C25.5235 20.7949 25.4532 20.8535 25.3653 20.7539C24.4453 19.7637 23.4668 18.709 23.2149 18.4512L22.8985 18.123L23.2617 17.502C23.5606 16.9863 23.8067 16.4766 24.1992 15.5391C24.2696 15.3809 24.0293 15.1406 26.127 17.4609ZM9.19925 16.6758C10.2129 16.7871 11.0918 16.8984 11.1504 16.9219C11.209 16.9453 10.5235 17.0742 9.54495 17.2148C7.59378 17.4961 7.83987 17.5371 7.47073 16.8574C7.35354 16.6406 7.27737 16.4648 7.30667 16.4648C7.33011 16.4648 8.18557 16.5586 9.19925 16.6758ZM17.9004 17.7012C19.2891 17.8594 20.7012 18.0234 21.0528 18.0586C21.3985 18.0996 21.6797 18.1465 21.6797 18.1699C21.6797 18.2578 21.0235 19.043 20.9532 19.043C20.9121 19.043 19.7051 19.2129 18.2754 19.4238C10.8809 20.5137 10.4824 20.5664 10.377 20.5078C10.1133 20.373 8.39651 18.4219 8.46682 18.3457C8.53128 18.2871 14.9824 17.3555 15.1758 17.3789C15.2871 17.3906 16.5176 17.5371 17.9004 17.7012ZM17.1094 21.2402C18.3809 21.3867 19.5176 21.5332 19.6289 21.5684C19.9571 21.6738 21.5977 22.5059 22.2657 22.9102C23.2676 23.5137 24.8203 24.5918 24.7676 24.6504C24.7559 24.6621 23.1797 24.4863 21.2637 24.2637C19.3477 24.0352 15.7266 23.6133 13.2129 23.3203C10.6992 23.0273 8.5137 22.7695 8.36136 22.7461L8.07425 22.7051L8.65432 22.3945C8.97073 22.2246 9.49222 21.9609 9.81448 21.8145L10.4004 21.5332L12.4219 21.2344C13.5352 21.0645 14.5254 20.9414 14.6192 20.9531C14.7188 20.9648 15.8379 21.0938 17.1094 21.2402ZM8.92386 23.7715C10.0196 23.8945 10.8574 24.0117 10.7989 24.0352C10.6524 24.0938 4.97464 24.9141 4.93948 24.8848C4.92776 24.8672 5.21487 24.6328 5.57815 24.3633C6.55081 23.6367 6.75589 23.502 6.8555 23.5254C6.90237 23.5371 7.83401 23.6484 8.92386 23.7715ZM17.9121 24.8145C19.711 25.0254 21.8496 25.2773 22.6699 25.3711C23.4903 25.4707 24.17 25.5527 24.1758 25.5645C24.1875 25.5762 21.6211 25.957 18.4688 26.4199C14.0391 27.0645 12.709 27.2754 12.5977 27.3574C12.2871 27.5801 12.4395 28.1836 12.8086 28.1836C12.8789 28.1836 16.0078 27.7324 19.7578 27.1816L26.5723 26.1855L26.9121 26.5547C27.4805 27.1641 28.1953 28.084 28.5176 28.6172L28.8282 29.1211L17.7657 29.1152L6.70901 29.1094L9.02347 28.7637C11.2383 28.4355 11.3438 28.418 11.4727 28.2715C11.6367 28.0723 11.6367 27.8789 11.461 27.6738C11.3438 27.5391 11.2793 27.5156 11.0684 27.5273C10.9278 27.5332 8.67776 27.8555 6.06448 28.2363C3.45706 28.623 1.31253 28.9336 1.30667 28.9219C1.30081 28.916 1.42972 28.6992 1.58792 28.4414C1.93362 27.9082 2.56643 27.1172 3.14651 26.4961L3.54495 26.0684L9.02347 25.2598C12.0352 24.8145 14.5371 24.4453 14.5723 24.4395C14.6133 24.4395 16.1192 24.6035 17.9121 24.8145Z" fill="#0082E0"/>
</g>
<defs>
<clipPath id="clip0_2048_24">
<rect width="30" height="30" fill="white"/>
</clipPath>
</defs>
</svg>
