<svg width="34" height="34" viewBox="0 0 34 34" fill="none" xmlns="http://www.w3.org/2000/svg">
<circle cx="25" cy="25" r="9" fill="#CCE5F6"/>
<g clip-path="url(#clip0_2048_9)">
<path d="M13.4531 0.533186C11.625 0.767561 9.70312 1.48826 8.18555 2.50194C5.67188 4.17772 3.7793 6.7324 2.90625 9.62108L2.70703 10.2832L2.03906 10.3125C1.3125 10.3476 1.1543 10.4004 0.837891 10.7344C0.46875 11.1152 0.46875 11.1328 0.46875 13.6055C0.46875 15.6562 0.480469 15.8672 0.580078 16.084C0.638672 16.2129 0.744141 16.3711 0.814453 16.4297C0.9375 16.541 0.9375 16.5586 0.9375 19.2422C0.9375 22.248 0.960938 22.5234 1.31836 23.5957C2.13281 26.0332 3.96094 27.8613 6.4043 28.6816C7.40625 29.0156 7.85156 29.0625 10.2129 29.0625H12.3047L12.5391 29.2324C12.9375 29.5195 13.1133 29.5371 15.1172 29.5195C16.9395 29.5019 16.9688 29.5019 17.2559 29.3555C17.9062 29.039 18.2812 28.418 18.2812 27.6562C18.2812 26.8476 17.8359 26.1621 17.1387 25.9043C16.834 25.7871 16.6934 25.7812 15.0059 25.7812C13.0488 25.7812 12.9023 25.7988 12.4922 26.1094L12.293 26.2617L10.2656 26.2324C8.44922 26.209 8.17969 26.1914 7.74023 26.0801C6.1875 25.6875 4.94531 24.668 4.27734 23.25C3.86133 22.3594 3.80273 22.0019 3.76758 20.039C3.75 18.9668 3.75586 18.334 3.79102 18.3691C3.82031 18.3984 3.97852 18.5976 4.14258 18.8086C4.30664 19.0195 4.54688 19.289 4.67578 19.4121L4.9043 19.6406L4.79297 19.9394C4.69922 20.1797 4.68164 20.3437 4.69922 20.7422C4.7168 21.1699 4.75195 21.293 4.92188 21.6152C5.78906 23.2383 8.77148 24.4394 12.8027 24.7851C13.7109 24.8613 16.2891 24.8613 17.1973 24.7851C21.2285 24.4394 24.2109 23.2383 25.084 21.6094C25.248 21.293 25.2832 21.1699 25.3008 20.7422C25.3184 20.3496 25.3008 20.1797 25.2129 19.9512L25.1016 19.6582L25.5 19.2246C25.9512 18.7383 26.5547 17.8652 26.8418 17.2676L27.0352 16.875H27.7734C28.5996 16.875 28.834 16.8047 29.1621 16.459C29.5312 16.0722 29.5312 16.0547 29.5312 13.5937C29.5312 11.1328 29.5312 11.1152 29.1621 10.7344C28.8457 10.4004 28.6875 10.3476 27.9609 10.3125L27.293 10.2832L27.0938 9.62108C26.0566 6.1992 23.5898 3.26365 20.4434 1.71678C19.2246 1.11326 17.9648 0.726545 16.6523 0.556623C15.9258 0.462873 14.127 0.451155 13.4531 0.533186ZM16.1016 1.49998C16.5645 1.53514 16.5879 1.541 16.5645 1.65819C16.5469 1.7285 16.5117 1.91014 16.4941 2.06248L16.4531 2.34373H15H13.5527L13.4883 1.95115C13.4531 1.73436 13.4297 1.54686 13.4414 1.541C13.4766 1.50584 14.959 1.43553 15.293 1.45311C15.4688 1.45897 15.8379 1.4824 16.1016 1.49998ZM12.5684 2.51951L12.6855 3.25194H15H17.3145L17.4316 2.53709C17.4961 2.14451 17.5664 1.81053 17.5898 1.78709C17.6074 1.76365 17.877 1.82225 18.1816 1.91014L18.7324 2.06834L18.6621 2.45506C18.6211 2.666 18.5273 3.15233 18.457 3.52733L18.3281 4.21873H15H11.6719L11.543 3.52733C11.4727 3.15233 11.3789 2.666 11.3379 2.4492L11.2676 2.06248L11.7715 1.916C12.0469 1.83397 12.3164 1.76951 12.3633 1.77537C12.4277 1.78709 12.4805 1.98045 12.5684 2.51951ZM10.5762 3.80858C10.6934 4.43553 10.7988 4.99803 10.8164 5.05076C10.8457 5.15037 11.0977 5.15623 15 5.15623C18.9023 5.15623 19.1543 5.15037 19.1836 5.05076C19.2012 4.99803 19.3066 4.43553 19.4238 3.80858C19.541 3.18162 19.6465 2.61912 19.6641 2.56053C19.6934 2.46678 19.7637 2.49022 20.2559 2.75389C22.0957 3.73826 23.5371 5.06834 24.7148 6.88475C25.1074 7.47655 25.6699 8.60155 25.8926 9.22264L26.0156 9.56248L25.6816 9.2578C24.3223 8.03905 21.9961 7.01365 19.4531 6.50389C17.8008 6.17576 17.2031 6.12303 15.0293 6.12303C12.9258 6.12303 12.3984 6.16405 10.957 6.42186C8.16797 6.93162 5.75391 7.96873 4.28906 9.28709L3.97852 9.56248L4.10742 9.22264C4.33008 8.60155 4.89258 7.47655 5.28516 6.88475C6.46289 5.0742 7.89258 3.74998 9.73242 2.75975C10.2188 2.49608 10.2891 2.47264 10.3242 2.56639C10.3477 2.61912 10.4648 3.18162 10.5762 3.80858ZM16.9629 7.15428C20.0391 7.40623 22.9395 8.39647 24.7559 9.80858C25.5762 10.4531 26.2266 11.2851 26.4844 12.0234C26.6602 12.5332 26.707 13.3828 26.5781 13.8867C25.9512 16.3711 22.4414 18.4101 17.7539 19.0137C16.752 19.1426 15.1992 19.2012 13.9863 19.1484C8.57812 18.9316 4.13672 16.7168 3.42188 13.8867C3.29297 13.3828 3.33984 12.5332 3.51562 12.0234C3.78516 11.25 4.46484 10.4062 5.34961 9.7324C7.96875 7.75194 12.3457 6.77928 16.9629 7.15428ZM2.50195 11.3789C2.25586 12.3926 2.32031 14.8887 2.61328 15.832C2.64258 15.9258 2.60156 15.9375 2.29688 15.9375C1.81055 15.9375 1.58789 15.8496 1.48828 15.6094C1.38281 15.3574 1.37109 11.9004 1.4707 11.6015C1.55273 11.3672 1.79297 11.2558 2.2207 11.25C2.51367 11.25 2.53125 11.2558 2.50195 11.3789ZM28.2656 11.332C28.5762 11.4609 28.5938 11.5898 28.5938 13.6055C28.5938 15.6328 28.5762 15.7558 28.2422 15.873C28.1367 15.9082 27.8906 15.9375 27.6973 15.9375H27.3516L27.3926 15.7734C27.5684 15.1172 27.6094 14.8008 27.6387 13.8222C27.668 12.8437 27.6094 11.8359 27.498 11.3789C27.4688 11.2558 27.4863 11.25 27.7676 11.25C27.9375 11.25 28.1602 11.2851 28.2656 11.332ZM5.30273 17.7305C7.26562 19.0078 9.95508 19.834 13.0547 20.1035C14.1152 20.1972 16.9043 20.1445 17.8711 20.0156C21.1406 19.5762 23.8535 18.539 25.5703 17.0859L25.9629 16.7519L25.7871 17.0918C24.9844 18.6797 23.3145 20.0625 21.457 20.6836C20.3027 21.0644 20.3379 21.0644 15 21.0644C9.66211 21.0644 9.69727 21.0644 8.54297 20.6836C6.68555 20.0625 5.01562 18.6797 4.21289 17.0918L4.03711 16.7519L4.42969 17.0859C4.64648 17.2676 5.03906 17.5605 5.30273 17.7305ZM2.8125 19.3652C2.8125 22.125 2.83008 22.3183 3.1875 23.2734C3.46875 24.0234 3.88477 24.668 4.47656 25.2949C5.27344 26.1328 6.10547 26.6426 7.24805 26.9941C7.75781 27.1465 7.79297 27.1523 9.74414 27.1758L11.7188 27.1992V27.6621V28.125H10.418C8.17383 28.125 7.20703 27.9785 6.09375 27.4863C4.55273 26.8125 3.1875 25.4472 2.51367 23.9062C1.98633 22.7109 1.88086 21.873 1.875 18.8496V16.875H2.34375H2.8125V19.3652ZM7.17773 21.2109C7.82227 21.5215 8.45508 21.7324 9.20508 21.8965C9.66211 21.9961 10.1074 22.0019 15 22.0019C19.8926 22.0019 20.3379 21.9961 20.7949 21.8965C21.9082 21.6562 22.9629 21.2226 23.8652 20.6308L24.3164 20.332V20.6015C24.3164 21.123 24 21.5508 23.2324 22.0605C21.7324 23.0625 19.0898 23.7187 16.0723 23.8418C12.2402 23.9941 8.64258 23.3086 6.76758 22.0605C6 21.5508 5.68359 21.123 5.68359 20.6015V20.332L6.14062 20.6308C6.38672 20.7949 6.85547 21.0586 7.17773 21.2109ZM16.8164 26.8711C17.1152 27.0469 17.2852 27.3281 17.2852 27.6562C17.2852 27.9844 17.1152 28.2656 16.8164 28.4414C16.623 28.5586 16.5176 28.5644 15 28.5644C13.4824 28.5644 13.377 28.5586 13.1836 28.4414C12.4453 28.0137 12.6035 26.9824 13.4355 26.7715C13.5352 26.748 14.2969 26.7305 15.1172 26.7363C16.5059 26.748 16.623 26.7539 16.8164 26.8711Z" fill="#0082E0"/>
<path d="M14.0039 8.10938C14.0039 8.17969 14.0215 8.4082 14.0391 8.60742L14.0801 8.96484H14.4492C15 8.96484 15 8.96484 15 8.43164V7.96875H14.502C14.0156 7.96875 14.0039 7.97461 14.0039 8.10938Z" fill="#0082E0"/>
<path d="M12.0645 8.14453C9.28711 8.54883 6.76758 9.5625 5.38477 10.834C4.70508 11.4551 4.21875 12.3105 4.21875 12.8906V13.125H4.7168H5.21484V12.9609C5.21484 12.5098 5.74805 11.7832 6.47461 11.2324C7.88672 10.1719 10.1367 9.38672 12.6152 9.08203C13.2598 9 13.2129 9.05859 13.1484 8.38477C13.1016 7.96289 13.1895 7.98047 12.0645 8.14453Z" fill="#0082E0"/>
<path d="M24.7848 13.289C24.7848 13.7695 23.9997 14.7129 23.1149 15.2929C22.236 15.8613 21.0465 16.3711 19.7809 16.6992C19.4352 16.7929 19.1305 16.8808 19.1188 16.8984C19.1012 16.9101 19.1364 17.1386 19.195 17.4023C19.277 17.7773 19.3122 17.8652 19.3883 17.8476C19.4411 17.8301 19.7047 17.7597 19.9801 17.6953C21.8551 17.2207 23.6129 16.3593 24.6325 15.4043C25.3063 14.7773 25.7809 13.9277 25.7809 13.3593V13.125H25.2829H24.7848V13.289Z" fill="#0082E0"/>
</g>
<defs>
<clipPath id="clip0_2048_9">
<rect width="30" height="30" fill="white"/>
</clipPath>
</defs>
</svg>
